<mxfile host="app.diagrams.net" agent="Mozilla/5.0 (X11; Linux x86_64) AppleWebKit/537.36 (KHTML, like Gecko) Chrome/135.0.0.0 Safari/537.36" version="26.2.14">
  <diagram id="ocTnManHlKYPQ22gz5mg" name="Page-1">
    <mxGraphModel dx="1426" dy="757" grid="1" gridSize="10" guides="1" tooltips="1" connect="1" arrows="1" fold="1" page="1" pageScale="1" pageWidth="850" pageHeight="1100" math="0" shadow="0">
      <root>
        <mxCell id="0" />
        <mxCell id="1" parent="0" />
        <mxCell id="SUoC9XZfshMG5ti-oYJR-2" value="" style="shape=image;verticalLabelPosition=bottom;labelBackgroundColor=default;verticalAlign=top;aspect=fixed;imageAspect=0;image=data:image/png,iVBORw0KGgoAAAANSUhEUgAAAs8AAAGPCAIAAAAsoKoRAAAACXBIWXMAAA7EAAAOxAGVKw4bAAAgAElEQVR4nOzdd1zU5hsA8Ce5yV7KUFHcW8GJewuK27qtW6t1/qqti7qte29bR13VuvfAvepAcaIiSzYyDg5uJ3l/f0RPZIMcB/h8P7af3Ju75ElC3nvuzZs3FCEEEEIIIYQMhjZ2AAghhBAq4TDbQAghhJBhYbaBEEIIIcPCbAMhhBBChoXZBkIIIYQMC7MNhBBCCBkWZhsIIYQQMizMNhBCCCFkWJhtIIQQQsiwMNtACCGEkGFhtoEQQgghw8JsAyGEEEKGhdkGQgghhAwLsw2EEEIIGRZmGwghhBAyLMw2EEIIIWRYmG0ghBBCyLAw20AIIYSQYWG2gRBCCCHDwmwDIYQQQoaF2QZCCCGEDAuzDYQQQggZFmYbCCGEEDIszDYQQgghZFiYbSCEEELIsDDbQAghhJBhYbaBEEIIIcPCbAMhhBBChoXZBkIIIYQMC7MNhBBCCBkWZhsIIYQQMizMNhBCCCFkWJhtIIQQQsiwMNtACCGEkGFhtoEQQgghw8JsAyGEEEKGhdkGQgghhAwLsw2EEEIIGRZmGwghhBAyLMw2EEIIIWRYQmMHAAAAXMKrKxdvvowm9rWad+rQ0P7D5Wukg0eN/AfHpoQ+unLuhrLFjB/dxHn8aFLAnXNnXpcaMsHT6atcjEsIeBIo4/SvKUpoYmVXysHRwVpa8ElbhrXREnM7R+fyjhYFeciy3FiD4qLvXIty7dTQotDWmCk28uqGDTdL/zjnx7qmxo0EIQBgPr71C0nmAAAocelq9StZZ3pOqqNevwhPJQAAlNSxSf0KOSw2x8owxxOBkwX5vY9nyOfXlNi+Wv2K1jSkfHj+JkatLwfapkrjanY5xJMreaqZikaFgvVJjoixsVHnfmtZxrHhkLlrNqyaO86zZply5UtZef2VmN8FMiFXNv7ao5opRVkPOqrKWywRNzb93MpRQIkaL37NpJ8Z+/zCvrmdnAQAlGnVziN/+mn0j3093Ks5OVZp7DVu+YmXiWx+Q84slJhnZ/+c5G5NA9ClGw8YN3bkAC/3ynY25Rv1/vXvp7ICWFW2G2tIOr95DWw6bAouzHVmgo3Y2E5CCatMu60xbiAIEUII0UU9u3hwcY8KQgpAWG3arUwrLzZkc0cLCoASVe674sit99kvMjeVYc4nAhv/6sqBeV3KCgAooUvPJYeuvUlkCSFs0rubR1b2qyqiAAQOHWbvvfA8Nvebm6W81kxFo0LB+iRHRs825KdHlhWW6nsg9vP3p/z5tj7lTRotevUtfzvsh3VtxHnPNgghRH3lJ2dBln/mqmODbWgQNVnir5+tDruxbmANU1pUzmPR9ZjcpwHqt09fyLN/S/wOTwmAxHNHPP+a+Xh7QRtbmrZs5H03Jdcryi6GbDc2b4vKeXN4qVd+chFQojqzH2VxVmZYUq4XnZN0C0p5d2nfP/ejCzJJROjbaG5NrSIEANqu975MahPN47luliYSCoQ1f/svd19rmVWGX58JuToR1BfGlBWAsPKUm1+vVvdwVm0h0LZDjue9ss1mbbmvmYpMhYL1SQ6M3W9D63f9TiyUqlRZ32hoUW/c9pV9qJho5luWK5Hk8QLKFwKhIJu5UqkUACj6y46TOLeddvDG0fHV4q4s6PPDiifqXK0l+da8YXOuJXLZvsnERAIAABT1KbTSrWb/MbIqLX+yac3JxFytJwfZb2zu5WpzAAC4jyd33hGWN2Pf7Nt6MTk3S8r1ovMco3k1jx8HNnM09jmA0Be0qZlFdbe6JiTxwqY/X6evBJMvbz9p37tLaRooExOzXP7lZqgM058JuToRKFMTCQBITKTpZpiaSCkAqVRK5S6c3MltzVSEKhSsT3Jg9D0jFNLAvD+84dgH9nMRXbr76F7lWPL1G9mU8ICg6NSMOYg2JSrQ/21kcm6yE04ZExwSl3k+wMjCgqNT2Uzn5YR27Lp849iqdNL9ld57P3z1d8ymxgS+CYpVpi3UBu3/afi6Z8p0m5gbwsqVnWkgysiwWD5UTVKSGgAYWXi4LM0uyGy1aXzLxmY4EnnYHDZ4/56IPrvW9HOCqBPb/glLF16GJWW96CwOpVomU/JBRoVGK74sPqsFaZOSlOlCzHrPZbVwhAoQ7TxgUi8HSvP0z00+KWlncOGHdzxsMaG3/bdU21mcCRlPhG+VZWWbbY2dx5qpwCqUrKLNY4WSyW7ECuUzY2cb4gY9u1URceFHRrfvs+x65Ke/P9N2c2Z76FPo5JcHZwzoM2LO9oObR9R3bjB43f1P6aQm4MiMnp4jV5y4dfPgxGZV2865FJvlAWPCr66aOGzklLneY1qWc2z443a/VP28ZN8doz08hi3cdXDz/waN3PwkNR9ZAFi0HtGvlohLvvnv6Qg+Ci7uztofO3iOW3ngyJb/da5ZrdXoLQ9kHIDm+d7lO/+LZti3BycP7D94/vm4PPyZMaEfojigbatXgQeHVkzsXt+l1eLr1xZ2qljWpVKDadc1Wa82+43lkl4cm9+9kpnUsv3aYBa4hEeH/hjZxN7UpNTgf/WnT6ZHIi+bo3381xHBoFEtvMYNrS5Mub5j1/O0NU6GJUX4ZbboTA8lG3J5w29D21Ur12zBzYc7RjR2dqpQqax9rWEHgtjMlhyX8uHO/iXjutQt33jOfc2n9We557JfOEIFi7LsMnVkLREX/u+Gg2l+uzAvd+1N/GFSR7M0b83VeZtGhjMhNCTjifCtsqxss62x81MNF0SFknm0eaxQMt2NWKGkY+xLOYTIH67yKCOiACiBTb1By6+EqtPOVfutbFel46pnqYQQwoZu6mBGiWrNfEAIYd6vaWMqcp3npyOEkI87u5joXxA2ZmuntJcqZT7TGrdb+lxNCCFs5O4etrSo2pTrqYQQwgTu7F6m4rBjny63pd77ra4o6+5JqnOjnGgQNf3jbcbZqhNDbWmgnUafVxFCFA8XNLWuNPpcAj9T4beyna3AutUyPzUhRHXyx1K0uPXa0Oyv8Sn29ZQASDx3JnzeV37rujjQtHWr5U8+BvvdWN3VjhbYNxo079Ct8+vH9Rm5/YUu29XmsLGqMyPsaVGLlYFMmp1o/sM/iuyOhCb3m0OSTo+qP/BQPCGEeb+6tSklcB59/uvrpxmWlKEgq0PJMEk3p1YT0pbVu0zf/TBGrQk7NqKSUFB+wlV1JgtiEwKf3t7QszQtKD/eh39Ddnsup4UjVEB0j+c07LI1hgnd5mFFUaI6sx9+7o2QcvGn+j3/imTVPuPLC0DUYP4LvrLL4bzNUBl+dSZkciJkQXNzciUBCKuM/ufp87T8Tk6qLQK6zOjznz6eZWWbXY2dt2r4swKoULKONi8VSma7ESuU9IzdtgEAFk1mnHt0acVgVxsq6cU/s7u4tZjwz7tPLVpc+H7v5UHtpv9c3wwAgK4wfNHiUUMGtCkPACCwc65e17WqDQUAYFHKzoQNfvNOm8ka2IC/Fu3mGjUg7168ePHiVVxF1+pCJujsiccagKSzixZcLjVkWs9Pl9vMGnZqkc+bQWlbWxsaiEqh4ICLPLhw3dNyA37ysOVnmrpOWTKySuq9lQsPx+SxxYzx/+e3yVMnjRvStVGNFt6vqo7afPnUrw1KV3Rt2datjIAI6gz8dVDrrlN3HN/9U+3YbFebw8ZSQqEozbVXWiwS6l9meSRyf0MuF3V0l1/LMT3tAEBQaegYDxsSeXzbkai87I6sD6VAYOHi4kSD1H38kpFNHCRiZ6++bUqRGP8Xme1v2rayW/OOjVz014azP2B5WzhC34qqMGRKP2da579nw+lEAAAu+ujOh80mDCiTsXLK7rzNSYYTIQdczPV10/+X1vSVlyLS/CLPrrLNusbOVzVcABVKNtHm6ZzPuBuxQsmoaIy3ISzb/teDj3+csGXGhHn/vHqyY7hHMrm9f3B5gezqmVuKKsvq6a+qWDT/31/N+UlBxeH7nw4HAG3M4+P/Xjz7Wk00alUmLVFc/I2rvlqt0+1jRz//MXT4bW4HQVVzFpS3Tl6KNevoWvPLjqAF+UzBOJksiQOBnb29EBS3L9+VU43KlEvTm7Rhx9YO63fd9rmvHd413UfVH0MjkrSf/85oc6dKZSz0n6TLNOnm1VoMYvOxv++pXcPhy83cNEUDbWFXSt8JLPvV9hPkf2OzOxK5w77ZuyfE/dcyEQEBAABQr0u70qdPXNn+16sR8+rl8u8wu0MJIgooANBXtJSpqZQiSoUiqxZZQZqNz+GA9RHndeEIfROLzlPGuO2f/+TUpt3v+syo/Hb3nrg+WzqYAxTU9Y4vBF/VAtlXRuX7b7y0vGmabqfMq0XuDeb7fXqV3RmadY2dr2q4ACqUbOsTgDye81/tRqxQMioa2QYAAAgdW049cLdZ/X7dZ/l8+HfO8lF9traNDI3QEAttZg0WAABM1K2tS3c+K9V14qRf+jzecMg/03dxMVGxDHFq/7/FP5VON4sNCQyWEYGwIHYDE/jCX87RVo1auIq5pLhENSHKVDkBJ/0Gli9fhiYv+F6dX9HcX9Su85bQz5mSxGtXzLlR1p/n0taVW3t2tc1FCNmvVhEry/fGMjkciZyp7/11ONas3J8z/velqLQNFftsz9Yb07d3Msvmo19kcygBvuVHQY4HLN+3OCGUP8LaYyd3XT/y5H87ttwZ2fP4yVKjztYuhPo6+8ooJ9meoVnV2GxsPqrhgqhQcoj2G2CFkgnjXklhQzb9NPt22s5MVk2m75rfwYxio/x8w4CSmkiAeeP7WP71x1gWALiwQ8Na9Pq33OztC4c0LJ3NHyolkUpA9/LhA8VXxVxCdKxOIBBQRB7+IS8dNTOnfnro+AtGWHHAmC5WQNvYlzKh2NB3AWl+iBCdjgHavpyzSfrPSprPu/H2nd6rnf0s8xVD9qs1/YaNzfZI5EbC6e2Xayw6d+F8GpcPTnYTc2H/bj2a2+bDbA5l/vMggJz2XIYDhpDh0Y4/TB1aWcgEH1g4Ztl/7j/3L5Txfr+tMsruDM2yxqbyUTMVSIVisPoEK5TMGDfbEDiUVR5Z/GdA2n7EdOkK5S0pytSpbCkQVHBv7EzFn12z7oH+TjAu4drqlecBtI+3LDkaUbpJq2piAACOYbisGrhcXOvaU7EnN+56+2VFCr+Ny4/FCh3q1y1L63zPng778rVJPv2XhcxmcQk35/+88RVddcSa39tbAIBpa8/WVhB3+/KDLw0Z6qDgCCjj0aOZBICiKCAs83kwYKm9S5VqelU+t1wSQrJeZ2ayXa1JjhtLUQCg03060TiVWkMACAHI5kh85CDD5mTAvtuzzbf5sB5fD2osrDNqTDtzknRp++43nyPKsKSvCrI5lDn+JWeMkej/l/MBQ6hQcFqNVqP59BVl2vLncc1MiezWxZTeE9p+/rlOCP9dmovzNlMZzoS0J0J2lRGBzBZLuE+VCIFsz1AmyxqbznM1XEAVyrfUJznsRqxQMjJyL1FxpUpWt7wH/Xox6vPB5mIvHbsWJ6w69KfutgCSVhMmtbZSPlzSpe2PC7YfOX1i96KhA/eU6u8F/O9qNuzaibtxmqS3Fzb/+1QNXFz0h+iQ8BQAjUYLwOoYDgBA2n7syHri5Gu/efX+fc+FO3evHV03vtfsOK8f6wklrcaOaWyWen3BjwsuR2kAtB8uHbsTy3FRz277Bn7MeIVUl5SkJAA6jfbzX5Um1u/Y4n7Nu60Lrz9p//nNn7o50WUGz/+1mfmHw2v3hfB/92zYkb1XJD2WzPUwB6BL29vSXKj/qxQu+fkd3yxGmuESZHICwCUnJmTahMDpdDpCNEqV/u89+9XmtLFCl8rlhczrk3tvx2pSP9zasepcmBA0YW/fpbBZHwl7OufNSbywcsvrRp7tzNOV02V792khBbXv9jXnZXxJ+iWlK1C2zfJQAtFqtQQ4fdJJlEo1gc/VQcYYiVqlBqJVq0jOByyHhSNUQBQfPkSHBQfr+FeC6qMm93IQ2nSdOFrfp0Edn5DKAUmWfb6vPbvzFiBdZZjJmfDViZAlJlGWQoDIZbKvT29OJksmQBSyJA1AtpVt1jW2No/VcIFVKK9cR2dZn+S1Qvl6N2KFkgkj3xOT9Hdvl4bdurVp0XngT9O9vX8Z1tbFumzLiQff6EfBZaMuzfOsYimkACihXcOR2x7J+Bk6/+09ncUURUlK1ev7h8/DTZ2tKErk1H7hycv7Fw+oZUoBbd966qazr+SEEPXbg+Ob2IsoAKAEVjV7L7oU8fnWKl3wsWmty5rQlNDc3rlOrz9Wj6hkU7n14FlbfYIUaUPVvTm98tfeNc0oAIq2qtiwRcvm7o3dalWr2cRz6PR1p19leEwK+/HOmkENK9buNHbe8iW/Du3iNXn/q89LVD9a5G5F06Zl6vdefleWyY7RvTm5fGqXShIKgBKVaz9pyc7rH9LeDMZG3fnzN88KIgoEjm2mbDj6SD/KcXarzWljE6/OcbcTUJRAZNdg1O5HR0aUta/jMXLOn3dj2GyORLabo3pxcGq7siJKVKHLr1uuhqbZBo3/6TW/dnHhl1e2w//2PU3JZEkZCzI9lEzotfUj6ptRlLCc55zddyMS/P75rb2jACiT2oNXXQpi0i0oPuTGroW9q4goEDi1m771ynt1dnsu54Uj9M2SfA8tmdi5opSirer2m7XZhz9ZNA/m9ph2jT+DVa+Or5zRu4YZBQC0TYMh3jtvEUKyOW+jIu5nUhmmORNuPc/kREiPCbywfs7A+lY0ANDWbgNnb7wSwhBC2MibO+ePci9NAwBlVr3n9BWn3pCsK9usauzFd2S5r4bzVKGQXFQoWUSbtwol892IFcrXKJJ1gxtCCCGE0LcrAuNtIIQQQqhEw2wDIYQQQoaF2QZCCCGEDAuzDYQQQggZFmYbCCGEEDIszDYQQggVpODg4NjYWGNHgYoWzDYQQggVpGXLlu3atcvYUaCiBcfbQAghVGAUCoWNjY1UKpXJZAJBbp9lj0o8bNtACCFUYI4eParT6VJSUu7du2fsWFARgm0bCCGECgbHcXXq1Hnz5g0AtGjR4s6dOxRFGTsoVCRgtoEQQqhgvH79uk6dOvy0QCAICQlxdnY2bkioiMArKQghhArGvHnz9NMsy27YsMGIwaAiBds2EEIIFYCUlBRbW9vKlSu/e/cOAFq2bOnn55eYmCgWi40dGjI+zDYQQggVgIsXL9apUyc6Orpp06YAEBcXFxsbq9Vq3dzcjB0aMj7MNhBCCBUYPz+/Bg0aAIBMJrO2tjZ2OKiowH4bCCGEEDIszDYQQgghZFiYbSCEEELIsDDbQAghhJBhYbaBEEIIIcPCbAMhhBBChoXZBkIIIYQMC7MNhBBCCBmW0NgBIIQQMj5CyNu3b3fv3h0WFsZxXL6XExgYyE/06dPHzs7uW0IyNzf38PDo3r27mZnZtywHFQU4lihCCH3vNBpNnz59Ll68WAS/EczMzI4fP965c2d8eH2xhtkGQgh91xiGadWq1YMHDwDAzs7OtYGbmZm5sYMCAAgNCXn18iXHcTRNX79+vU2bNsaOCOUfZhsIIfRd27Zt28SJEwkhQ4cPm/u7t7WNdRFpRWAY5sH9B+PHjI2Pj7ezs4uIiJBKpcYOCuUTZhsIIfT94jiuXLly0dHR7s2a/XvyWBF8OrzPZZ/hQ4ZyHHflypVOnToZOxyUT3hPCsrEmTNnGIYxdhQIIYNTKpUxMTEA0H/QwCKYagBA67atnco4AcDDhw+NHQvKP8w2UHocx02aNOnx48fGDgQhZHAajYZv4ba1tTV2LJmTSCQSiQQAdDqdsWNB+YfZBkrP398/IiLC29sbr7IhhBAqEJhtoK8QQpYuXUoIuXnzZlxcnLHDQQgZE8uywUHBGYff0Ol0EeHhRgkJFVOYbaCvyOXyEydOAADHcX/++aexw0EIGZNcLu/drYdKpUpXHhMdM3nCZKOEhIopzDbQVw4dOqTVavnpNWvW4IVShFBG1tbW4ydOMHYUqDjBbAN9wbLs3Llz9S+TkpJu3LhhxHgQQkWT1ETasFFD/UtCyLu3727euJGYKEv7NpZlX796ffvm7SRZUtpyhUJx/+69e3fvKRQKvoRhmOd+zziOkyXK/J4+LYRNQIUMsw30xYMHDzQaTf369QFAKpU2bNhwzpw52FcUIZROTHTMuFFjAeC/e/+NGzV2+tRf1q1ee/rEKc8OnQ7tP8hXGhHh4X179F61fOWpkyf79e67d9cevv/H+TPnenbtfuzfo0cO/dOpbYdbN24BgFqtXrxw8f6/9/84aMjN67eMu3XIEPCpbOgTQsi7d+8+fvx47dq1nj17SiSSBw8e+Pj4JCUl2djYGDs6hFDRov8dcu/u3W07d7Ru2xoAXr96PWLIsB8G9BOLxXNmzhk6/Me+/X6gKCo5OXn44B/rutarXLnKmpWrD5/4197eHgAeP3y8dNGSNu3aAMDHmNig94HHz5zk73dFJQy2baBPKIoaNWqUmZkZTX/6q6Bp2tPTE1MNhFA2atSs2bJ1S366eo3qtIBKSUkND49ITEzo3bcPPwi6lZXVmPHjzpw8zTLMtBm/8KkGAJR2sI8ID+OnlUrFz5MnYqpRUmHbBkIIofxzdHTU/0QRCoVCoRAAAt6+DXj7zqN9R/3bFAplBZcKdqXsmrdofvjQ4devXgmFoiSZjPvcRuLg6GRji79tSizMNhBCCBUwgVDYtFmzLTu2pi0UCoXv3r773+SpE6dMnjJtqqWVpVyecvf2bX4uRVFF5GlwyBAw20AIIVTAatSo8SE0VCQSmZiY8CWXL14ODQlNTZH37NPLq7sXXxj3MYjNMHQYKpGw3wZCCKEscRyXIk+Rp5EiT8k4umg6Do4ONWrWWPHHcv45LFFRUWtXrWnWopm1ra3vI1++MDo6+q8df3Icl3H0MFTyYNsGQgihzAkEAgdHx6EDB6ctlEqlK9eurlipIgCYmpmWcy6Xdm7VatUEAgFFUSvXrvaeOaeXVw9aQLMMO3HKpLr16lZwcbl/917XTp5mZqZm5hazvedwHLt6xarpv82oVLkSXkkpwSgcTQGlc+7cue7du1tZWclkMjz5ESrZEhISSpUqBQB7D+z37OpZsAvnOE4ul2vUGmtra4lUoi9MSkpiGdbG1kYoFPLfQdlXNc0bNw0OCp43b97ChQsLNkJUaLBtAyGEkEHQNG1tbZ2xMO3T7fEnzXcC+20ghBBCyLAw20AIIYSQYeGVlCInPj5+586d//zzj1qtNkoAycnJJiYmDMNUq1bNKAEIhcL27dtPmjSpRo0a2MqKkEFJJBKKoggh0VHRxo4lc0qlUqVUAYBUKjV2LCj/sJdo0fLs2TN3d3eNRmPsQIyPoqgdO3aMGTMGEw6EDIcQUqNGjYCAgFq1a5+5eM7c3NzYEX2FEHLowKHpU6cBwP3795s1a2bsiFA+YbZRhMTHx1eoUEGpVNI0XbVKTQtLK2NHZByMTufv/1yr01IUdf369bZt2xo7IoRKsqNHjw4YMIAQ0snDY8kfSytUrGDsiD7RarTHjx7znj1HoVC4uLi8f/+eHxYdFUeYbRQhy5YtmzNnDk0LZvxvYY+ug7/b3/SEEP+3ftNnjUpJSa5atWpAQICxI0KoJCOEeHp6XrlyBQCEQlGlypWlUuM/Go0QiIqKTIiPBwCRSOTn51e7dm1jB4XyD7ONooIQ4u7u/ujRo8qVqu/ZcU4g+N5T+JXrZp8+e5iiqBxHLUQIfSOWZX/77bf169cXwdPNxcXl7NmzderUMXYg6Jt8719pRQrfLdTe3gFTDQBwdCgLAJgNI1QIBALB6tWrf/311zt37ly9evUbu6j7+PiYm5t/ex+LBg0auLu7N27cWP+MWVR84bcaQgghoCjK0dGxX79+/fr1+5blEELKlCljZWW1d+/e7/ZyMMoIE0aEEEIFxt/fPzY29smTJ5GRkcaOBRUhmG2UNGs3/f7jaA95iixdOcPq/jdz2NwFP2X/8fdB/knJCfz0omXTxvzcQ6VWpnuPTqf9aXKfZat/y35RG7YufBf4Ii+xI4SKN0LI4sWLCSGEkNWrVxs7HFSEYLZR0sjlSR/jou/9dy1d+dt3L4KC38iSErL/+Mkz+4JC3vDTScmJ4RGhT/zupXvPk2f3I6M+JCcn5hBJShLD6PISO0KoeEtOTj558iQ/vXv3bnyUPNLDbKME6tih29UbZ9P2LSeEnL90tJtXni/HdurY3ef6mbQlhJBzF4706D6gAAJFCJUshw8f1mq1/HRKSsrVq1eNGw8qOjDbKIGqV62TkpIcHRuuL0lVyF/5P23RtD3/khDyxO/e/2b+2G9I66GjO69YO1upSlWqFfOXTP7v4e3tO1cvWDKVf2cD12Yhoe8TZXH6RcXFR0dGfWjo2px/KUuK3/bX8rRr33dgS1DwG8NuIUKo6OE4bvbs2fr7RwQCwcyZM/G2MsTDbKMEEgpFnTr0uHTluL7k1p1LDd2am5t/Gpw0JjZ8258rZkxd/O+BW7u2npaIxSdO75OKpWNHTq9T27V3r8FjRv6Pf6dYJGnTsvPVG2f1i7p242yrFp3E4k+D/2i1Gv+3z9KuPSDwtTwlybBbiBAqeh49ejR06NADBw7wL2/fvt2kSZPAwEDjRoWKCMw2SqaO7Xrcueej0aoBgOPYC1eOeXl+uYwSHRvZu+eQsmVcKIqSSEyaubd/8+YlTQvKlXWxMLd0sC9TrqyL/s1dPH64euMs3wODZRmfG2c7d+hV6BuEECrq6tevv3Hjxho1avAva9WqtWfPHmdnZ+NGhYoIHG+jZLKxLlXeudLL176N3FoGBr+hAKpUqhkWEcTPbVC/GVe3SWjY+4jI0I8fox89uQ1clnmno31ZczPzoJA31avWe/na186mdNkyLrLk+MLaFIRQ8WBiYpKuhKIofHAr4mHbRonl2bnPhcvHCCEXLx/z8uxHUV+Odc+nLr8AACAASURBVMiHgOmzh1+/eV6n1TVt0rp3j6HZLIemBZ079rpw+Tgh5OyFIz26D8p+xB6OFLmRjxFCCBkXZhsllmu9pkHBb6Njwx4/vd+iWce0s3b/vX7gD2NGDZvWrk3Xsk4uLMtmvyj3xu2ePL0f8zE84P3rJg1apZvLskzal4myjwUSP0IIoRIDs40Sy0Rq1qxJ25Vr57jWb2JpYZN2llKlZBgd31dcpVKcv3RU32+comiVKv1wXlaWNvXqNlqxZnarlp3E4q/aRc3NLWNjo2VJny6svPT3/RAWbKhNQgghVDxhv40Si6KoTh16Hjm2d9yoGemuffzQe9j6TQv9nj+iBYLAoNe9ug/ZtHXptZvnOrTt5lqvyeZty06cOrh2xd9pF9XFo++UX4ZMm7Qg3aLMTC26ew2cPmt408ZttVpNSmqSR6eehbSFCCGEigl84nxRQQhxdXV98eJFM/fWq//4O+cPZEGpTBUKRfwdqoSQlJRkcwtLmqIBgGVZlUphbm5JCElI/Pj8xSOpiWnd2g0tzK1SFXKhQGRiYkoIUShTOZa1tLRWKFLEYolIJAYAjnCpKXILCys+22AYnUajMTMzBwCO40LD3gcEvC5XrkKNavWS5IlmJuYmJmZKpUIslgiF+cxo9x3avOOvNYCPgUWoWPHz82vQoAEAyGQya2trY4eDigps2yhpTE3N9dMURVlafjnbBQKBubklX17KzqFDu+76WRafh+KgKMrczIKfNvs8AQA0RaddlFAoEgpFn2bRdCWX6pVcqvMvS9k6fI7ErOA2CyGEUDGG/TYQQgghZFiYbRQh/Ii/8hQ5XjsAALk82dghIIQQKhiYbRQVFEV16NABAAID3waFvPnOE45Uhfzuf1cBwM7OztixIIQQ+lbYb6MIGTVq1Lp16zQa9ZRfhvTsPsjK8jv9otVolD7Xz4aHhwLAokWLjB0OQgihb4X3pBQhhJDZs2evWLHC2IEUFU2aNLl7965IJDJ2IAih3MJ7UlCmMNsoWgghFy9enDVrlr+/f8YhPinquzheFEU5OTlNmzbtl19+EQgExg4HoZKGEOLv7//XX389ffpUpVIV7MJjY2PDwsIAoGbNmubm5jm+P0/MzMwaNmw4duzYatWqZf8IBVTUfBffXsUOIUSn02U8NDt37hw9enQJ+ALWaDTnz5/v06dPpnMpihIIBCVgMxEqgnQ6Xbdu3a5cuWLsQPKPoqiRI0du374dGz6LEcw2ig2WZUuXLv3u3bvSpUsbO5Zv9fTp0+HDh7948QJ/nSBUmDiO8/DwuHr1KgDY2Fi1buVqb1/K2EHlQVRk7J17z+XyFADo3bv38ePHsQ4pLrCXaLFx7949mUy2Y8cOb29vY8fyTQghixcv9vf3j4iIcHZ2NnY4CH1Hjh8/zqcaAwd4bN/yPwuL4vc4+Lj4lNFjV56/cOfUqVMPHjxo1qyZsSNCuYJtG8UDIaR169Z37941NzeXyWT5Hg68KEhOTrazs2NZdtKkSZs2bTJ2OAh9L/SPR6hfr/rtGxvMzYtfqsFLTEx1azwmIiKmf//+hw8fxuaNYgHH2ygePn78+N9//wGAQqG4deuWscP5Jlu2bOE7wO7Zs6fAe6ghhLLCMMzLly8BoH+/9sU31QAAW1vzHt1bAsD169fxB3NxgdlG8bBy5Ur+G5q/S7b4nmAMw6xbt46fVigUly9fNm48CH0/9H3PS5e2NXYs36qUnRkAaDQaYweCcguzjWJAq9Xu2LFD//LJkyf8DWbF0b179xISEvQvp06dWnwzJ4QQQrmE2UYxcPHiRZZlbWxsAMDc3Nza2nr9+vXGDio/CCELFixwdHTk71uzt7ePjo5++/atseNCCKUXERH/976r3vP/2rTl1MtXH/BXAfpGmG0UdYSQFy9ehIeHd+nSBQCcnZ2joqKsra21Wq2xQ8uzhISEYcOGBQcHm5iYAMDOnTuDg4MvXLhg7LgQQl+wLLdp82mvHrPDI2Nr16oIQE2YuPbnSRtVqkKqc7RaZtac3Wo1UzirQ4UDs41iwNvbu1SpUvr7UCQSybx584rjsDZ2dnYjR44Ui8X8S5FIVK5cuV9++cW4USGE0jpw6MbxU7ev+6z1nj1k0IAOkyf2vHZlTXRMwrLlhwunhYNluUtXfFmWK4R1oUKD2UZRR1FUxvu7Mi0s+jKNuThuCEIlVWqq5o9l+zZvmGpnZ6EvlEiEy//46ez5+wzz6XEKycnKy1d8T5y6Exkl06cgCoWa47iY2OQjR69fu/EsbVsIISQ6Jun4iVtXfJ4ky5X6cq2WuXvP/8i/1x8+eqfTMQCg0zFyuYJlWXmKQq0ufi24KCuYbSCEEPrk/gN/BwfbOrXLpyuvUb2sn+92/nkC1288b9VuyqnTdx88eN27r/eylUf4doiOnr9t2HRh3Pi1L14Ebd9xplXbqXFxyQDAcWTj5tNdvH7974H/mbP3WrWZcv+/twAQFS3z9Jq1e8/5Fy+DFi/d98OARUqV9vrNl55eM4KDQ7t4zdi6/VSh7wBkKMV4kCiEEEIFKyAgvGHDGlnNpWkqLj5l4pT1B/f97uZakaIomUzh1WOWW/2qXTwbAoGA96HHjvwuFgs5jowYtfLfY7cmTuhx/caLQ/9cvXF1vY2NGQDcvPVq6i8b7t3avHHTiV49W02e2IOiKIbhuvea+/hxgEcnt9YttzVrNe3erfVmZuJC3HRkWNi2gRBC6JPkZLmJSXYDf50+c69tG7cGbpX4a6A2NmazZw79c9c5fu7Y0V5isRAAaJpq1qzmhw+xALBr7/mZvw3hUw0AaN2q9tzZo1iO69ih0YB+bfnl0DSYmZlGRkYbdOuQEWHbRj5xHFfIt4QxDMP3DM34JHqDoj4rzJUihIzCxcX5/IV7GcsJITdv+TVuVOvly0A31yppZ9WrVzk6RgYAQEHp0jb6colECAAMw/q/Dqq/YJS+nKapXj0aA0Dr1rUvXvS9fddPJtNIJILQUEw1SjLMNvIsPDzc29v76tWrhXwPqlKpBICQkBBHR8fCXK9QKHR3d583b56rqyvmHAiVbA0bVFm0eI9KpTMx+equt0SZYviolc98d5mYiNVqXdpZKlV2A3pSFCWRitWaLx8hhISHxzk52Y4YtbpSRcdfpg0qW8YaAMZN2FCgm4KKFsw28ub27dsdOnRgGKPdCK7T6dRqdSGv9NSpU6dPn54zZ87ixYsx4UCoBKtWtUyNmhV27700cUL3tOVH/r3VuHFNa2vTFi1ct+84NfnnHhT9qSq4cfNZ3ToVslqgQEC3bOF2+crj2rU+PfBZo2G69fr9zMk/Hjx8tm/PIaGQBgCW5cLDYwFqGWzLkJFhtpEHcXFxnTt3ZhhGKBQ2bdXMtlSxf9ZAbigViv9u/adUKJYtW9a9e/emTZsaOyKEkKHQNLVlw5TuvebodOyIYZ2src2USs3JU/c3bj569tQymqY6d2ywZu2R9ZtOjR/nJRYL791/s279kdMn/8hmmRPH9+jWa7ara5XWLeuo1dolyw517NCwrJM1y1K377xu26aOUqn9a/elyKi4hIRUhuEoilKp1c9fBtWoVtbW1rLQth0ZFGYbebBr1y6NRkNR1KINSzr17vyd/MonhAS+DhzXd3SKPGXu3Lk+Pj7fyYYj9H0qV87u0oWVfyw/4OE1KzU1WSyS1qpV8eypZVWrOAGARCI8fOj3mbN3uLe8wHFs2TKOe/fMrlmjHAA0aliN76vBc3KyY3QEACpXdjzwt/dc7z8nT4kRCIVtWrmuWDZOJBZsWj915uztCkWKjY1t/35tt23+ZcWqA54ejatUKfvb9IGLFu/u1bPl+HE9jbUfUMGicPT73Gvfvv2NGzcqVq747+3j+lbE78SsMTOvnr8ilUqVSuU3Zhscx9nY2Mjl8vPnz3ft2rWgIkQIZU+pVJqZmQHAzu1zR4/slP2bCSEsy7EsS9O0UChId9YTQnQ6lhAiEgnp3FWGHEd0OoaiKVGapbEsxzCMQCAQCGiKogghuaxeFi7es2jJ3xYWFklJSTSNN1cWA9i2kQccxwGApbXV95ZqAIBYKgaAwu8yghAyCoqihEKBUCjIai5/p2vu0TQlkaR/3oJAQAsEXwbVwHbTEgxTQoQQQggZFrZtFAaWYVUqFQWU1EQqyOK3AkIIIVRSYduGYRFCLh+/NKn/z+N6jfmp79hxvcacPnQ6N8NzPX/4bNrQKRsXbdSqteEh4XyhWqmeNnTK5iWbMr4/Jjz6p75jLx7Dp7cjhDInkUj4R0kHvA8zdizfhBASGhoPABYWFjm+GRURmG0Y1o3zN04eOrlg46IDPof2XTqwYOOikweOH/nzcI4fXL9g3fCfR4yYMiI6PHrV7BV8Icdxr5+9vnDsXMLHhHTvv3zqsr/f67iYuILfBoRQiUDTdPPmzQHg0D+Xo6ISjR1O/r0LiDx95jYAdO3aFbuIFhd4nAzr0okLIyaNdCjnQNM0TdPOlZy9V/1+aOcBvsNpNmKiY6rXq2Fpnf5ec5qiGjVrcufKnbSFWo32yunLXXp5FXD0CKEShKKo1atX0zQdFfWxV1/vx76BGi2j07HF6J9ao7t153WvPnOS5SlCoXDOnDnG3qkot7DfhmFpNVqd9qtRfl2qVVy9ex0/rVap92/dd/PSDY1a07h542GTRjg5OwW/DT68+5A8Wb7695Wl7EuHh4YHBQT+8dsSrx+6Va1VDQC6/uC1b+veHoN76JP6F49flLIv5VjeiX9JCHn/+v3u9X+9eeVvYWHZvmuHHycNY3XsX+t29h7St6xLWf49x/Ycdani0rh1k8LbHQgho2rUqNGkSZM2btz45Kl/81bjypZ1EovT3ydSlKnVGv2T25YvX16xYkXjxoNyD7MNw/Lo5bnSe3lSosytWQPHso5CkVAoEtZwrQEALMN6j5/jXKn8juN/SkykV0/7TB06Zdu/221L23bw6uhzxqeNZ1sra6uwoLDI0IgOXh3LlC/DL7NK7aparfbD+9CK1SvxJScPnOjzY9+Q96H8y9jI2IVT53uvmVejfo2UpJQ/flt6av/JfqP6V6lRdcn0RWv2rTM1M7125urVsz4b/9lsjL2CEDIOiqLWrVtXrVq1X375RavVhodHGjui/DAxMdm9e/eAAQOMHQjKA8w2DMuzbxfrUjanD53atnKrialJ/cb1u/bt1qB5A1pAP73/NDU1ddLcyfxdKp59PaPCIo/u/Xf8zAlN27iLxeLGLZqYmpva2NpePePTtI07AChTlQAgEAo8+3Y5d+Tc5HlTACAhNiHwzft56+brs41A/8Aufb1qutYEAEsby279ul86daHfqP6de3u8fPLyrzV/9hnWd8eqbesPbJJIJcbaMwgho6BpeuLEicOHD793796dO3dyvKqbD/Hx8RKJJNMunLGxsQ4ODhnL5XK5VCoVi8UZZ6UllUrbtGnTtGlTqVRaMLGiwoLZhmFRNNWsXbNm7ZpxHBf8Nvjh7Qerfl9RtUbVhZsX379xt3MPD/0NsRRFtfFsu2LWstwstlMPj5/6jB47Y5zUVHr55KXWndtITL7kDS07t2zesXlCXEJ8dFxMZMzlk5cYjgEAmqYn/z5lYv8JNy/e+GXhDP6SCkLoO2Rubu7h4eHh4WGIhd+8edPOzq5u3brpygkhR44cGThwYMaPhISElCtXTiQqTpd1UJ5gL1EDUilVL3yf82PD0zRdpVaVIeOH/nV6d1BA0OO7j1PkqSZmpmnfb2VjBSRXQ+lZ2VpWrVXd956vTqfzOePTrf9XT2uMDo+eNWbmnnW7ff/zNbMwb+PRTj9LLBFXqlYpRS53qeJSAFuIEEJfI4RMmTJlxYoVGR+LERIScvnyZY0m/RPqCSEvX76MiIgorBiREWC2YUCJcYlzxs3WarVpCy2sLKrUqJoQm+BSucKHwJC0s0ICgqVmub200fUHr7OHz7zyfWVuae5cyTntrE1LNnb9oev0pTOG/DS0UctGpmYmfDkh5PyRc7IE2ezl3r9Pnstfl0EIoQIUGRn5+vXrw4cPp6amppt16tQphmHu37+frjwxMVGtVr9+/Rqf21WCYbZhQPZODqUcS188ejFt4ceojy+fPK/doHa7rh18zvjEx8Tz5Tqt7uCOA14/dEu/FAoYHZNx4W7ublFhkX9v3ttjQA9a8NVxTIiLt7C25J84oNPpLp28xJeHvAvZv23fr0tntfVq69rYdcPC9YTDcxshVJC2b9/OcRzLsvv27Utbnpyc/OLFCwA4fvx42qyCEPLmzRtCiEKhkMvlhR0uKizYb8OARGLh/PULvH+ec//63QbNGpqYm0SGRN66dLP/qEEVqlSgKGrklFFThkzy6tdNaiK9delW2QplO/ZM/2BGO3u7uNiPvwyfNmjs4NqudfTlUlNpy46tTh8+tazT8nQf6T6g54pZy/r82JemqYe3Hrbo0Grf1r3Xzlzdu3nPb0tnOZS1B4DxM3+eNnTK+X/Pew3wwichIYQKhFar3bhxIz/9xx9/jB8/XiD41DXt9u3b/DDKcrk8PDy8fPnyfLlOp4uO/nRT68uXL1u2bFnoUaPCgE+cz4O2bdveunWrfkPXXef25P5TGrXmzbM3b168VipVzhWcXd3d7J3s9XPDgsIe3n6gVqkbuDes6VpTP4RG4JvAStUq8Y0WKckpkWGRTmUdLawsgwOCXKpW5IcfTklOSUpMcq746TJKwscEoMCutB3hSMCrdw/vPDQ1M23WtnmZCmU+BH7gOI6mKZeqX25PlyXI5Eny8pXK5ybbmDfp9wvHzwEAx3H4xHmEUKbOnj3bo0cPfpqiqLt37/Kjl7Is+/PPPyuVn67eNmrUaMqUKXxN4u/v//LlS76cpumePXvmeGcKKo6wbcPgJFKJq7urq7trpnPLVy5fvnL5jOVValbRT1tYWdSoW+NzedW05RZWX+4xs7O34ycomqper0b1ejX0s1yqumRchY2djY2dTe43BCGEskEImTt3btqXy5cvP336NEVRAQEB+lQDAJ49e6ZSqUxNTQkh796905dzHBcaGlqtWrVCjRsVCuy3gRBCqAAEBQVptdrJkyfzL9etW+fn55eYmEgIOXHiRNeuXa2trQHAzc3NxcXl3r17ABAfHy+VSl1cXPiP1K5d+927d4YYAgQZHWYbecBf5lAqlN/h5Se+pyreDY8QygpFUf7+/iNHjuRfjhgxIigoiGEYhmHGjx8/aNAgKysrAKhVq9a8efOqVq1KCBGJRJ6envoByGvXru3h4cEwmfSLR8UdZht50KpVKwAICgh8ePOhsWMpVB8CP/jeewQAbm5uxo4FIVREVa5cOd0TWcVisYODg0gksrOzS1tOUZSLiwtFUdbW1un6gYnFYuy3USJhv408GD169NKlS1mWnTl2Rtsu7cu7ZNLfouSRJSZeOXMlMSGRoqiFCxfiDSwIoWyEhYXxE7GxsfylEz1+BI6YmJh0H9Hf+MqyLN8FHpU8eFzzwNnZ+eDBg0OGDFEoFOePnTV2OIWKoqixY8caaJxjhL4H5GvGDsdQFAqFfkKn++oJ2AzDEELUanW6crVazd8cq9VqS/Ce+RbUZ+laj4oRzDbygKKo/v3716lTZ8qUKXfu3Pl+zgoXF5e1a9d269YNGzYQyh+WZVmWZRiG4ziO40pw7aEfmFylUqW9DwUA+D4cWq02XblareY/pVQqsXNYpvg8g6ZpkUgkEAiKY86B2UbeUBRVu3bta9eusSxb+B2n9+/fP3jwYP1oOYWDoihs20Qo3wghLMvqdDqtVqvVavmqowQ3b6jVan5CqVSmpKSknaXVanU6nVqtTleuUCj4T6WkpGC2kZG+VUMgEPD9Wvico3j9/MNvkXwSCASF/K2v0+mmT5/u5eWV6fOaEUJFE8uyWq1WLpfHxMQkJyfzlwxKaqoBAFFRUfxEaGhoup/gSUlJKSkpMTExacfYAACFQsE/nj4oKKh4fYMWGqFQaGVlZWVlJZVKWZYlhEgkkkL+DvpGmG0UG3fv3k1KSlq7du2KFSuMHQtCKFc4jtPpdOHh4e/evUv3gMaSSt9vQy6Xy2SytLPUajV/GSVdOQBIpVIASEpKKpwgi6P4+HgTE5OKFStaWlryTR3FqxsHZhvFAyFk9uzZALBp06alS5fipQ2EigWWZcPDw1+9esU3ZojFkmL09ZA/UqkpP2FiYiqVmqSdJZFIdTpGKjVJV45yQIBhdQzDKJXKgICA6tWrCwQCkUgkFAqL0Z8TfmkVD2FhYb6+vgCgVqvPnDnTp08fY0eEEMoBIUSlUr19+5YQIhQKq1apXbqUA00Xp9bvfBCA6TJYCgCtW3Z2dHRMO+vVyzeypMQmjZu7N2lrnOCKLZ1OGxYeFB4RyjeVmZub8z2OCSHF5dpTsUmLvnMbNmzQX+5dsWJFCb7oi1CJQQiJjIzkL6BUr1bHwd6JpmkAUrL/EdDXThnnQtaz8F+6XfQVkUhcuWKNMk7OACCXy5VKZbG7swnbNooBtVq9Y8cO/UtfX9/g4ODKlSsbMSSEUDYIIRzHsSwbFxfHcZxUamJrU/o7efwHy7GfJjLcuMcRjt8z38muyB+Koj79D6h0M8qWKR8VHU4ISU1NtbOz4+9sKi5tG5htFAPnz58HgNKlS8fFxVlZWYlEohUrVuzcudPYcSGEvsJ/lTIMww+todPpUlJSVCqVRCJVq1XGjq6Q6LdUpVaqVF+Nq6HT6RidTqNRpStHn1EUTdE0LaBpgUBAUTSfeehni8USiqL4P7Pi1bABmG0UfYSQkJCQqKioyZMn79+/38nJ6cWLF9u3b9dqtfg0AYSKDkKITqfTaDQqlYq/+UKn0yUmJiYlJQHQsu/mbovk5CT9RLreoEqFgh9s4/vZG7lHUUABRdG0UCAQiURisVgkEguFwkwaOYonzDaKgRkzZoC+ZY2iRCLR5MmTi11ii1AJRgjRarUKhSI5OTk6Ojo2Nlaj0eh0unfv3qWkpFhZySzMbIwdYyEJC/vATwQHBylSFWlnqdQqhmHiE+KCgwKNEVpRRoCiaIHA3MzMxMRUIhZLTUxMTc2kEqlIJCoZCQdmG0VdVtfkisu1OoS+BwzDqFSqZ8+eXb58OTw8nO+XQAiJj49Xq9Xm5hZKxfdy7SDwcybx6PEDO1vbtLPEIpFYJEpOkt3/77YxQisGKIp2cHCsXr2mnV0pjuWoz6M5l4AKH7MNhBD6JhzHaTSa69evHz9+nL93DKH8IYSLiYmKi//YwK2xs3N5oVAoFAoFAgFFkeLevIHZBkIIfROO496/f3/q1CmWZUUicdMmrSpVqC4UiglwyckyrUYrEont7L6XBw48sr57+vRJAGjftruTQ1ljh1OcaDSqsIig4JC3LMM8f/7EwsJSIpVKpFKRSFyMRvHKCmYbCCH0TRiGuXjxolarFQqFgweMreRSnS8nhEu2TtbptAJaaG5qZdwgC42NdSl+onQpB4fSZYwbTBGWeUOFc7nKDvZl7z+8qtVqQ0KDbG1tWYbhCEcIFPdrKZht5EpqauqJEyeuXLlixGbS69evA0BYWNigQYOMFQMAuLq6Dho0yNnZuQRcR0ToG/H3IioUCn9/fwCoV7eRS4UqHGH1c4EjhANCEZZ8LyNMcJ87sHMc9/1sdV5R+n7//Ks05VUq1QoK9o/9GBkdHclxDT/f7IpXUko6QsiVK1d69OhRRJ6opFAoDh8+bMQADh8+PGfOnIULF86dOxcTDvTdYllWP6hGRESESqUCACfHcmnH1SCEqNQqHaMT0AKa+l4qW5320xPnNRq1GsfVyAxF8eNqCAS04NPj1eDLuBoU0I4OzrEfIzVqNcsyBEjWQ4wWJ9/LCZBvwcHB3bt31+l0AODk6GRj+b00h2ZKo9UGhQZzHDd//nw3NzcvLy9jR4RQYeM4TqvVqlQqpVLJD60RHh7OP/hULpfHxX/88lZCUlJTdTodTQtMTdRGi7hwJX0ebyNRliASSowbTNFEUcA/VU0iloolYpFQRAsENND6hIN/7iYB4LgSkWgAAGYbOZo2bZpOp5OIJTsXru7fwYv+7n/N33/l13/GuLiE+NGjR0dFRZWAvksI5R7HcSqVSi6XJyQkJCUlpaamqlSqyMjI1NRUAIiPjzM3i9S/mRBQKBUMy9AULRWbGi/qQpWYmMBPxMXFckzJ+bIsKBQFFEULhAKxRGoqNTU3NzczNZdKpCCgSvb3C2YbObh8+TIAdHBvNaCDF144AIDmddwmDBi+aOua2NhYmUxmZ2dn7IgQKiSEELVaLZPJ/Pz8jhw54uvrK5fLCSEsy6akpABAUGCwVCpN+xGOf5IFAEV9L3m5UvVpRK/NW1byv9FROhKJpHq1Oo0bt3Ao7aRRW7E2LFAglZhQAqBK7qNS8U8hB/w1FAcbO0w19CqWK89P4NAC6LvCMIxCodi3b9/y5cv59CKdGHV04UdVZEVGhRs7hKIr4P1bn2vnB/Qb1rRxK4qmhUKhQCCkaFpQ/MfVyApmGyjPMPFC3yF+bPLjx4/Pnz+fYRiBQFijem1Hx3JUCf1uQAZCgMTERLx990qtVu0/+KdAIGzm3kYilUolJmKhiAjokvr3hNkGQgjljOO4hISEJUuWMAxjYWHpPWt186btaVpg7LhQ8cMR7vGT24v+mJ6UlHji1KHatepbWlrpGB1HuBJ7HQVK7iWiQpOiVNx/7hubGJ9xVnJqyv3nvnJFal6XqVSr3obm6qlFd5/7BkaG5XX52QiOCr/7/HEBLhChkoEQcu3atcjISACYNH52C/eOmGqg/KEpummjttMm/Q4ASUmyN29fMjqGZVlCAHJ3tyv/tD/DRlnQMNv4Vm/DQ9qN6bdk16aMszYc3t1uTL+Xwe/yuszQ2Ki521bn+DalRr3xyN5ypfM5IvK+88cfv3mRrtDRrvTGI3sVacYMQAgBACHk5cuXXuOjNgAAIABJREFUAGBmZtG6pSdeT0TfqG2rrqamZgAQFh7CcSwhJPdP9j58+HC7du0uXrxoyAALGGYbBcDJwdHnwW258qs2DB3LHPU5V8mlouHWe+zahXaN3KXifN7R7vfudURcbLpCU4m0bQP3Iz5nvzk6hEoUQgjfZ1woFEok0hzfj1D2RCKxnV0pAFCr8vPr7sOHD4MGDTLuYI95gtlGAbCysHKv1/DS/VtpC30e3atavmKlshX0JTpG9/D18yOXz9x97qvV6fhCQsjHpITzd6+fu3MtXp6UaW6rY5i34SFypSJtIcuxhy+f6dGmM/+SIyQ0JvLI5TPXn/ynb5ngOE6pVnEc9z7iw5HLZx68fq5jGX6lckWqRqtVqlTy1PTNcX07dj1w/gT/yGyEkF7uf3oiZFAVK1YUiUQajWbixIkajcbY4eQKZhsFY1j3vgcunGA/f0MTQvacOjy271B9c2uCPKnXjHFbj/79Oihg0+E93aaNTEqVA8DBK2d6TBt1+8mDa4/uev485L9XT9MtWa3VTFu3aPepwxKRKG15VHycQqV0sLYDAB3DeG9bNXj2pOcB/kevnG0ztt9D/+cAEPoxaui8ab9u/GP+9tWvgwJW/b2172/jE+RJCrV6wMwJp69fXLRtdY9pI9Ot0cHaTiAUhMREGGA/IYTygOXYD+GB12+e9316V54iy3e6o9PpGJbJ00e0Wg2b4SMMo1OplPp/DKMrkAyMZdm0i1WplLqCWLJWqympd+kPGzbM29uboqikpCT+GT1FH96TUjCa1nKNT0r8EBtZyckZAEJjot6GBnVo2GzLkb38G/48+U8L10azh/9MURRHuBELZlzzvd+tRYflf206u3FvRadyAHD/1dMF29de2XxAv9gEefJPS2e513X73+Axgq9H7XzzIahq+YpCgQAADl054x8U4LPtkJnUBABuPH3w0+KZd/ecAIAnr593adFu9dS5FEWxHLds7xbvrau2zlxycfP+/61d1LpRs96tO2XcHNeqtV8Hv69cpryBdhdCKEcJso8r184BAuWdK6s1yvWbF7Vv02X40MkCQZ7r7f3/bHZ2rtipXa/cf2TF2lltW3dp1bxz2sLjp/7+++DWUrb2AECAmJqalneuNGTgeJfyVbNfGsPofK6f7tShlzCz4B/63py/eKqTQzn+JQEQCOl2rbsMHTghHxur9/uiiQP7j3ar1yyvH4yLi34f9Ka5e/t8r7oQtGzZkqZplmU/fPjg5uZm7HByhtlGwZCIxD3bdv7n0um5IycBwLFr53/o6CVO0xrR3LVRpTLlPz31DygzE9PI6CgBTVlZWPq+eeFs7yQUCBrXrLds0kz9R8Jio/vPHD9lyOhBHbtn7JL2NiigtM2ncTx3n/pn1f9+51MNAGjr1rRmpao+D+/Wr15LKpEO69qH/7iApn/qO7TVqN5qndYk294epWztPkTiyDwIGQ0hZOPWxc2atO3ZbQh//spTkn6dO8reoUw3zwFGDKyLR5/J4735CJXK1EdP7sycO3b+3PW1arhm8ymWZU6c3te+bbdMsw0AcKvfZOXS3fw0ISRB9nHxH/+zs7M3ysbGfIy4fvt8Ec829M8kr1u3rrFjyRW8klJgfujodfrGZR3LaBndUZ+zAz17pJ3bvE6D5+/9Z21aPnrpzMlrFrwJeQ8AQoFwh/fyk9cvdZgwaNLKeSdvXq5V8dNPhMCwkKHeU+ysbfzevsq0PVGt05pLTQBApdWERUbUdKmsn0VRVNO6DYIjwwCgQllniUisn2VnYSUgVII8OfttEQmFKRn6cyCECg3D6EJC37Vr3VX/S8PSwnrM8GmPfe/qLzHoGG1YeHDsxyiO++p6gVKVGhoWGPsxMl05jxAiT5GFhgWmpqavB/gPpqQm5SZCiqLMzCzate46ZaL3pm1L9FGxLBMdEx4RGapj8vncbIqiStk6DOg35u59HwBITIzTaNUsx8bERuh0WgBgGF1k1Ieo6LCM13pSFfLQsECFIg/Vl0qtDA0LTJTFFaN+OSEhIdu2bQOAMmXKuLi4GDucXMG2jQJTuUx5J3uH+y+eMhzraGdfNU3/UACYtGqepanZxIEjK9g7AYD39jV8eZ1K1Q4t2ajWap4HvDl67fzOYwcvbNoHAFqtdtf8VaWsbTtPGHLxv5tezdulW51IINRwagAQCgRCoVCj01mYfJmbokixNLcEAPXXHYhYjmM4TpTTwwuUapWVhUW+dgNCqABQFM1xJDQssH7dJvrCBm4t6tVtAgCEEF+/u1t3rrC2tAWKEELm/LrKvrQTIdyZC/+cv3TMwsxarVVKRJJFv28yN//y5GqGYXbtW+v79J6VhV1ScnyHdt0G/jCWv7x74vS+S1dOWFnasZyuoVuz3PcTb9Kw9cYtSz7GR9mXKhMeGbx81SyxRELTAoVCPmbkL43cWj7wvblm3bz4hI9DRnTq6TX4xyETcrNYczNz/iagvQc3Nndvd+zkPo7jZs1YLpMlrFrnbWFhBQAajWryBO+a1esDAMex/xzdeePWRSsrO5bVtnDvwGcParVy0bJpC7w3iUWfGnT/3L22Th3XZk3aE8Kdu3jk2Ml9drb2OkZTupTTr9OW/H1o88VLJxRKxfPnj3+ftbZe3Ua53A+FRq1WL1q0SC6XUxQ1ffp0gaB4jPuC2UZBGtyl96FLJ9UazYge/dM+HDVVrbp676b/yZtioQgACCEfoiLsrWwCwkNmbfjj6ModUrGkaR3XxrXrd540NDAiFCiqVpXqVcu5AMCW2UvHLJrhWrVW2a/H1ajkXOHG4/sAIBIIXWvWueF7v1/7rvwsHctce3Rv8c+/AsDboIAPsVEVHMrws0JjIk1MTewsLLPfkJi4j3WqVC+o3YIQyiuhUDhi6KT5S6a0adnZzdW9Vg1XOzsHAS0QiAUAEBjsv3HL4pVLdzk5OgPApasnVq6dvXLp7vdBr3yun9285rBYLCGE/PX3mpNnD/w4aKJ+sSfP/p2QELdt/TGhUKTRqpeumH791rkObbvfve9z687lDasPmplacIQ7dGT7i1e+7f/P3nmHR1G0AXy2Xk0ul15JhySAVOkdkd6kgwiCgFIsCHalKKIoFqQpoIAohN47SEfphBYICaTXS67fbZ3vjwnHEQIkIZBcvv09PDx7s3uz895cbt595y0depZlqBRFh4VF3k5OdFNpPp351ruTvmjcsDWGYWnpyR9+Pv7br35r+WLHv/7YP3nqkIU/rpfRZQoeFgR+/6FtcbHFuzPxG1dMfvOzyPDYvILs2V+/N+PTn2pH1QMAJN68PPPrdxf/tN5T67Pv0JaLl88s+mm9jJaLorB81Q9JydcBABDCAt0Dof4GY5HdbgMAHD6688Ch7Yt/Xq9SuomiuHjZ3FV/LXzzjQ9bt+i0bde6zz6YX5ahPmcEQVyyZElSUhIA4OWXX548eXJVj6isSDsplUn3lu2Pnvv334QL3Vt1cG6XUZRcrth/5oQgihbG9vvODTfv3i40GgK8/fL0RZv+2cvynCAKZ69fzsnP9fXycX5vs7gXxr0yYtI3nzHcA2bJuPDoa8k3URTM+69N+GrZz+dvXhVE0crYvly+QKNSt6rXCADg5+M749cfMgtyAQA5hfnvfj9zwsCRaOtULpNdvHHlblY6AIAX+MCuTfefPYE6T0xNrhv2BLcvCQmJZ0rnDn0W/Rjv7x+yY/f68ZP7j32zz8Ytf7AcAwDYuuOvEUMnIFUDAPBSh95Nm7TieJbjuNeGT6RpGQAAw7DI8JjUtDuODgWBP3xk97gx75MkBQCQ0fJxr0/ds38TAGDHrnVvjH5PpXQDAOAYPmTAGwqFquxDJQhKELjjp/bXi2uMVA0AQK2QyCEDX9+6/a+y9JByN+nnRV/e+zf77WnDM7PSBr8yBp1t0qh1RFgMAODA4W0d2/eIjqyL2mPqNOjSufee/RtFUdy5e/2bb0xH2gyOE6NGTHli3d0t29dMnPBRsdQ4PnzweH//wLJLXSVs2bLl9OnTAIDo6Ohff/3VharsusxAqy3uSlWLeo3QzqqbQvVG/2Eymnb4YDasHadRu1EE+fMHs2f8Ov/D+bO1Ws+ebTsvn/H9rCXzk1JTVsz47qOfv/7q1x8xAIICAhd+NMfbTWOxWl6IinHc4s1Xhqekp/579WL7Rs0djWEBQQDDiswGb3dt89gGP06b+dGCuZnZWSq1uuULjVfO+hGZ14L9Al/rOWDMrGlZ2VlypXJkrwHj+g5FPYzqNejLZT9N/X725h+WYQBr26iZp7sHAEBvMbEsGx4U8pw+QQkJidLAMCwoMHTYoHFDB77B89y1xIsr//zl6vULn334Q8KVCyOGvum4kiSpoQPHAwDqxTUp0hccO7kvPfOu3W69dv2C1sPXcZnVZrmVdGPe/E8dlldRFG7fTuR5Ljs3IyK8tuNKiqIjwu6/fCIcx8ho+al/jzRp1NLZpb1B/WZHj+8tcXFufsYPP89Cxx3ad+veZQAAQOOubdywheOafn2GhwSFO3LD141tiLq9dPnssMFjnW/RpFGrrTv+FkVRb9AFBtwPo5PR8rDQ+95sD8NyTEZGWnjofTE9tT79eo0su9TPGwjPnj23fn08hNDT0/P333/386tgIukqQdI2npY6IeG/fjoXHWMYNu3V8c5nv3prGjro/GKrjk1aCKKAYziO4xiGbfzuV/Q3s/m733hBAACQBIFaQv0CZ4x719EJRVI/vv9FiftSBDnopZ57Th4Z2b0/hmGdmrTs0LiFIPAYhhM47vhrLD7VqDm6tfMOX0xoxF9fLUDHBEHEf7MYHe8++c/gl3uTUg0ICYmq49bta6npyV069gEAYBhGUXTD+s2//Dxm5BtdC4vyIYClpk4/e/7YmnVL+/Qc1vLF9n5+Qecvnjp6fL/jLIRQ4+4xbsxU58AQgiBxnIBiSQfJsmdmZ1h7yp2kqMjYw0f3lBgVjpdiXdBqfCaMLf5h9PDwRAdent5tW5cSjX+vH8IhQslbYDiqLQLFkrXaH1WeV7iX5BCA8shZ1aSmpY15Y4QoiiRJfvnllzExMU9+T3VC2kl5fuA4TpEUcU+lcFYIKJKkSLK8lReGvtx77+mj3D2vbBzDKJJyqCyl3vqJfXI8v+PYwZE9+pdrJBISEpWLxWJcv3FFiZgLmUxGUzTAQN3YBteu388EyPPcpPcGGU1Ff8X/NnHCJ5079I4Ij1Ep3YymB6JLFAqVxsPDw8MzIrwO+qfReOw/tBXDMD+/gNT0FOcO76Yll2WcEMKD/2wPD4vy1PrWr9so4epZ58iOK1fPBQaElngLTcscA/DU+oDyUC+uYcKVc863uHj5v1rBkTiOu2u0uXn3cxKyHJN2TyJB4B3hORCKOXkZAAAZLQ8ICEzPuC91vi777enDyjWe54bBYBgyrJ9OV4Dj+IgRI5o1a/bk91QzJG2jTAilBZJVOe5K9Yhu/e5mPzLpp5tC2aV523L1mZGX/Wr3/u5K9WOucaRdl5CQeEbUjW3M89zm7X86FA5B4DdvX+3nG+il9e3ba9jqv5fkF2QDACCEBw5v9fUJVKs0JEllZt5Bi3F2bvr+Q1udk2mSBNmyWcdfl8/jeR51uGLVz1qtF4ZhPboO/H3VTzabBXW4edtqu936+BFCKObmZa7buPyvtb9OeeszDMPat+1+/sKpq9eLtYGs7LS1G1b07V28fjMsg/p/Grq+1G//wa1305LQy+SUG3v2be7RdSCO49269F/2+w/Ir0UUhb/jf8VwDABA0TQA+M2kq+gtFy6dzsi8i4779By2dNk8m92CPo11G1a0eLEDAIAgCL1eV2r8cJXAMMw770xMTk4CAHTq1KlnzzJ57wIADh48mJ5eXTInSTspT8DHxyc/P/+/a5fNdqtarqzq4ZSkx4PuqCXw0Xi+N2xMuToMDwwJD3ycxwYvCHtP/AMAIAhCrX6cUiIhIVFhaFr29exfFy6ds3vfxkD/WjhOZOemBwWEfPbRfIIgY2o3GD1yyrSPxwQHhVltFgwDMz75Ccfx14ZPnPfDx/sP7SAIguWYt9748Ot5Hx46slMmk1MkjWHYayMm/7xo1uSpg/18gvN12ZERdfr2HA4A6NiuZ3rG3benDQ/wr2WzmyMjYrp3eQU5k5YY1cFDO47d250JCAh6od6Li36K13p4AwDUKvcvPvnpux8/9fH2JwgyOzd9wthp0RF1AQAUJWvZvMO4Sa/06T704QhYkqSUj37CkcuVjoyi/n4h096bM2vOu4GBtQAE+QXZH7z/tb9fMACgZ7fBOTkZk98b6u8XbLWZ6sY16tCuO0GQJEGNHfXut/M/Dg2JoijKw0Pbr/cwZOh9ufMrekPhW28PCgkOL9DlRITXGdhvNAAgtFa0KIpDRnasDhGwEMJv583Zs28nAKB7914jR44ouxU8KSnJ398/JKRaOOFhLpTPpEqYN2/ehx9+CABo27TlG/2HBfi6kldOpVOk12/+Z8/6PdsghD179tyxY0cF6m6LoqjVao1G465du3r06PEsxikhUemwLDt16tRFixZpNNot8afKGMn5lEAILVZjRmYaFMWgoFA3tcb5L45h7XfuJikVquCgMIeHBGpUKJTBgaEEQT7s6AAh1BXm5uXl+Pj4+3j7O58ymooyMlIDA0M8NF4VHjPPc2kZdwSeq1Ur8hl9ShzHpqYlYzhWKziCcspeCADQG3RZWekhIWFuag/ndqvNfPfuba3WK8A/xM7YCJxwvNFsNqSl3/Hy8vHzDXoWo30MQ0d1SE9Pbdem87ix7/j7B3lotDRNYwC/euPs+YsnAIb17tXvnyOHZ8/+HELYpHHTv//edOXqWQhhWFhYWFiYWq2mabpU5xjEkiVL2rZtW69evecp1KOQbBtPYOrUqatXr7527drxc6ePnztd1cOpLnh5ea1cubICqoaEhETZwTBMrdLE1C49NbWMlj98qkTjw3+kGIZ5e/l7e/mDh3B308bFap9uyIAkqXLFs1QAiqKjImNLPeWh8SpVVVIq1I7sHXKZwvmUWq1xnKpu/Pvf6TlzZkIIfX39Vv6+zq385mSDwbBs2bL4+HiGYQYPHjxp0qTHaCfPFEnbeAIkSZ45c+add95ZvXo1y1YwEW9NgiTJrl27rly50tvbu6rHIiEhIVFjyc/PW7z4F57nMQybMnmqwWgo0OVdvXoNQjE/Pz89PV2hUJAkGRYWhjaGSJIMDg4uoV9OmDBhzZo1b7zxhiiKb7/99rZt2/r3r5ogAEnbeDJKpXLZsmULFizIyMhA3lVVxaZNm/r161eFeWoxDAsJCVEqlZJVQ0JCQuLZYTZbtm/farPZMAxTKlXfzvtq3ryvIACoUgyGYY7YRrm8eLsqMDDw8uXLJX6cJ0+e3LBhQwAAQRDTp0+fOHGipG1UdxQKRXR0VabXFEXxjz/+mDJlikajefLVEhISEhKuCc/zu3fv0Ov1AIA3J0z+5JMvZLQMw3A7Y/vvzFEIYWRkZEREhFKpJJ+UOqF169aOY39/f6v1CaFGzw4pAtZluHDhQkpKyqpVq6p6IBISEhISzwoBCjt2bk7PSMcwrGPHzhMmTCpOUwZhQUEOcvt1c3MjSRJ3SuT4KKqPHVrSNlwDCOGXX34JAJg1a1bZazNKSEhISLgQEMJNm9Zs3Pw3AMDDQ/vBtE9oujgOuVBfcOfubQCAUqn08vKiKKqq/D0rhiuN9f+ZoqKiPXv2oIOzZ89W9XAkJCRqLBDCBUtmfzrzzRLt1xMvMYwNHdvt1hs3Eyp8i+SUG448p6vXLjp/8USFu6oBCKLAsgzD2uyM9d//jn47/wsIIUmS9evXz8xKTbqdmHT7esLVc1eunhcEHsfx2rVrI//Q6mO3KAuStuEarFy5kuM4AACEcNasWVKWFAkJiWeE0aS/dv1iWsad5Ds3nNt/XTGvyFCAjgt0uctXVrwg+7qNyx35QL08vRXKctSbrXlACHmB43nudkrih59O5jgOx/GoqChB4DOz0rOy0jKz0goLC5AKUq9evZCQEJczbADJS9Ql4Hn+q6++crw8cOBAQUGBj0/56gtISEhIlIUjx3a3btVZLlPuP7jtrXGlp7WoRHp2HfKsb1HNwTCAYZjJbJj95YcGgx4A0KZNe1HkMAwjSZKiKJqmVSqVr69vRESEu7s7UVoxrFIZP36885UymezAgQPPSownIWkbLsC5c+eKiorkcrndbpfL5RzHrVix4qOPPqrqcUlISNQ0BIHfu3/zF5/+JJcrJr839LURk1RKN72h4Nv5n96+nfjt95/Uqf1CdFTM9l3xySmJH30+fmC/UU2btE68lbByzS937txWq9Ud2nUbNmg8SVI3k64k3ryCYWDn3g2FhbrwsMgpb37m7e33/U+fX7r8X2ZWemitqA+nfr1+84ra0XUb1m8BITz578G/1y/Lz8vx8vJ5uXOfvr1eJQjCZNb/Hf9r08Zt/l7/W2raHS9Pr9Ejp7Rs1qmqP6pKg6JlMrn8l4Xz7txNxjBs3NgpLVq03Lt/C47jLVu2DA0N9fHxkcvlJEmCcnp9lkiXgGEYRZXMRv/ccDFTzP8hEMKVK1feunWrX79+AICwsLDc3Nxbt25xUmk0CQmJyuZm0hVPL58AvxAPd6+wWlFnzx8HAKhU7mNHvxcYGDJk0Nhe3Qc3atBi8Cujg4ND3xj9Xu3ourl5mV/Pm/7q0AlrVx366bs1Ol3e6rWLAABF+oKNW/5gWPsv89euW324VfNO8378WEbLRw57Kzo6rlePwUMHjgUA5OVnWywmAMCxk/vWrFv68fvfrF9z9OtZS85dOLl2428AAI5jj57Yf/zU/s8/+mHDmiNT3vps/s9f6PW6Kv2cKhUI161fefbcaQBA+7adJ0+chqwXDtsGQRDIS8O1HDVKIGkbLsDixYujo6NpmgYAYBjm5eW1YsUKpOdKSEhIVBYQwu271nXr8goAAMOwHt0G7tyzHgBAkXRURIxSqQoLjQwOCvXU+oTWilQp1VGRse7uHjt2rxvYf1S9uKY4jrupNW+N//jk6UMWqwkAoFZrXunzmoyWkwTZveuAjMx0jmfDw2q7u2mCg0JDa0U6bs3z3Jp1S95/e3ZIcASGYZ5a34+nz9u7b5PBWAgAMJuNY15710PjhWF4vbgmobWiUlJvVdGHVHHSM1J27Vv/cFDhmTMn9+7dDiGsUyfum69/oWmZo3IvCnN1OReNUpFWrOpOqfqsS2u4EhIS1RODsfDCxdOdO/a+eu0CAICm5DduJGTnpgf4PbKIKITwcsK54OCw3Nz7TqNGgyE7Ox0AEB0V6yjfKpcpSYJ8lIe73lBot9vCQu8XWFGrNMHB4ekZdwIDQoKCQtSq+1kNVUo36GqJAK4nXvx0xsS8/Jxz508MHzIhIjwGQIi0CqvNCgDw9PT+bu4ijUYLAEjPvAMAkMlkbm5uqO5aDfjNl7QNCQkJCQkAADh6Yq+Hxmv3no2OlqCg0L0HNr/+6juPeguE0M7YQoLDvT3v18ce9/r73t5+BYW5GFbWh3KOZ3GMwB9cU93dNbzAAQAwDHf11dZiNdtsVgDA/oM7Dv2zRyFXoEZ01svL+4fvfw0Li4QQpqTcvHnzKgAgMjJSpVLJZLIqrFZRiUjahoSEhIQEEERh956N06fOiY6MczSmZSR/+Nm44YMnPKp2PI7jIcGhkRG1mzft4GjctXc9SZTPG1Hj7snxrNlq0rgVF6EVRSEp6bp2SA0JvnuxcdvFC9b/suSrM2dPCAJvtpgcp4KCQt5752Nvb5/8/Jw7qbeOHt8vCAJN0x06dHB3d5fJZNJOioSEhIREDeFG4iWSIiPD6zg3hgSF+3j7XUr4t3nTDhiG2Rk7ascwjGXtKIt2m1Zd/vx7aaMXWtC0HABw4+alHXviu770uNJfGIY5EoUhFHJls6ZtN2z+fczI93AchxAePrrT3V0bHBiKXDdqABFhdb6b80fircv/nT12K+kawLCLl05bLBaeZ/fs23Ti1H6aptGOCUEQffv2jYmJUalUFEXVgG0UIGkbzwgIYXp6+pkzZxiGqaw+L1y4QNO0Tqf766+/KqtPgiAaNWoUHR1dM3RnCQmJigEh3LlnfdeX+uN4iZhJvFuXV3bsjm/WpH2jBs0/mzGpUYMW778z29PT1263T5gy4PVXp7Rv0y3h6rl3PxzZrEl7i9V49tzxTz74jiQfZ9uoX6/pDwtmRYXHfDlj0b0bYW+Mnjpn3rRPZ70ZW7tBVk7a3dSkmZ8ucLh91AxIkqwX16ReXBP0cuioDhaLBULI8zzP8yRJkiQZGBjYt2/fhg0bymQyV8zi9SgwKStlpcMwTN++fffv3+8qn229evWOHz/u4eHxfG4niqJWqzUajbt27erRo8fzuamExFPCcdzUqVMXLlyo0Wi3xJ961M6CiwIhLNLr3Nw01ENaAsexJrNR6+EFoag3FGIYrvXwAgAwrN1o0Lu5ucvlSlEUUtOTr12/5OamafhCM427FgDAsgzLMmq1u6MrXWG+p9YLw3ARigZDkSiKXp4+ZouRomj0efI8fzMpITnlZnBwaFxMI7lMAQAQRcFo1Gs0no5HfKNRL5craFr2fD6cZ8fQUR3S01NfeOGFIUOGBAUFeXt7h4WFhYSEyGSyMhZdcyFqlNpYHRBFsUePHocPHwYAEARBktXau0cQRJ7nr169+sILL9y6dUsur1E/oBISlYirZzt4PBiGeWq9Sz1FUTQ6hWGEp/a+F4WMlvv4+KNjHCfCQ2uHO0WUAABoWlZCIfDyLH47fk9lAQCoVffVEZIk68Y2rhvb2PldOE543LsY4e7+nB6Nng8eHh6NGzeOjo729/eXy+U1TMlwIGkblcz58+eRqtG5U/Pv500MreWH49X0ewMhKNAZ53y9euXqHenp6b/88sv06dOrelASEtWUmq1tSFQhOI5TFEXbxN1PAAAgAElEQVRRFEmSNSP8pFQkbaOS2blzJwBArVb9tnRaWGh196Z2d/dZ9Mvbp04n3EpKjY+PnzZtmvR7KiFRKhiGIeMfz3N2u62G7aRIPH9YjikoyAcAKJVKhUJRk1w0SqUmy1Yl2Gw2AICXpybAX1vVYykTcjnVqFEMACAvL89VHE0kJJ4/OI43atQIAGCxmI8c313Vw5FweQ4f2YkycMTGxrq5uaE9lKoe1DOkJstWJbiibaBmf8UlJCqLbt26hYWFAQB+Wfz1kWO7eL5SahVBZyqjw+qAs0Q1Q6jKlEgQ+GMn9/24YBYAwMvLq0ePHlqttsZrG9JOShVjtbE5OQUETvj6eSrkVVadT0JC4oloNJr58+cPGTLEZrN+NmtKZESdsLCoSlgh7isZGHC9p5XSgMBpSa4RQlWeRFAU09Lv3E5OFASBJMnp06dHRkZqNBpHso2aiqRtVBmiCBcs2vb32kNuagrDsPx846uvdn13Sn+KKreXEMNwQ1/95s8/PlCrXT4kTEKi2oJhWL9+/f744493331Xp9PdTk68nZxY1YOScFXc3d0///zzYcOGaTQahUJRg/1DEZK2UWX8vnL/gYNn9+/+RqNRAgBy84xDR8yyWpkZn40ob1cQgtS0PLHmmGElJKopOI6PGDGibdu2K1euPHbsGPJ2epodEAih3W5HBhKCIAiCsNlsqOxnQUEBAEClUtE0zTCMRqNBz75Wq5XneRzHke29GprfBUGw2+0oYwRBEDiOFxYWarVavV5vs9kwDNNqtTabzZEoUxRFlOSKpmnkLFndnvJFUbTb7UgW9H9RUZFGo7FYLCaTCcMwjUbDcRxN03K5HMMwCKHJZAIAPCwRquPdsmXLwYMHR0ZGohReNV7VAJK2UYVs3nps+tShHh4q9NLfT7Pgx3d69fnw80+GV9ugWQkJCQzDQkNDP//8cwghx3FPo22IomgymT766KP+/ftrNBpfX18fHx+GYdzc3NLT0+fOnQsA6Ny5c4MGDSiKCgkJoWkaAHDixIm8vDy1Wt2gQQOVSoXCGSpTwqfDbrcnJCSsWrVq+PDhHh4e/v7+arXaYrGo1erVq1f/+++/CoVi7Nixbm5uarXay8uLIAi9Xn/48GEIYXR0dEBAgEqlksvl1WcBZlk2Kyvrk08+mTRpkpubm7+/v0ajMZvNbm5uu3fv3rlzJ0VRI0aM8Pf3VyqVPj4+JElardY9e/YAAMLDw4ODg1HUCUkWL7gEQWAYhjTF/5/IaknbqDJEERYUGJxb4mKDDx9cgI5Zjl++fPfK1XuLiorCwkLfffuVHt1fxDDszp3cTz5fcelyoiCIDV6oPf+7ibVCHsjJo9dbPvn89xMnL3Ms16xZvTlfjgkOeiAxjoSExNPjsEY8TScsyxYUFGzbtk0mk/Xu3RtZL/z9/UmS1Ol0qHOZTKZUKn19fdVqNUVREEKZTCaTyeRyuUKhUCgUSqWy+mgbgiBwHLdt27Zt27a9/PLLNE0LgiCTyTw8PNABQRAkScrlco1G4+XlpVAocBxnGEYmk0EIkVBKpbL6aBuiKIqiuGvXrgMHDvTo0SMyMpLneYqigoKC0ICRRUqhULi7u3t5eSmVSsfEAQAcEjlrG/+fVDsT3P8PY0Z3nzp9wXfzN5y/cJtheAAASRJRkb7IsPH1N+sO/XNx88YvkxLX/jB/4gcfLb1wMdlu514dPXfE8C5XLv5x5eLKTh0bT3n3F+c+OU4YOfqb8LCA0ycWXTq/ouvLLw4d8aXNxlaNhBISEo8GmUY2b95sMBj27dtXWFhoMBjQLgkoLbrNJR6CBUEwmUzx8fFFRUVHjhzR6/Umk4lhGFEUnQePjqu/OAAAURTNZvO6deusVuuBAwf0er3RaHxYIoRLzFFVIWkbVcagAW3Wr511Ozlj5Og50bEj+r7y2foNx+12DgBQWGhd89e+xQvfRWaJ+nVrffbp6EuX7+bl6Ru+UKdXjxdJkpDJyH592129kuTc54ULyTwvvP/eKyqlTCYjhw1pX69uxN5956tGQgkJiUcjCILVal2zZg0AICMjIyEhwWAwGI1Gu90uCEJVj64iIP1p9+7dOTk5AIDDhw8bjUZnFcoV4Tju7Nmzly9fBgAcPXq0qKjIYDCYzWa0iVbVo3Ml/q8NO1ULhmEtW8S2bBErimLKnbzjJxJ+/Hn9n3/t37R+xr//XWvwQpSfr8Zx8bAh7dDBwgVvZmQW3r6dnpWtP3EywWp7oGrzqX+v2Gy2L+esdrRkZGSfPXejf7+Wz0coCQmJMsLz/LFjx1JSUgAAoigeP368UaNGRqPRZrMpFIqqHl1FQK6Uf//9N1qG7969e+vWLW9vb4vF4u7uXg29WZ+IKIosy65duxbpf/n5+QkJCb6+vmaz2cPD4/98Z6S8SB9W1aDXm0+dvt6924vIVygq0j8q0n/QgHbtOr178NAls9mmUpUSy1qkt0yc/LNGo27cKKJuXFTjRoN27jrmfIHZbPP10UREBDhaIiIC6tQOfebySEhIlAe0jK1atUoURdSSkJCg0+kCAgLsdjvP86743Mzz/LVr106fPu14efLkycaNG1utVpZlkYurayEIQn5+/vbt2x0tR48ebdu2rc1mQ74mVTg2l0PSNqoGXaFp/Fs/3E78U+6U0UutlkdFBhUWmRo2jPr+x/UcL1D3Ssj+c+TKpcu3MAwPC/WbO2csaszI1Jf4RYqODklLL3h1+MuOvcPjJ6+54K+WhEQNB0KYkZFx5MgRRwvDMGfOnGnQoAEKcnFoIa4CGvbGjRtZ9r6j2NmzZ1mWRTGuoii6nAoliuKmTZssFoujJTExUafTRUREIHFcTqIqxPVMWzWDWiG+YWF+i5fudPymQAhvJGb8d+Zaq5ZxcTHBMpravPkk+ipznPDLos2REcF6vQlFcgMAeF5cuWpfib3Ddm3qHzh05kZiBnppMtunf7CEolzvkUJComaDYdiGDRtQFCsAQCaTxcXFnThxAgUvVMOEE2WBYZj169e3a9cObZrUrl2bJMmLFy+iaBpXlIjn+b///rt58+bu7u4AgNDQUI1Gc/r0aTc3txqf+rPSkWwbVQNFEat+/2TU61/v3HWydet67m6yW7eyT52+NnvGGxHhfgCAZb9OGzVm7oGDZ6Oi/A8dvhwbG96je9OYOsHde39oNlv9/bXnzie/1KlxQIDfzC///PiDYajbwEDP77+Z1H/gZwNfaadQ0Hv2nu3fr13jRhFVKquEhERJUIqnkydPzps37/LlyzRNT58+PTMz02QylWttrj4LHoZhSUlJy5Yti46Orl+/viiKjRs37tWrV3JyskajQZGi1We0ZSQnJ2f69Olt2rRp06aN0WiMjIwcO3ZsYmKiWq1G2T9dTqIqRNI2qozICL/DB+bfvJV56dItq802aGDHed+M12rV6GxMnaDD+78/eiwhPSNn7pzxjRpGEAReu3bQyWMLjx67ZLXYvpnTKTraf9jQDgzDyGTk7m2z1SoZAGDggNbNm8ecOHHZarMt/+2DmDpBVSqlhIREKWAYNmnSJI7jHJ6GFEW99NJLoaGhMpmMJElXXMaaNGkiimJWVhZ6ieO4r69vixYt5HI5yhRStcOrAJGRkWFhYXq93jEdWq12+PDharXaFd1QqhZJ26hKaJqsXy+0fr3SvThVKnmP7s1KNPr7eQwZ1MHxUqtVA6AGAPg7FbgPCfYaNrRT5Q9XQkLiqXFs9qP/HcuYsxOAKIqCIDguQy8FQcBxXHQCQigIAjpbgZE4kl48pWbjLJGzSuFc2BZJ4fB1QMdIKOdTzu3VRKKHTzlf4yyRcA/HvIB7ycEcclWVRNUBSduQkJCQeB44rzpoiRIEASWiQJkqWJZlGAbV42AYBi1OqBG1ozeyLMtxHMdxKHEnqkhSgfGgNQy/RwVydzqWVWdNgmEYdFYQBIdESHye55HIqBG14zhut9uRCxparZFjacUiZvEHKe8i/fAcAQDsdjs6QJFEaPA4jqO5QFqgczvKjspxHPoQHBJV4BN++jmqPkjaxjPBtXyVXTfxjoSEq4BWWYeWgNZm1IIusNvtVqvVYrGgTNiOjFh2u91isSiVSgzDUIZym81mt9tpmkbvRRXayjse7B7odhRFURRVrh0cURS5ezgkctRXQwOz2WwWiwXlwkLZOHie53nearXK5XK5XM5xHI7jFosFregsy6KQFo7jyqsooOvRqkySJEmSNE2jCmpl7AFpb2hSHBJBCB0SoWpzSCKkjiCJMAxDcyeTyZDy4dClkGqIPo0KSPSUc1StkLSNSkapVAIAdIWGzKzCyAi/qh7Ok7Fa2bNnrwEAQkJCXPRLLCFRzUFPt3a73WAwmEwmRy03QRDMZjMAAEJYWFioVCpJkjSZTDiOZ2dno8DLwsLC3NxclmXVajWyYfA8TxAESgXxNGW9UHUPVNQNFS8FAJRxMXOYVVBucodEEEJUuhYAYLVa8/PzZTIZKo4qimJRUZHFYhEEITc3126322w2FNlhs9kIgoAQms3m/Pz8Chs2HBIhVUMUReQEU5beeJ5H9gmj0Wg0Gp3r7ZlMJmRnYhgmPz8fFX+Ry+UQQp1OZ7FYSJLMy8tDSoZMJsNxnOM4ZIewWCxPKZFcLkelcMo7R9UNSduoZPr06TNr1iyLxTpk+Mwfv59Sq5ZXdf5W6HSWr75efTc1CwAwcuRIV/wGS0hUc5ANQKfT3bp1q6ioyNnqKYqi0WhEB/n5+QRBiKKoVCpxHM/Ly0PaRkFBQWZmptlsdpT7wnFco9EAADIyMp5ybBiGKZXKwMBAT09PCCFSXJ64L4P2RPLz8xMTE41GYwk7blFRETowm80ohbnZbEZeomht5jguKyvLZDIZjUZH9A0KMTWbzUj9ehqJ1Gp1UFCQu7u7wzPmiSs9kqiwsPDWrVt6vb5EshOLxYLsTDabLTc3Fx3QNA0hRNNEEEROTg7P8waDQSaTIYnQHNlstvT09KeUqAJzVA1xvRFXcxo2bDhgwICNGzdevHijQ+eJVT2cshIcHDx27NiqHoWERA0EGSEuXLjg2DRBix8EAHfyEnXanX9gk/4BLwRUs7GSQDsFFoslOTmZ4zhUexZtPTx+eRZFMTMz8/Llyw63R8f10OkYe1AkCCHaESghZiVG8SKJTCZTUlJSWFiYt7c3Kjn7xP2UR81RCYnAg9MBIUTT9KwlKjFHSCKXeziUtI1KBsOwdevWTZw48ffff3cJfwgcx7t06bJu3brqU7RaQqLGgLb2ExIS0DIWGhoaFBwsV8gBAAACQRSv3bixa9cumqZbtW4VFBzs7+/vplbjBG40GEWAAwBiY+oEBASo3VRyuRzHiUpcYliGyc3NS759WxTF9PR0lUqFzPWP9zlD+x1Xr14VBAHDsPCIiIDAAEcObwihvkiPjuvWq9+qTdugoEBPrZaW0RBCrZdXYuItiiJbtmyhUilVShVJkRjAQCUJxdiZzMzM1Lt3BUFITU1FGxCoQPxjtA3k2XpvjrCQWiHBIcGOUjUQAqvV4q7R6HS6qOjoVm3aBAQEeHt7y+UyCEFIaGitsAgcx5s3a6rRaFQqFUVTlSgRy7B5eXm3k5Icc0TTNM/zSOGonHs8LyRto/IhCGLp0qVz5sxJSUlxaMqVwo4dO7p3716JNjQcx2vVqhUYGOhyarKEhEsAIUxPT0cOg7FxcRGRkY4/NeRTqVDIAQA4jsvkCplcrlAoFEoFQRA8L6jVagCAUq1WqpRKpVIul1cgyOIxKJVKD63Ww8Pj3NmzyJdCo9E8Mb84hPDOnTvIl/OFhg1CQkJKnGUYBg1SJqORK6hCqaBpGkKgUqvVajVFkUqlUqFQKpRKkiQqMbxTqVRqPbVubm5XEhLQXo9arXY4ez7qLg/OUWxEZITzlRBCACFa2imKkhVPkhy5UCCJCAJXqFQKpVKhVKC9oUqUyEProdFo0Bzl5OSUZY6qJ5K28UzAMMzb29vb27sS+4QQTpkyZebMmehbLiEhUc1BfqA5OTmiKKrV6tCwMAhF52UCxY0CACAAEIrgXuYGDMOgY0WBEELxfnv5lxmnzZpSlkBfP18fX9+83FzkC/n4tRkNIzs7G0Ko1WqDgoJKuDigwRYfO5JSwBKgrBXoDA5KS2vxNBLVCq2VmppqNBiMRuMT67M4z5FKpQoNCy0RUQghEKEInBtENE0O+e5JA9GklZ6o42kk8vP38/Xzy83JMZlMzsHGrvWUKGkbLkNycvLFixf37NnTv3//qh6LhITEI4FOSbdYljWZTCzLKpTKhyydUBBE1AhFkecFluUYhqEoiiAIhmXRVqwg8IIgshwHMIzAcVB+Gz2G3XehwDAcvXQ6i3l6avNyc52jMErgSEGBvClNJhPP8yqVimHYEldCKDL3qrKJgoiSiLAMAyCEEHAsiwJBBUHgOJ5hWbQdU16hnCVCWyQlJNJqtUaD4TGm5RJzZDQaWZb19vHhuJLb3xBAhmFhcUyvwLEcy7EMw6JbMgyDCvaiCGeWYyEUn1Kih+cIAODp6Zmbk4MCiV3RsAEkbcOFWLhwIQDggw8+6Nevn2uptBIS/yegVQcFUrIsy/M8inq1WCxuRqNery9xvSAIFhQBC4DVYjGZTQqjQhAEgiBMJpPdbgMA2Ox2lHujjJGcD4MSNpAkSVEkSthQYkeGJClwzyERPPhcDiF0hIY6smsYjUakczwsEYTQYDAggw1KTWE0GnGcoGkKAGAymux2myDwdrtdEEWWZSvifIABDMNIgiTJ+ykowEMKh2M8D9kqHpgjjuMYhtHr9Var1V3j8bBEAACr1SoIPACAY1mLxWoyGimSlNllAACT0Wi32wiCsNntOIZzLIcTFdnteuIcIf9ghyCuqHBI2oZrYLVaf/vtNwBAcnJySkpKZGRkVY9IQkLiAdDCbLPZUBinzWZDS1phYaHValUqVQUFuhJvEUXBaDKBe6GwcoWCJEjGZscJ3Gy2WMwWAIDFbDEqTAROVMxpozg9FElQJCWT0QqFQqGQ07SMKMOiCCHkOM5qtSKJUMZPjuOKiop4ni8sLHpYIgig0WAEAAIAbFar0WCgaVoQRIqmAAB6vd5itlA0ZTabUTAHhlUkLxmOYQRJUhQpl8uRDwVNU2X5fErMkdVqRdpGYWGhzWZTqdUPSwQAtFptKPrGztgNRgMtoyAENE0DDBQV6S1mC0EQZpOZ5zgcJ5BhorwSFc8RRcloWqlUyBVyGSWrmOJSbZG0Dddgy5YtNpsNAAAhnDVr1qpVq2rSt1BCogYgCILVas3MzDxy5AhK2wAAQF4OHMf5+PjcvHWrxFsgBBfOXwAAsAxz7OhRDw8PNzc3iqYwDAcQCoIIATx96hQyrVcYGU37+PmGh0d4e3uxLCuKIsAwGUY/cXnmed5isdy9e/f48eO3bt1CmTBEUczIyBBF0d8/IOKhxx4Igd1mQ0/e169foyhao9HIiv1bgSiKyKtj546dT1O/Vi6X+/n5hUdEeHp6qtSsuyhimLIsJeDRHGVlZR05cuTmzZtojgRByM7O5nne19cvMfHmwxIhcw4AICU55cjhQ+7uGoVCiRMEhgEIoSiIEMD9+/Y9jUQ0Tfv4+IZHhPv4+LAs6yaImBqjyzBHLoSkbbgAoih+/PHHjpcbNmxYvHgx8leXkJCoDoiiyDDMtWvXVq1aZTAYHO3IPMBxHMtyLFvSywFAgB6aYXHSbo7jePjgqlXCDbMCsCxrMptT79yNjYuLjYtDuaHIMqSgYBjmzJkz8fHxVqu1hEQoZVmpEjka0RYMx7EYjhM47vzAL4gVKbrmLJHRaLx7984LDRpERkXhOE6SBEpB8Zi1Gc3R1atX//zzT+cdEyQLGm3pEnEcvJe5nGFYluMIgiUIwlmip5wmlmXNZnNa6t2YuNi4uDgMw8uSJsS1kLQNF+DKlSsZGRnIHR3HcYZh4uPjpWRcEhLVB0EQ0tLSfvvtNxRIWSs0tFZoLQLHRQjz8/M5nvdw1wSHBDu/BQIgivB2ctK5s4AgiKjoaG8fHy9vL7mMxgmisp5nIYRFhfr0tDReEK5du0ZSVGxsjFwup2n68QmwBUG4fv36X3/9hSqKhUdGBgUF4hgmQpibkytA0VPrGRgYUOJdIoRmU3EyUD9//9oxdXx8vFVqFUmST2WfeVCi/PyCzMxMjuMvnL9AUlRUZJRcJkNVUR4vUUZGxooVK5DyFBwSEhoWRhK4KMK8/DxeELQaj6DgoIduB+x2+7q1MgCAp5dXnZg6Xt7e7u7uJElWVq41CGFRkT49NY0XhOvXrpMEGVe3rlwuo2VPmCPXQtI2XIDFixdv2LBhzZo1W7dujY6OXrNmzeTJk19//fWapPZKSLg0giBs2bLFbrdjGDZoyJD2Hdsj/0cIYYGuUBAEuYxGybkdQABFQUxIuAwAoGm6afPmQUEBAYH+bm5uBEFUWn4oACCA6WkZmzdsslqtN65fDwkOVqlUAs+jkNpHRbpyHLdlyxbkyDnitZEtWrYoToEKYV5+AYRQIZe7uZW0sIoAFuoKMRyHghARGdWiVcugoABPL09aJsMrVaLbSbe3b97GsOyVywnBQUEsq0Jl0h75FgjRHCFVY+DgQR06dUTupaIIdYVojmTu7m4P38titihnqUB+fnBwcLOWLQMD/b19fORyeWXpT4iMjIzNGzabzebr16+H1Kr1xDlyOaTlqroDIVywYMGAAQPQTxWO402bNj1x4oQr+iRLSNRIUJWTxMREAEDzFi06du6I0lrfTy4BRRFCETzw714ih/tRBhDAe5kUQImLy/gP3vvnPDwMYCG1grv26AoAYBgmJzeX53lBfNzajDJX3rlzBwDw0stdWrZqiWyrzhJBKJYyANE53waE4F6yDfGpxHlYoujo6LYd2wMAbDZbXl4ez/OicO+zKw0IoU6nu3HjBgCgWfPmnbu8hOrA3UN8lESiCEV4L1rnXj4RKIpQLO3iis4RACA4OPjlbl0BABzH5WRn8zwnCK4a7Foqkm2juoNhmCMrsANXLMkjIVHDgBCihA08z6enpyM/7oaNGjIM43wNy7I8L2AAY+3MA28HUBREQRBB8a6KIPAiy7KMnSFIvgK2DQzDMRzD8ftlyBydYACLiIiQy+V2u92g14tOeaicQek0WJaFEKakpCCfkoYNGz0skShCHMfpByUCAIgQshwL7kXSioLIsTxjZyEE5bYEYADDkDAYhhfvWjh/LLFxsYf2H4QQmowmpBM8tILfj3flOC4jIwMZNho0bFBSIoYVBBEDuKw0iRiGdSiFIhR5nmNY9v6YyiWTY45KkygiKkImkzEMYzAa0berBikbkrYhISEhUU4cWSjsdjvDMAzDZGZmIo8NhuN1Op3TlUCv1wuCQNM0x5X0QBREaLvngMkLgtVmNRpNHMtXyG0DQ86SFEVRtIyiSaLYNbO4K5lMRpAEAEAQBAAheHBlRquy1WoVRRElFUVF4QEAdsZeQiJUyVZmk7NMybUZQmgwGNEx8so0mU0AAxRZgSpiSCKSpimKpimKxAkCd6pBIqNpmqZRIhDwsKIBAM/zKMbVbDaLonhfIpZ9SCK9KAo0LeO4UiSy2exI8RJFyDKs2WzBMZymqYpK9Mg5oimKQNtVNUvPQEjahoSEhEQ5gBAyDGM2mw0Gg8FgsFqtVqs1IyPDZDIBAHKys51tBiKEJqNRFEWSJJUq5UNdAfQuAKHdZtPr9QzDklRFHCoxDMMJgqZohUKuVCrUapVSoSQpynkxK77pQ3oG8tJAWxLgXowGKgoPAMjKyjYYTc7X6w0GACFF06jISwmJrBYLOuZYzmQ2C4JgMBgJotz15DAMIwiSpimFQqFSKdUqlVyhICnyvsKBYeBRnUKIwkwKCgpQrk+O49LT0+/NUQ5B3F/77s8RRSmViocl4liWFwQAgCDwZotFFEWTyVwxiRxzpFIqVWqVUqEodY4qkDG2+iNpGxISEhJlBakaer0+Kyvr5MmTFy5cMJvNPM/rdLqUlBQAwLatW93U9z0NIQAswwiiSBD4w2WWIQC3b9/28vKmaerAvv3FGSQr5HyIYZhGq61Xv76np6ebm1qr1Wq1optaTdIU/qSapDzPm81mnU6HkgeinBx5eXlpaWkAgA3rN8ho2vl6m90OISQIgqJKriAQAIHnvby8RBEm377NMgyOwjjLvTOEYRjw8/OrExen1Wrd3dWeWk8PD1GlVmMkCTD4mP4ghLwgoDSmd+7cuXHjBpJIr9ffvn0bALB923YPjcZ5zI+fI1EUaYr28vLOzcndvWMnQRAYXjHXTUzr5RlXt563l6ebu1rroRW1WrVaRdH04yWqGUjahoSEhERZQQvz8ePHZ86cef369Ycv2LJpU8V63rg+/umGBgAACqWyZ6/ePfv05ngexzCKJFUkAR6dHRw5BzAMc+nSpY0bNxYUFDzszBG/9u+KDebUyRMVe6Mzbm7uA4cM7ti5M88LGIaRFInjisfnO0cSJSYmxsfHZ2RkPHxBZuaWig1Gpyu4eOF8xd7rQKFQ9OjVq3ffvhwnYDhGkgRBEi5XPr4CSNpGBUGuYc/zjiiRH8qz+zzvi+Ol6PsSEv+HIAfJ48ePjxs3DqXwQhXUqnpcANx7QLdZrRvXx+vy80ePe0MukykUCplchuOPtPkjB5TbycnLly9HNcxomq4mofXIjGQyGVeuWKErKBg6fPi94vVPlig9PX3JkiXIJ7T6zBEAgGEYm822eePGgvz8MePHy2W0Uv6EOaoxSNpG+YAQXr169Z133jl79uxz1jbQb0FKSoqHh8fzvC+O41FRUd99912XLl1qRti3hETFEEXRYDC8//77BoOBJMk3J00cPeZ1D622qscFAACCIFw8f/6LTz+/dfPmkSP/1ImNfbl7N6vNqmbVFEVBDC/VUA8htFgs8eviOY6jKGrSlClDhg3VemqJanmJ+oEAACAASURBVJBUiuf5E8eOzZ4xKy01dce2bXXr1VO7qW02jVrNkSRZqscGilDlWG7t2nVWq5UgyNdeHzXq9dF+/n4kSVagJkvlIorixfMXZn7+xY3r148dPVonNrZ7zx5Wm03NPW6OagyStlEOIIRbt24dNGgQ8k+uEkRRRG7Vz5OEhIRu3bqNGzdu6dKlVf4bJCFRVYiiuGPHjrt37wIApn/84dvvvlOt/hw6dOq4buP63t16ZmZm7N+7p22H9izDCgL/+JxXN28lGQwGDMPGjp/w2uuj3N3dZXJZNUlh2atP73r163du39FiNu/etatxkyYonBjAUvJVICCEqWlpWVmZAIDBw4ZOefcdtVolV8hJksSrWtsAALTv2H7thvhe3XpkpKfv2bWrY6dODMvy/ONyn9QYJG2jHGRmZg4ePFgQBLlc0b5dV3/fkll7ayQmk/Hw0T16feGyZcsGDx7cuXPnqh6RhETVACE8duwYhNDL23vM2LHVYT0uQWBQ4Guvj5r71ZyUlBSTycTxvCg8MuEVAABCmJycAgAICAzs2KkTVkmpuCuR0LDQAYMGrv5jZcrt2xaLReB5KD5S1QAAQAjv3k0FAKjV6l59+lRWcvFKxD/Af9Trr8+ZPTs9Lc1gNPrzvCiKj5GoBNg9nukgnwWStlEOli9fzvM8juNzZy9p1rR9VQ/n+TF00BvjJw/Q6wu/+OKLTp06ueIXXULi6YEQolqgvr6+iodCJasJYeHh6ICx2dDWwuOuhkBXoAMABAUHEyglBla9oi8xDIuKigIAsCzHMAx8KFPIwyCXGh8fX5QXsRr+XkXXiUYHZqMRiqVmFn0kmBPPanzPhqq3LLkQx44dAwBEhEe/2KRdVY/luRIUGNakcUsAwLlz56p6LBISVYYjMXZ1/q0v78AghBazGVVmwXECx6ud90B5vVYhABzHoaSqqIwqXs1cIhxeq2KZlQyO40FxDhLi8cXnqi2StlEOUE1hpVLlijP9lFAkDQAopRyzhISEKyOKIgoTJSmSoiicwIstHC6LKAjp6ekAAJqmSILEXXNtdgaKMD8/HwCAivdK2oaEhITE/zU/fDd/7ldzH27/Zs7cTRsqmIfjmQIhvHTpIvKp1GjcaZoi8AdWskkTJm6I3/DwG8ePeePSxUvPb6BlRhTF8+fOGg0GAIBGo6FoiiQIZ/1p3tfffv/tdw+/8atZX27fsu15DrWMoJo1RYWFAAAfHx+ZTIaywFX1uMqN5LchISEhUTk8qgZpo8aNfXx9n/NgWI5jWcZuZ2ibHcWY5OflmU0WlVKZnZXN2O0yuTwnO/vUieMAAJIk/QP8HLYNx+IsiqWXIW3fsaOXl9fzFAdCiFw37HY7QZIEQfAcpysosFqsXp6e2VlZjN1OUVRmRsZ///6LJPLx9aFoCscfkOhRc9SkadPAwMDnKREAgOc4lmXtdoaii+coLz/farGq3dTZWVkMY1fI5TqdLj8vDwAgl8sjIiKQbeM5j7NSkLSN58TGratMJsNrwyc65+cHAEAIV/210FPr1afn8DJ2derfw/+eOTrhjWkqpZtzO4Rw/6Gtd1OTxo+Z9pjI8i3b/+zQvrtW410BKSQkJCpAx86dnIMjBEEo1OkIgvTQejg/pHIcV1RURJGUxkPj3G42my1ms1yucNe4I8ODzWqDACoUCqPRSNO0QlGKyyrLclab3WKxEASOdhPupKQYjUabzeLmpvbw8FCpVGh3GACgVquUSiVBEDiGl2UbZeDggc6VqDmOK9TpZHK5RqNxNo2gLO9yudzd3d3RDiE0Gox2u02lVqvVatRoMplktIykSL1er1ar6QdzpTt6s1rtZrMVQAwncI7j01JTDQa9KPIyGa3VahUKhUMiiqYUCjlJkGX02ejcpbPzZy4Igk6nI0nSw+PBOWK5In0RRVEazYNzZDJbLGa5QuGQFOUWUygURoORlj1ijhjGZrNZLBYcL56jlJRki9nMMDa1UqnValUqFfqc5XJ5o0aN3N3dq0lwcgWQtI3nxIlTBy5dPtOmVefoyLrO7cl3bqxas7BFs3aP1zY+nTnh9dfeiYqIAwBcT7y0dcdfUVExfXoMc76GYeyLfp2LYWD8mGmP6erkv4debNpa0jYkJJ4bvy1ZGhYR0at3z9lfzGzRqtW6v/7W6QosFmtoWNiCRb+o1CoAwKmTp+Z9/Q0v8FCEoWFhX8+b6+HhIQjCzz/8dPjgIQzHbFZbi1YtZ8yeSVHUlk2bTWZzZkbGxfMX3pn63ksvv1T2wTivVTKZDD0oYxiOlrEyrmSfffTpqDGj69WvN2n8W68MGvTHihUGg95kNLVt1+6L2TNQ9uGtm7f8tvQ3Asc5jmvessUnn38mk9EWi/XLmbOuXb0KALCYLQMHD3pr8kQMw378/ocmTZrs2rUrIy193g/fx8TGlOsTdqBQKJCmgmFY8Y7Dk8rEIBYvXBwbE9O1R7cZn37epl27v9f8pdPpLGZLZGTET4sWKJVKAMCJYyfmffMtFAVRhOEREV9/O9dd487z/E/zfzxy+B8Mx6xWW9u2bT6d8TlFURvjN3Acdycl5fKly+9Pn96hc4eKSSSTyQICAqKjo9VqNbLTVKyfKkfSNp4fzV5sve/g1hLaxp79mzt26Gqz2srXVbM2+w9s7dVtiLNyffrM4Tq14zKz0ipnuBISEpWEyWSy22wAgPS09KtXfpv/84/BIcEsy749ccqqP1ZOnDIpIz3jkw8+WvTrkti4WEEQ/lq95sP3P1i6/Nc9u3bfuH5jw5ZNcoXcbmfGjR7zz6F/Xu72MgBg66Ytr44a+fmMLyi69MICKqVS4+7u6anVaIofiP0DAlQqVWRkZMuWLf38/Dw8PEiSROtosZ5R5oWsqKgQJVO+mZi4ZdOmnxct8PLyMpvNg/oNOHzwUNfu3c6fO79k4eLfV68MDApkGOa7ufN++O77jz79ePmvv6lUqi07tpEkWVRYNKBv/5e7d4uKigQArFi2fMq777Tr0K7UnQIMw9zUag8PjaenVu2mIgmS4zh/fz+lUlGnTp3WrVv7+flpNBqCIJYuXQoAwJBeVTZVAwBgMhpR4sS01LTfly3/7sf5QcFBDMNMnjBxzao/x781IS017bOPP1m6/Lc6MXV4nl/1+6qPP/ho4dJFO7ftuJ10e8PWTQqFwmazvT5y1PGjxzu91AkAsGnDptdeHzXjy1mPKv6gVKncNe5aT63mntHC39/farFERUW1atXKz89Pq9Wq1epyKYLVFtfzNHFd2rft9t/ZYyx7PxOoxWL898yRTh16OVoKdDkrVv344Wfj5n7/4X/njkEI7Yx1x+51WVnph4/sPnRkJ7osOiJOEIW7abccb4RQ3LE7vnePIegbaTTp/z17xPnuJ04dNJqKnqmAEhIST2TAoIEhtUIwDJPJZH369bmSkAAA2Lxx0/BXR9StVxeVJRo56rWszMyc7ByO5d6c+JZCqcAwTKGQ12/QIOnWTdSPt4/X8FeHP0rVAADgBE4SBEEQJEmSJOk4kMlkarXa3d3decMCw0D51I17QABeGz0K+XCo1epuPbpfSbgCAFj1+8oPPv4oKDgIwzC5XP7utPeOHD5itVrlCsWo10ej3QGtpzYqOvp2UvHv2AsNG3To1OExTgk4jqMSZhRJkSRJFgtULJGbm5tKpaJp2rEqY6CC0TUDhwwKDglGI+/Vtw+SaOP6Da+NHhUTG4NhGEVRo8eOTr17Ny83jxeECRPfRBslCoWi/gsNkm4VS+Tn7zdk2JDH1JnCMSQR6Zgj6kGJ0By5tEnDgWTbeH54aLxiY144c+5Ym1Yvo5ZT//1TL66xm6q49rGuMO+jz8cPGTS2Q9vuRfqCJcu+JXCsblxji8XMC7zNbrXZrOhKDMO6v9z/wKHtE8YW2xvT0lMMhqJ6cU3vdZW7ZfufLV7s4Lh7/MYVgYHB7m7VoqaDhMT/LZHR0Y5jlVqNPBbPnz1ns9kSLl92nMrOzrpx/Ua/Af0LCwsP7j+QmpqWl5t76MChvv37oAuavvhiuVcgCAFas0kSJaJweDlUGJIgw8LDHC/VanVhYaEgCBcvXLBYzI6KuBDCtNS7BfkF498cn5uTu2vHzuysnIyM9EsXL/Yb0K9YomblkwgCiIpIIEWqsiQCAERF3Z8jtZvKMUe8wF84f78GbHZW1s3ExAGDBhTqCg/sO5CWlpqbk3vowMFBQwYVS/Ri03KnPwEAPDhHTy1NdUHSNp4rPbsOXLtheeuWL2EYDiHce2DT6FffhrD4z+PshRNtW3fp0rEvejloQO6pf/9p2rjt0EFvXLl2tme3gchvA9Gm1ctTPxo16tUpcpkCQrj/8NauXfrVpK+mhESNpNTlh+O5rj261X+hvqPltddHRUfX3rRhU/zadYOGDGrStEl4eLhMJndc4OykWRb0RXpUPlqtVldiFGWpFn4IoSAIg4cO0Xref7wZNWa0j4/PT/N/TLicMGDQwFZtWtUKrZWfl++4oLwS6Qp0FosFAKDRaGiarkT3yUfNUY9ePePq3v8Rfu31UbVr11m/Nn7zxk0Dhwxq+uKLYeHhJHnfklFeiUxGE89x4F5eDdd1CC0VSdt4rsTGNMrLz87Nz/b3DcrIumMw6GNjGl6/cQGd7dSuBypsaLWZdbq8ywnnROGRerrWwzusVtTFy6dbNuvEsPYTpw7On7vy+UghISFRucTExJIE2ax5c/QSQrj4l0X+/oHzv/1uz6F9jrLPZpNJ61mREtCiKB46eIhlWQzDIiMjlUql845DpUOSZFR0tFqtdkjEcdxP838MDg7ZtGHDwaP/yOVyAACE0GwyV+wWoiju37sXAIDjeEREhFKppCjqmT5uxcTEUBTtPEcLf/4lMCDop/k/7D10QONRbKI2m0xubuoK9A9F+M+hwyXmqCY9QNYcSVwCiqTat+l69PgeAMDufRu7dulPOgXE2hn7sj/mz/r67SXLvj1/6ZSf3+OqvmEY1rP7wH0HtkAIz108ER5a28vT71EXPyrEXEJCojrQq2/v35b+hnJ6AgBOnzy9a/tObx9vEYq5ObmoMfFG4r49e8tegFrgBY4XOI7TFeg2bdh0YN8+AEBgYGBcXJxKpXrWa3O/Af3nzf0WlSwBAGzZuPlmYqJcIbdYrEaDETUe+efI5cuXyigRspdwPMeyXG5O7p8rV58+dRoAEBkZGRUVpVQqy2tIKC+9+/ZZumhxdnY2enni2Il9e/Z5ensKopiXl4cab1y/sX/fvrLPES8IHC+wxXO0ce+ePQAAf3//+vXrozmSbBsSFQTDsI7te3z5zdRe3YecPH3ol/lrHacghAsWz27UoMXEcR+jb9jBf7ZnZ2U+preG9VssXPK1rjB35+71g14ZXeJ76axeQCja7JbKlkZCQuIBMBxbvXLlts2bnRt79O4ll8vRn2eJBR7DMNTSsFHDcRPGDx80tHHTJozdfutm0s8Lf1YqFVPeeXvUiJEtWrawWq0Mw34xe+YXn37WsnXrskQorPtrzT8H/d3d3SAEPM8BANRq9eDBg729vRUKRRkzROE4/uWMmfO/nefc+NaUSQ5BSvTjkKhvv77Xrlx7pXe/Ro0b6XQ6XUHh0uW/arXaAYMGDuo/4MVmL+bnF/j4+Lw37f15X3/boEHDJzpC8jz356qVPj4+arVaFAS0omu12oEDB2o0GrlcXnaJfl+2fGP8eufGPv37OQbwqDlq8mLT0WPGDHllUJOmTWw2++2kpAWLFyqVyomTJ702fETzli0tZgvPcTNmz5r1xYwWrVqWZY42xq89deKYu5sbhBDF+CgUisGDB3t5eZV9jlwFSdt43gQHhqtV7n/FL42OjHP22RRFMTnl5qgRk9EXVBCFM+eOY07Gp4e9nyiKbt3qpXUbl+flZTWo18z5lFKpysnJ5AUe2U6yczPupiY/Q6kkJCQAmDrt/f+1d+/hTZT5HsDfmSSdXJqUtE2bW0nTC10QKUfBgm2p0KLcDljlKOuDlMt2FziAeEAWEJSlKrqgR85BlAdwgUcpy9niIlTQWlmonmXbClQFLRYKgkjBYhuStLnNnD9mzdODXErbzGTC9/PXzJuW/N68ofObd97LfyxccJMf2PD2xo6neQ/k5T2QRwihaXrqjKmPTHzkyy++UKpUdw+4m58tMrnoyVFjR5/46nhCYmJ6n3SZTDbyoZE0TWcNybplMG1tbS6Xk6IIwzA0Tdvt9kmTJiUnJyuVSv6muTP9nW9sWH/d8qnTp/EH5RX7OpZPL57BH8hksuUrls+cPfPrEyf0sbH8dBtCyLLnl0+dPu1UQ4MtOdmWbKMo6smiJ2maXvb88lvXyO12OZ2E4/j1NDMyMiZNmmSxWPhhKLf8dd4zSxY9s2TRTX5g87Y/dTzNLyjILygghNA0PeO3MyY+NvHLL75Ua9T97747KkpBCJk6Y9rY8eO+Pn4i0WhMT0+nZfRDox+iaXrQ4EG3rlFbm8vppMg/28hms02aNCklJSXYRp2slCQg2xAaTdNjR/9byUsLXl+zreOXiabpe++5f92GFydPms1xbMUnu2Nieh09Vn3++0arxW4wmLa+s+6+QcMmjPt/i4CNefCRJ2eMLp7+dMehSYQQQ5w5WqvbvOW1YTkPud3O9z8ovffeIQLVEAC6RBejy87NuaYwPj5+2AN5wdPOP/5ITU1NT09PSEgwGo2/+tWv0tLSlEolPzhUsMuYIcFgSMi7ptCaZLUmWYOnnawRTdN9+vRJSUmJj483m819+/a12+38UEoh+wBiesXkDLu2jQwGg6FLbZSSktKvXz+DwcC3UXp6enAAb4SlGgTZhmAmTfyNPfmfs6pyho589vdr+ve9lz+1WuyPPlxEUVTx1AUfH9j9P2V/0ul65Y8Ye/ddgw5W7W9rayOEFE9bUF1bxa9Hnpv9YPCmxGyyPbfkP+/5l39mEiqVpnjaQkIomqZeeO7N3Xvffaf0LXty+pzfLTvZ8JW+Vzwh5LFHpvMHAHBbpHUNGDRoUG5ubkpKSmxsLD8m9EbPCCSBoqihQ4dmZWXZbDa9Xs/P1/hl/NJqo4EDB44cOfImbRRJkG0IZMh9DwSPlYzqwfwJwdNYvSFWbyCEMIxy7KjHx456PPhS/gP/yh9o1Nrhw8bwxxnp/YM/QNOy4XljgqdMlPKB3NE//7Px0558KviSId7IH9w3aFjPVAngDiOt9Rz5RaKioqIUCsWN7v6lVSOFQsEwDH/3H0k1unkbRYyITaMAAHoWv9AnIcTr9fbIKlKhwG8GRghRq9X84/+b3C7LZDKtVksIaf6xOWynrV296iSEyGQytVp9y5VCaJrml/V0Op0BtrNzQwTW8lMLf6DT6W7ZRhEj8mvYg/gvhNN5NWz/W4aO1+shhDAMI3YgAKKhabpfv36EkMbTp/nVrMNNIBAo37OXEKJWq+12+y1nUdI0fffddxNC6o4dO3vmrHCBdprf79/3wQeEEL1eb7Vag3ui3kiwRmcaG+uO1t3kJ8XCsuwHe/YSQhiG4fdai7wBodeFbOM25OfnE0LOnD316f9+JHYsgjrz3bc1n39GCLn//vvFjgVANBRFPfbYY0qlMhAIPPXvc06dOhVWNx5er/e/X/+vyooKQkheXp7FYtHpdDdfxYum6SeeeEIul7e1tf3772Zd/OGigPHemtvtXvXCS18cO0YIGTFihNFovOW1OdhGHMfNnzv325PfhlUb+Xy+t95488P9+wkheXl5ZrP5lm0UMTo1CQp4TU1NNpvN4/HI5fIhWXmJCTdbfStiXL3qqPrs47Y2N03TVVVV3U84WJbV6/UOh6O8vHzMmDG3/gWAsMGy7KJFi1599VVCiE6nK3jwQYvVEg5P3J1OZ/U/qvkLs8Fg2LJly8CBA/V6fXCpjxvx+XzTp09/5513CCHx8YYRBfkmsykcLn4Oh+PTQ1Un6+sJIUlJSaWlpWlpafzSGjf/RZZlly5d+sorrxBCtDpdfkFBUu+kcGgjl8tV84/qY0ePEkJiY2O3bt16zz33dKaNIgQHt+Ojjz4Kh2+t8CiKeuaZZ1iW7f5nGAgEdDodIaS8vLz7/xqAwNxu98yZM0O9cmWXGY3GXbt2/fDDDy6XKxAIdKZGLS0thYWF4Tl0gKKotLS0/fv3NzU1ud3uTtbI7XbPmjUrnNto586dt9VGEQB9G7ft9OnTy5YtO3jwYGeWp2VZlmXZ8PnS+/1+iqJuN2EaMGBASUnJfffd1yMJOPo2QOoCgcC+ffs2bNjwxRdftLS0dHPEqMfjCY6IYlnW5/MRQmiapmma+3nX1lumAgzDmM3mUaNGTZ061WKx3O7YQ6/Xu2vXrs2bN3/99dcOh6Ob1wWv1xvcyz5Yo45/djpTI5VKlZSUNG7cuClTphgMhttd8CoQCHz44YcbNmw4duxY99uI47jgW3Mc5/V6SZfayGg0jho1atq0aVar9c4ZH8pDttFFnfzu7tmzx2AwDBkSLitrlZeX9+rVKzs7+7Z+q2f/PyDbgAjAcRzLsi6Xq62tje/z69q/4/P5Ro8eXVJSMmTIEJ/P9/e//72srIwQUlBQwLKs3+9nGCYzMzM2NpZfnPtGl1t+ygZ/9eLXorjtvc45LhAI8DXib0a7VqNAIJCXl/f6668PGjTI5/NVVFTs37+fEDJ69GiHw8HPGRk0aBA/XuEmd2JyuZzf/UQmk3Vt7/WeaiNCyJo1a6ZMmZKQkOD3+6urq3fs2EEIycvL4+urVCozMzPj4uJu2UYqlYrfa61rbSRp4XLPLTmd+epzHPfmm2+q1eqysrJw+FZxHLd27VqNRpOTkxMO8QBIF99HqNPpdDpddy5jVVVV9fX1f/3rXx9++OH29vYLFy7wFySTyXTp0iWdTme1WtPT0zu5I2h3/l9TFCWXy2NiYmJiYrpTo08++eTs2bPvv//+uHHjPB7P+fPnVSqVRqPR6/V+v1+tVqemptrtdpVK1Zk7+27WqEfayOVylZWVWSyWp59+2uv18m2kUCgsFktTU1NMTIzVau3Tp48AbSRpyDZC6NKlSx9//LFMJmtpadHr9bf+hRC7fPlyZWUlTdMOhyMmJkbscAAiRHeuHxUVFSzL7tmz5+LFiwzDNDQ0EEKMRmNzc7NcLo+KikpJSWEYRuDVn7pToz179rAsW1ZW9vLLL3s8nnPnzhFCLBbLpUuXFAqFSqVKTk6WVo3Onj177ty50tLSOXPmtLW1nTx5khCSmJjY3NysUCiioqJSU1OVSiW/e0vPhRxp7pQnRqJYt25dIBDwer07d+689U+H3vr16wkhLMvy488BQFw+n++1114jhLS2tm7btu3kyZNOp5PjOJ1O197eLpPJzGazVquV0EKTbrd706ZNhJCWlpZ33333+PHjXq+X4ziVSuX3++Vyee/evQXY775nLVmyhOO4o0ePVlZWNjQ0tLa2chyn1Wrb2trkcjk/i1VaNRIFPp1Q8fl8/DQ5QsiyZcv43YRF5PF4Xn/9df74xRdfFD0eAKisrOQ3QiKEbN26tba2lvzc/8+vaW2z2fjBDVLpfq+srHS5XPzx22+/feTIEUKIXC7nOE6hUKjV6t69e/N9AFKpET/CjBDCsuzGjRvr6urIz1vM8G2UnJwsrRqJBdlGqOzbt6+9vZ0//vHHH6urq8WNp6KiorW1lT++ePHi4cOHxY0H4A7HcdzixYuD4wnq6+v379/PX5UVCgXfDcB3bEjlppnjuNmzZwdPv/rqq4MHD/I1ksvlcrk8JSWFH/gplRoRQkpLS4NzAvbt21dVVcVxHJ8OKhSKpKQkfrirhGokFnxAIcFx3IsvvthxXFLHPyuixPP88893PF26dCmmIwGIqLGx8csvv+Q3XqFpWiaTHT9+nGVZ/nqsUql69+7NP0ORyk1zQ0PD+fPn+WkmCoWC47j6+nqfz8cvN67T6SwWi4SeChFCAoFASUlJ8NTj8dTV1QUCAZVKxbeRzWaTVhuJCNlGSJw5c+bSpUvBr+nTTz/d2NjY1NQkVjzfffddc3PzH//4R/70D3/4w+nTp0WMBwC2bdv2ySefrFq1ihDSq1evhQsX+ny+pqamhIQEuVyenJwsrfENHMdt3Ljx448//u1vf0sIMZvN8+fPb2tru3LlSnx8vEKhSElJ6eQ8lPBRU1PjdDqzsrIIIUqlMi0t7fTp062trQaDgW+jO2eXk+6TTKtLC03TDQ0NRUVF/OncuXMbGxtFHCrh9XpPnTo1ZcoU/nT27NlnzpwJ200sAe4Ezz77bF5eHj9bjWVZp9OZk5OjVCqjo6N1Ol1SUpK0RmwQQlatWpWfn6/RaAghLMtevXo1Oztbo9Go1Wq9Xm8ymSQ3a6O1tfX777+fN28eIUShUOTl5fXv39/tdmu1Wq1WK8U2EhFmwIaEzWa7pkQul1utVlGCIYSkp6dfU8IPpRYlGAAghPDPUHjt7e3Nzc0ul8tkMjEMY7fbg0t1iRjhbblmkWKHw+FyuZxOZ2pqqkKhSEtL42skrQvzQw89FDz2er2tra2xsbEGg4GfmazRaDBio/PwMQEAiMbtdpOfF8N2u92JiYn8alGS6wa4RiAQ8Hg8Ho8nISHBYDAkJiZKvUYcx/l8PpfLlZiYyK+6xjCMpGskMGQbAACiOXv2LH/gcDgYhomLi0tNTQ2uby1ubF0TnNPrcDh0Op1Wq+VHbEh3X3WHwxE8YBgmNjaWn1wj3TYSBT4pAADR8MOnOI5rb29PTEyMj483Go38dhtih9ZF/LWZ79tI+Jmka8QPqOfbKD4+Pi4uzmw2K5XK8NluUxKQbQAAiIzfBc1sNvOjAaQ1YuMa/NR6ftNUk8mUmpoqxREbv8S3kclkstvtGo2GYRjptpEo8GEBAIiD36SUP2YYJi0tLTExUdI3zR1X8dFoNOnp6fHx8ZKuEelQqaioqPT0dKPRyK+JIm5UkoNsAwBARq3J4AAAC0pJREFUfEajsV+/flqtNmJumq1Wa0ZGRnR0dMTUKDExsV+/fjqdLmJqJCR8XgAA4qAoKvh8YejQoUlJSfyym+JG1R0da5SXl2c2m6OjoyVdI9Jh/9ihQ4cGl5OX+oMh4Un7SwAAIGn82EmGYQoKCmJjY6U+TZQQEhUVRQhRq9UjRoyIiYmJgBrx65UpFIrhw4fHxcVFQI1EgWwDAEA0ffv2JYQwDGM2m1UqVQTcMfOro+p0Oj55ioAa8QshRkVF8SM2IqBGokC2EUIymSwpKYll2TDpSJTJZBaLhfx8OwUA4SPyLmORkWp0pNfrI6xGQgqLq2CkMplMwaV7wkFcXNy5c+fEjoJQFGU2m3U6nVKpFDsWgHCBy1j4w31adyDbCKFw+/MRJvFQFPX111+LHQUAAAgHc1IAAAAgtNC3EUKBQMDn8xFCFAoFuuAAAOCOhb6NkHC5XMuXLzcajbGxsbGxsVardeHCha2traIEs2XLlvLy8l+WV1VVFRQU/PDDDwLE4PV6hw8ffuXKleu++swzz+zfv1+AMAAAQBTINnre+fPnk5KSCCHffPONy+VyuVwnTpwwGAw2m62hoUH4eL7//vvLly93LOE4rry8fNKkSVu3bjWZTALEEBUV1adPn9LS0l++5HK51q9ff//99wsQBgAAiAJPUnqY3+8fOXLkpk2bCgsLg6My9Xr9okWLMjIy8vLyGhsb+dVvxMJx3Ntvv7127dq6urr4+HjB3nf+/PmPPvro7NmzrxmsWlVVNWzYMJ1OJ1gkAAAgMPRt9LCPPvooOjq6Y6rBoyhqwoQJmZmZZWVlYsVGCOE47tlnn92yZUtNTY2QqQYhJCMj4/Lly42NjdfEU1JSsmjRIiEjAQAAgSHb6Ekcx61fv37FihXXnWtKUdTSpUvfeuutjtskConjuDlz5hw+fLiyspJhGIHfnabpuXPnvvnmmx0Lm5ubjx8/npOTI3AwAAAgJGQbPezw4cMDBw680av9+vX76quvgntMC8nn8xUVFW3evLm0tFSsRzkzZ87cuHGj3+8PlpSVlc2YMUOhUIgSDwAACAPZRg9zuVw3uXbK5XK32y1830ZNTc2wYcPS0tIWLFgwYcIEUdIdQojBYMjIyKirq+NPWZZdu3btvHnzRAkGAAAEg2yjh2m1Wq/Xe6NX29vbNRqN8Gt6btiw4de//vXy5ctXrlypVqsXLFggytMciqKee+65FStW8KenTp1yOp29e/cWPhIAABASso0elpubW1tbe6NXP//88wEDBtC00B/7/Pnz586dS1GUTCbbs2fP9u3b33//fYFj4A0fPvzTTz91Op2EkE2bNpWUlITJeuoAABA6yDZ6EkVRU6dOXbJkScdHFRzHHTp0iOM4juNeeumlOXPmCH997d+/f/BNNRpNdXX15MmTv/32W4HDIISo1epHH330wIEDgUCAnycsfAwAACAwZBs9bMyYMQqFYv369cFHFRzHVVRUFBYWrl69+vz58+PHjxc3QkKIzWZ75513cnNzHQ6H8O8+d+7c559//m9/+9uQIUO0Wq3wAQAAgMCwulcPk8lkBw4cyMzMPHLkyIoVKywWC0VR06dPHzFixO7duysqKuTysPjMx48ff+jQoQkTJggfUv/+/S9cuPCb3/xm+/bteIwCAHAnQN9Gz4uLizt16tTgwYOHDRsWFRUll8tzc3PnzJlz9OjRefPmHTx4UOARmnfddZfdbr+mkKKo1atXDxkyZO/evUIGQwiRyWTr1q3Lzc0dPHiwwG8NAACiCIv77MjDMMysWbNmzpzJD+CgKIofGXr06NFvvvlG4Bv6hx9++LrlNE2vWrVKyEiCJk6cOHHiRFHeGgAAhIdsI4T4OSAdSxiGyczMFCseAAAAUeBJCgAAAIQWsg0AAAAILWQbAAAAEFrINgAAACC0kG0AAABAaCHbAAAAgNBCtgEAAAChhWwDAAAAQgvZBgAAAIQWsg0AAAAILWQbAAAAEFrINgAAACC0kG0AAABAaCHbAAAAgNBCtgEAAAChJRc7AACAO1dCQkJWVlZMTAxFUWLH0jNsNltWVpbJZBI7kB4TFxeXlZUVHR0dMW0kCorjOLFjAAAAgEiGJykAAAAQWsg2AAAAILSQbQAAAEBoIdsAAACA0MKcFAAAgBvqOJcC01K6DH0bAACCeu+996qqqq770nfffbdmzRrJTRXkOG716tVXrlz5ZfkHH3zw2muv+Xw+UQLrpqtXr5aUlFitVpqmNRrN448/XltbK7nWCRPINgAABGU0GidPnnzdi9bLL79M07QUb6A3btzY2trasYTjuE2bNj311FMzZsxQKBRiBdZldXV1VqvV4XBUV1d7vd5Lly7NmjWrsLCwuLiYZVmxo5MerLcBACCoQCBgsVhqa2utVmvHcp/PFxcXd/bsWb1eL1ZsXcNxXEZGxocffmi32/kSlmVfeeWVvXv3VlRUqNVqccPrgp9++ik5OfnQoUOZmZkdy/1+/4gRI8aOHfv73/9erNgkCn0bAACCkslkxcXF27dvv6a8trZ2wIABvXr1EiWqHsSybHFxcU1NzcGDB6WYahBCVq5cWVxcfE2qQQiRy+V//vOfX3jhBafTKUpg0oVsAwBAaNOnT3/11Vf9fn/HwmXLlj333HNSfIzSUSAQKCws9Hq9f/nLX+RySU5ECAQCGzZsWLhw4XVfNZlM2dnZBw8eFDgqqUO2AQAgtOTkZKVSeeLEiWDJ1atXP//889zcXBGj6j6PxzN+/Pj6+votW7bQtFSvLy0tLQzDGAyGG/3AE0888dlnnwkZUgSQ6rcBAEC6KIoqKSl54403giUVFRWTJ09WqVQiRtVNNTU1AwYMyMnJcbvdu3fvFjucrvN6vRqN5iadTFqttqWlRciQIgCyDQAAERQWFm7fvt3j8RBCOI574YUXZs2aJXZQ3fLkk0+uXLly8eLFlZWVRUVFJ0+eFDuiLpLL5TefsuvxeDQajWDxRAZkGwAAIoiOjs7Pzz906BAhpKmpqampqW/fvmIH1S2bN29+7LHHKIpKT0/fvn17QUGBy+USO6iu0Ol0P/30003Gge7cubN///5ChhQBkG0AAIiAoqhFixbxa3nt2LFj6dKl0h3owMvOzg4+fRg3blxRUVF+fr4Ul6aIiorKycnZtWtXx0Kfz+dwOAghbW1tBw4cGDVqlEjRSRXW2wAAEIff74+Pjz927Fhubm5tbW1iYqLYEXXRL9fbIIQEAoGCgoJ77rlnzZo1kptoU19fP3jw4MbGxri4OL7kwoULI0eOXLt27Y4dOzwez7Zt2yRXKXFJcnoSAEAEkMvlRUVFkydPttvtCQkJYofTw2QyWXl5ud1uHz58+Lhx48QO5/b06dNn9erVmZmZ7777bnZ2tlwuN5lM27Zty8rKUiqVFy5cQKpxu9C3AQAgmjNnzmRmZpaWlo4ZM0bsWLqO47h77733vffes9ls17zU2Ng4dOjQ6urq3r17ixJbl3Ecd+TIkRkzZpw/f95mszkcjosXLy5evNjpdP7444/r1q1jGEbsGKUE2QYAAMD1cRzndru9Xi9FUVqtViaTcRz32WefWSyWjo+N4JaQbQAAAEBoSXsINAAAAIQ/ZBsAAAAQWsg2AAAAILSQbQAAAEBoIdsAAACA0EK2AQAAAKGFbAMAAABCC9kGAAAAhBayDQAAAAgtZBsAAAAQWsg2AAAAILSQbQAAAEBoIdsAAACA0EK2AQAAAKGFbAMAAABCC9kGAAAAhBayDQAAAAgtZBsAAAAQWsg2AAAAILSQbQAAAEBoIdsAAACA0EK2AQAAAKGFbAMAAABCC9kGAAAAhBayDQAAAAgtZBsAAAAQWv8HPM4OrYMizEAAAAAASUVORK5CYII=;clipPath=inset(0% 61% 12.05% 5.67%);" vertex="1" parent="1">
          <mxGeometry x="633.0699999999999" y="468.5" width="273.2876712328767" height="399" as="geometry" />
        </mxCell>
        <mxCell id="SUoC9XZfshMG5ti-oYJR-3" value="" style="shape=image;verticalLabelPosition=bottom;labelBackgroundColor=default;verticalAlign=top;aspect=fixed;imageAspect=0;image=data:image/png,iVBORw0KGgoAAAANSUhEUgAAAs8AAAGPCAIAAAAsoKoRAAAACXBIWXMAAA7EAAAOxAGVKw4bAAAgAElEQVR4nOzdd1zU5hsA8Ce5yV7KUFHcW8GJewuK27qtW6t1/qqti7qte29bR13VuvfAvepAcaIiSzYyDg5uJ3l/f0RPZIMcB/h8P7af3Ju75ElC3nvuzZs3FCEEEEIIIYQMhjZ2AAghhBAq4TDbQAghhJBhYbaBEEIIIcPCbAMhhBBChoXZBkIIIYQMC7MNhBBCCBkWZhsIIYQQMizMNhBCCCFkWJhtIIQQQsiwMNtACCGEkGFhtoEQQgghw8JsAyGEEEKGhdkGQgghhAwLsw2EEEIIGRZmGwghhBAyLMw2EEIIIWRYmG0ghBBCyLAw20AIIYSQYWG2gRBCCCHDwmwDIYQQQoaF2QZCCCGEDAuzDYQQQggZFmYbCCGEEDIszDYQQgghZFiYbSCEEELIsDDbQAghhJBhYbaBEEIIIcPCbAMhhBBChoXZBkIIIYQMC7MNhBBCCBkWZhsIIYQQMizMNhBCCCFkWJhtIIQQQsiwMNtACCGEkGFhtoEQQgghw8JsAyGEEEKGhdkGQgghhAwLsw2EEEIIGRZmGwghhBAyLMw2EEIIIWRYQmMHAAAAXMKrKxdvvowm9rWad+rQ0P7D5Wukg0eN/AfHpoQ+unLuhrLFjB/dxHn8aFLAnXNnXpcaMsHT6atcjEsIeBIo4/SvKUpoYmVXysHRwVpa8ElbhrXREnM7R+fyjhYFeciy3FiD4qLvXIty7dTQotDWmCk28uqGDTdL/zjnx7qmxo0EIQBgPr71C0nmAAAocelq9StZZ3pOqqNevwhPJQAAlNSxSf0KOSw2x8owxxOBkwX5vY9nyOfXlNi+Wv2K1jSkfHj+JkatLwfapkrjanY5xJMreaqZikaFgvVJjoixsVHnfmtZxrHhkLlrNqyaO86zZply5UtZef2VmN8FMiFXNv7ao5opRVkPOqrKWywRNzb93MpRQIkaL37NpJ8Z+/zCvrmdnAQAlGnVziN/+mn0j3093Ks5OVZp7DVu+YmXiWx+Q84slJhnZ/+c5G5NA9ClGw8YN3bkAC/3ynY25Rv1/vXvp7ICWFW2G2tIOr95DWw6bAouzHVmgo3Y2E5CCatMu60xbiAIEUII0UU9u3hwcY8KQgpAWG3arUwrLzZkc0cLCoASVe674sit99kvMjeVYc4nAhv/6sqBeV3KCgAooUvPJYeuvUlkCSFs0rubR1b2qyqiAAQOHWbvvfA8Nvebm6W81kxFo0LB+iRHRs825KdHlhWW6nsg9vP3p/z5tj7lTRotevUtfzvsh3VtxHnPNgghRH3lJ2dBln/mqmODbWgQNVnir5+tDruxbmANU1pUzmPR9ZjcpwHqt09fyLN/S/wOTwmAxHNHPP+a+Xh7QRtbmrZs5H03Jdcryi6GbDc2b4vKeXN4qVd+chFQojqzH2VxVmZYUq4XnZN0C0p5d2nfP/ejCzJJROjbaG5NrSIEANqu975MahPN47luliYSCoQ1f/svd19rmVWGX58JuToR1BfGlBWAsPKUm1+vVvdwVm0h0LZDjue9ss1mbbmvmYpMhYL1SQ6M3W9D63f9TiyUqlRZ32hoUW/c9pV9qJho5luWK5Hk8QLKFwKhIJu5UqkUACj6y46TOLeddvDG0fHV4q4s6PPDiifqXK0l+da8YXOuJXLZvsnERAIAABT1KbTSrWb/MbIqLX+yac3JxFytJwfZb2zu5WpzAAC4jyd33hGWN2Pf7Nt6MTk3S8r1ovMco3k1jx8HNnM09jmA0Be0qZlFdbe6JiTxwqY/X6evBJMvbz9p37tLaRooExOzXP7lZqgM058JuToRKFMTCQBITKTpZpiaSCkAqVRK5S6c3MltzVSEKhSsT3Jg9D0jFNLAvD+84dgH9nMRXbr76F7lWPL1G9mU8ICg6NSMOYg2JSrQ/21kcm6yE04ZExwSl3k+wMjCgqNT2Uzn5YR27Lp849iqdNL9ld57P3z1d8ymxgS+CYpVpi3UBu3/afi6Z8p0m5gbwsqVnWkgysiwWD5UTVKSGgAYWXi4LM0uyGy1aXzLxmY4EnnYHDZ4/56IPrvW9HOCqBPb/glLF16GJWW96CwOpVomU/JBRoVGK74sPqsFaZOSlOlCzHrPZbVwhAoQ7TxgUi8HSvP0z00+KWlncOGHdzxsMaG3/bdU21mcCRlPhG+VZWWbbY2dx5qpwCqUrKLNY4WSyW7ECuUzY2cb4gY9u1URceFHRrfvs+x65Ke/P9N2c2Z76FPo5JcHZwzoM2LO9oObR9R3bjB43f1P6aQm4MiMnp4jV5y4dfPgxGZV2865FJvlAWPCr66aOGzklLneY1qWc2z443a/VP28ZN8doz08hi3cdXDz/waN3PwkNR9ZAFi0HtGvlohLvvnv6Qg+Ci7uztofO3iOW3ngyJb/da5ZrdXoLQ9kHIDm+d7lO/+LZti3BycP7D94/vm4PPyZMaEfojigbatXgQeHVkzsXt+l1eLr1xZ2qljWpVKDadc1Wa82+43lkl4cm9+9kpnUsv3aYBa4hEeH/hjZxN7UpNTgf/WnT6ZHIi+bo3381xHBoFEtvMYNrS5Mub5j1/O0NU6GJUX4ZbboTA8lG3J5w29D21Ur12zBzYc7RjR2dqpQqax9rWEHgtjMlhyX8uHO/iXjutQt33jOfc2n9We557JfOEIFi7LsMnVkLREX/u+Gg2l+uzAvd+1N/GFSR7M0b83VeZtGhjMhNCTjifCtsqxss62x81MNF0SFknm0eaxQMt2NWKGkY+xLOYTIH67yKCOiACiBTb1By6+EqtPOVfutbFel46pnqYQQwoZu6mBGiWrNfEAIYd6vaWMqcp3npyOEkI87u5joXxA2ZmuntJcqZT7TGrdb+lxNCCFs5O4etrSo2pTrqYQQwgTu7F6m4rBjny63pd77ra4o6+5JqnOjnGgQNf3jbcbZqhNDbWmgnUafVxFCFA8XNLWuNPpcAj9T4beyna3AutUyPzUhRHXyx1K0uPXa0Oyv8Sn29ZQASDx3JnzeV37rujjQtHWr5U8+BvvdWN3VjhbYNxo079Ct8+vH9Rm5/YUu29XmsLGqMyPsaVGLlYFMmp1o/sM/iuyOhCb3m0OSTo+qP/BQPCGEeb+6tSklcB59/uvrpxmWlKEgq0PJMEk3p1YT0pbVu0zf/TBGrQk7NqKSUFB+wlV1JgtiEwKf3t7QszQtKD/eh39Ddnsup4UjVEB0j+c07LI1hgnd5mFFUaI6sx9+7o2QcvGn+j3/imTVPuPLC0DUYP4LvrLL4bzNUBl+dSZkciJkQXNzciUBCKuM/ufp87T8Tk6qLQK6zOjznz6eZWWbXY2dt2r4swKoULKONi8VSma7ESuU9IzdtgEAFk1mnHt0acVgVxsq6cU/s7u4tZjwz7tPLVpc+H7v5UHtpv9c3wwAgK4wfNHiUUMGtCkPACCwc65e17WqDQUAYFHKzoQNfvNOm8ka2IC/Fu3mGjUg7168ePHiVVxF1+pCJujsiccagKSzixZcLjVkWs9Pl9vMGnZqkc+bQWlbWxsaiEqh4ICLPLhw3dNyA37ysOVnmrpOWTKySuq9lQsPx+SxxYzx/+e3yVMnjRvStVGNFt6vqo7afPnUrw1KV3Rt2datjIAI6gz8dVDrrlN3HN/9U+3YbFebw8ZSQqEozbVXWiwS6l9meSRyf0MuF3V0l1/LMT3tAEBQaegYDxsSeXzbkai87I6sD6VAYOHi4kSD1H38kpFNHCRiZ6++bUqRGP8Xme1v2rayW/OOjVz014azP2B5WzhC34qqMGRKP2da579nw+lEAAAu+ujOh80mDCiTsXLK7rzNSYYTIQdczPV10/+X1vSVlyLS/CLPrrLNusbOVzVcABVKNtHm6ZzPuBuxQsmoaIy3ISzb/teDj3+csGXGhHn/vHqyY7hHMrm9f3B5gezqmVuKKsvq6a+qWDT/31/N+UlBxeH7nw4HAG3M4+P/Xjz7Wk00alUmLVFc/I2rvlqt0+1jRz//MXT4bW4HQVVzFpS3Tl6KNevoWvPLjqAF+UzBOJksiQOBnb29EBS3L9+VU43KlEvTm7Rhx9YO63fd9rmvHd413UfVH0MjkrSf/85oc6dKZSz0n6TLNOnm1VoMYvOxv++pXcPhy83cNEUDbWFXSt8JLPvV9hPkf2OzOxK5w77ZuyfE/dcyEQEBAABQr0u70qdPXNn+16sR8+rl8u8wu0MJIgooANBXtJSpqZQiSoUiqxZZQZqNz+GA9RHndeEIfROLzlPGuO2f/+TUpt3v+syo/Hb3nrg+WzqYAxTU9Y4vBF/VAtlXRuX7b7y0vGmabqfMq0XuDeb7fXqV3RmadY2dr2q4ACqUbOsTgDye81/tRqxQMioa2QYAAAgdW049cLdZ/X7dZ/l8+HfO8lF9traNDI3QEAttZg0WAABM1K2tS3c+K9V14qRf+jzecMg/03dxMVGxDHFq/7/FP5VON4sNCQyWEYGwIHYDE/jCX87RVo1auIq5pLhENSHKVDkBJ/0Gli9fhiYv+F6dX9HcX9Su85bQz5mSxGtXzLlR1p/n0taVW3t2tc1FCNmvVhEry/fGMjkciZyp7/11ONas3J8z/velqLQNFftsz9Yb07d3Msvmo19kcygBvuVHQY4HLN+3OCGUP8LaYyd3XT/y5H87ttwZ2fP4yVKjztYuhPo6+8ooJ9meoVnV2GxsPqrhgqhQcoj2G2CFkgnjXklhQzb9NPt22s5MVk2m75rfwYxio/x8w4CSmkiAeeP7WP71x1gWALiwQ8Na9Pq33OztC4c0LJ3NHyolkUpA9/LhA8VXxVxCdKxOIBBQRB7+IS8dNTOnfnro+AtGWHHAmC5WQNvYlzKh2NB3AWl+iBCdjgHavpyzSfrPSprPu/H2nd6rnf0s8xVD9qs1/YaNzfZI5EbC6e2Xayw6d+F8GpcPTnYTc2H/bj2a2+bDbA5l/vMggJz2XIYDhpDh0Y4/TB1aWcgEH1g4Ztl/7j/3L5Txfr+tMsruDM2yxqbyUTMVSIVisPoEK5TMGDfbEDiUVR5Z/GdA2n7EdOkK5S0pytSpbCkQVHBv7EzFn12z7oH+TjAu4drqlecBtI+3LDkaUbpJq2piAACOYbisGrhcXOvaU7EnN+56+2VFCr+Ny4/FCh3q1y1L63zPng778rVJPv2XhcxmcQk35/+88RVddcSa39tbAIBpa8/WVhB3+/KDLw0Z6qDgCCjj0aOZBICiKCAs83kwYKm9S5VqelU+t1wSQrJeZ2ayXa1JjhtLUQCg03060TiVWkMACAHI5kh85CDD5mTAvtuzzbf5sB5fD2osrDNqTDtzknRp++43nyPKsKSvCrI5lDn+JWeMkej/l/MBQ6hQcFqNVqP59BVl2vLncc1MiezWxZTeE9p+/rlOCP9dmovzNlMZzoS0J0J2lRGBzBZLuE+VCIFsz1AmyxqbznM1XEAVyrfUJznsRqxQMjJyL1FxpUpWt7wH/Xox6vPB5mIvHbsWJ6w69KfutgCSVhMmtbZSPlzSpe2PC7YfOX1i96KhA/eU6u8F/O9qNuzaibtxmqS3Fzb/+1QNXFz0h+iQ8BQAjUYLwOoYDgBA2n7syHri5Gu/efX+fc+FO3evHV03vtfsOK8f6wklrcaOaWyWen3BjwsuR2kAtB8uHbsTy3FRz277Bn7MeIVUl5SkJAA6jfbzX5Um1u/Y4n7Nu60Lrz9p//nNn7o50WUGz/+1mfmHw2v3hfB/92zYkb1XJD2WzPUwB6BL29vSXKj/qxQu+fkd3yxGmuESZHICwCUnJmTahMDpdDpCNEqV/u89+9XmtLFCl8rlhczrk3tvx2pSP9zasepcmBA0YW/fpbBZHwl7OufNSbywcsvrRp7tzNOV02V792khBbXv9jXnZXxJ+iWlK1C2zfJQAtFqtQQ4fdJJlEo1gc/VQcYYiVqlBqJVq0jOByyHhSNUQBQfPkSHBQfr+FeC6qMm93IQ2nSdOFrfp0Edn5DKAUmWfb6vPbvzFiBdZZjJmfDViZAlJlGWQoDIZbKvT29OJksmQBSyJA1AtpVt1jW2No/VcIFVKK9cR2dZn+S1Qvl6N2KFkgkj3xOT9Hdvl4bdurVp0XngT9O9vX8Z1tbFumzLiQff6EfBZaMuzfOsYimkACihXcOR2x7J+Bk6/+09ncUURUlK1ev7h8/DTZ2tKErk1H7hycv7Fw+oZUoBbd966qazr+SEEPXbg+Ob2IsoAKAEVjV7L7oU8fnWKl3wsWmty5rQlNDc3rlOrz9Wj6hkU7n14FlbfYIUaUPVvTm98tfeNc0oAIq2qtiwRcvm7o3dalWr2cRz6PR1p19leEwK+/HOmkENK9buNHbe8iW/Du3iNXn/q89LVD9a5G5F06Zl6vdefleWyY7RvTm5fGqXShIKgBKVaz9pyc7rH9LeDMZG3fnzN88KIgoEjm2mbDj6SD/KcXarzWljE6/OcbcTUJRAZNdg1O5HR0aUta/jMXLOn3dj2GyORLabo3pxcGq7siJKVKHLr1uuhqbZBo3/6TW/dnHhl1e2w//2PU3JZEkZCzI9lEzotfUj6ptRlLCc55zddyMS/P75rb2jACiT2oNXXQpi0i0oPuTGroW9q4goEDi1m771ynt1dnsu54Uj9M2SfA8tmdi5opSirer2m7XZhz9ZNA/m9ph2jT+DVa+Or5zRu4YZBQC0TYMh3jtvEUKyOW+jIu5nUhmmORNuPc/kREiPCbywfs7A+lY0ANDWbgNnb7wSwhBC2MibO+ePci9NAwBlVr3n9BWn3pCsK9usauzFd2S5r4bzVKGQXFQoWUSbtwol892IFcrXKJJ1gxtCCCGE0LcrAuNtIIQQQqhEw2wDIYQQQoaF2QZCCCGEDAuzDYQQQggZFmYbCCGEEDIszDYQQggVpODg4NjYWGNHgYoWzDYQQggVpGXLlu3atcvYUaCiBcfbQAghVGAUCoWNjY1UKpXJZAJBbp9lj0o8bNtACCFUYI4eParT6VJSUu7du2fsWFARgm0bCCGECgbHcXXq1Hnz5g0AtGjR4s6dOxRFGTsoVCRgtoEQQqhgvH79uk6dOvy0QCAICQlxdnY2bkioiMArKQghhArGvHnz9NMsy27YsMGIwaAiBds2EEIIFYCUlBRbW9vKlSu/e/cOAFq2bOnn55eYmCgWi40dGjI+zDYQQggVgIsXL9apUyc6Orpp06YAEBcXFxsbq9Vq3dzcjB0aMj7MNhBCCBUYPz+/Bg0aAIBMJrO2tjZ2OKiowH4bCCGEEDIszDYQQgghZFiYbSCEEELIsDDbQAghhJBhYbaBEEIIIcPCbAMhhBBChoXZBkIIIYQMC7MNhBBCCBmW0NgBIIQQMj5CyNu3b3fv3h0WFsZxXL6XExgYyE/06dPHzs7uW0IyNzf38PDo3r27mZnZtywHFQU4lihCCH3vNBpNnz59Ll68WAS/EczMzI4fP965c2d8eH2xhtkGQgh91xiGadWq1YMHDwDAzs7OtYGbmZm5sYMCAAgNCXn18iXHcTRNX79+vU2bNsaOCOUfZhsIIfRd27Zt28SJEwkhQ4cPm/u7t7WNdRFpRWAY5sH9B+PHjI2Pj7ezs4uIiJBKpcYOCuUTZhsIIfT94jiuXLly0dHR7s2a/XvyWBF8OrzPZZ/hQ4ZyHHflypVOnToZOxyUT3hPCsrEmTNnGIYxdhQIIYNTKpUxMTEA0H/QwCKYagBA67atnco4AcDDhw+NHQvKP8w2UHocx02aNOnx48fGDgQhZHAajYZv4ba1tTV2LJmTSCQSiQQAdDqdsWNB+YfZBkrP398/IiLC29sbr7IhhBAqEJhtoK8QQpYuXUoIuXnzZlxcnLHDQQgZE8uywUHBGYff0Ol0EeHhRgkJFVOYbaCvyOXyEydOAADHcX/++aexw0EIGZNcLu/drYdKpUpXHhMdM3nCZKOEhIopzDbQVw4dOqTVavnpNWvW4IVShFBG1tbW4ydOMHYUqDjBbAN9wbLs3Llz9S+TkpJu3LhhxHgQQkWT1ETasFFD/UtCyLu3727euJGYKEv7NpZlX796ffvm7SRZUtpyhUJx/+69e3fvKRQKvoRhmOd+zziOkyXK/J4+LYRNQIUMsw30xYMHDzQaTf369QFAKpU2bNhwzpw52FcUIZROTHTMuFFjAeC/e/+NGzV2+tRf1q1ee/rEKc8OnQ7tP8hXGhHh4X179F61fOWpkyf79e67d9cevv/H+TPnenbtfuzfo0cO/dOpbYdbN24BgFqtXrxw8f6/9/84aMjN67eMu3XIEPCpbOgTQsi7d+8+fvx47dq1nj17SiSSBw8e+Pj4JCUl2djYGDs6hFDRov8dcu/u3W07d7Ru2xoAXr96PWLIsB8G9BOLxXNmzhk6/Me+/X6gKCo5OXn44B/rutarXLnKmpWrD5/4197eHgAeP3y8dNGSNu3aAMDHmNig94HHz5zk73dFJQy2baBPKIoaNWqUmZkZTX/6q6Bp2tPTE1MNhFA2atSs2bJ1S366eo3qtIBKSUkND49ITEzo3bcPPwi6lZXVmPHjzpw8zTLMtBm/8KkGAJR2sI8ID+OnlUrFz5MnYqpRUmHbBkIIofxzdHTU/0QRCoVCoRAAAt6+DXj7zqN9R/3bFAplBZcKdqXsmrdofvjQ4devXgmFoiSZjPvcRuLg6GRji79tSizMNhBCCBUwgVDYtFmzLTu2pi0UCoXv3r773+SpE6dMnjJtqqWVpVyecvf2bX4uRVFF5GlwyBAw20AIIVTAatSo8SE0VCQSmZiY8CWXL14ODQlNTZH37NPLq7sXXxj3MYjNMHQYKpGw3wZCCKEscRyXIk+Rp5EiT8k4umg6Do4ONWrWWPHHcv45LFFRUWtXrWnWopm1ra3vI1++MDo6+q8df3Icl3H0MFTyYNsGQgihzAkEAgdHx6EDB6ctlEqlK9eurlipIgCYmpmWcy6Xdm7VatUEAgFFUSvXrvaeOaeXVw9aQLMMO3HKpLr16lZwcbl/917XTp5mZqZm5hazvedwHLt6xarpv82oVLkSXkkpwSgcTQGlc+7cue7du1tZWclkMjz5ESrZEhISSpUqBQB7D+z37OpZsAvnOE4ul2vUGmtra4lUoi9MSkpiGdbG1kYoFPLfQdlXNc0bNw0OCp43b97ChQsLNkJUaLBtAyGEkEHQNG1tbZ2xMO3T7fEnzXcC+20ghBBCyLAw20AIIYSQYeGVlCInPj5+586d//zzj1qtNkoAycnJJiYmDMNUq1bNKAEIhcL27dtPmjSpRo0a2MqKkEFJJBKKoggh0VHRxo4lc0qlUqVUAYBUKjV2LCj/sJdo0fLs2TN3d3eNRmPsQIyPoqgdO3aMGTMGEw6EDIcQUqNGjYCAgFq1a5+5eM7c3NzYEX2FEHLowKHpU6cBwP3795s1a2bsiFA+YbZRhMTHx1eoUEGpVNI0XbVKTQtLK2NHZByMTufv/1yr01IUdf369bZt2xo7IoRKsqNHjw4YMIAQ0snDY8kfSytUrGDsiD7RarTHjx7znj1HoVC4uLi8f/+eHxYdFUeYbRQhy5YtmzNnDk0LZvxvYY+ug7/b3/SEEP+3ftNnjUpJSa5atWpAQICxI0KoJCOEeHp6XrlyBQCEQlGlypWlUuM/Go0QiIqKTIiPBwCRSOTn51e7dm1jB4XyD7ONooIQ4u7u/ujRo8qVqu/ZcU4g+N5T+JXrZp8+e5iiqBxHLUQIfSOWZX/77bf169cXwdPNxcXl7NmzderUMXYg6Jt8719pRQrfLdTe3gFTDQBwdCgLAJgNI1QIBALB6tWrf/311zt37ly9evUbu6j7+PiYm5t/ex+LBg0auLu7N27cWP+MWVR84bcaQgghoCjK0dGxX79+/fr1+5blEELKlCljZWW1d+/e7/ZyMMoIE0aEEEIFxt/fPzY29smTJ5GRkcaOBRUhmG2UNGs3/f7jaA95iixdOcPq/jdz2NwFP2X/8fdB/knJCfz0omXTxvzcQ6VWpnuPTqf9aXKfZat/y35RG7YufBf4Ii+xI4SKN0LI4sWLCSGEkNWrVxs7HFSEYLZR0sjlSR/jou/9dy1d+dt3L4KC38iSErL/+Mkz+4JC3vDTScmJ4RGhT/zupXvPk2f3I6M+JCcn5hBJShLD6PISO0KoeEtOTj558iQ/vXv3bnyUPNLDbKME6tih29UbZ9P2LSeEnL90tJtXni/HdurY3ef6mbQlhJBzF4706D6gAAJFCJUshw8f1mq1/HRKSsrVq1eNGw8qOjDbKIGqV62TkpIcHRuuL0lVyF/5P23RtD3/khDyxO/e/2b+2G9I66GjO69YO1upSlWqFfOXTP7v4e3tO1cvWDKVf2cD12Yhoe8TZXH6RcXFR0dGfWjo2px/KUuK3/bX8rRr33dgS1DwG8NuIUKo6OE4bvbs2fr7RwQCwcyZM/G2MsTDbKMEEgpFnTr0uHTluL7k1p1LDd2am5t/Gpw0JjZ8258rZkxd/O+BW7u2npaIxSdO75OKpWNHTq9T27V3r8FjRv6Pf6dYJGnTsvPVG2f1i7p242yrFp3E4k+D/2i1Gv+3z9KuPSDwtTwlybBbiBAqeh49ejR06NADBw7wL2/fvt2kSZPAwEDjRoWKCMw2SqaO7Xrcueej0aoBgOPYC1eOeXl+uYwSHRvZu+eQsmVcKIqSSEyaubd/8+YlTQvKlXWxMLd0sC9TrqyL/s1dPH64euMs3wODZRmfG2c7d+hV6BuEECrq6tevv3Hjxho1avAva9WqtWfPHmdnZ+NGhYoIHG+jZLKxLlXeudLL176N3FoGBr+hAKpUqhkWEcTPbVC/GVe3SWjY+4jI0I8fox89uQ1clnmno31ZczPzoJA31avWe/na186mdNkyLrLk+MLaFIRQ8WBiYpKuhKIofHAr4mHbRonl2bnPhcvHCCEXLx/z8uxHUV+Odc+nLr8AACAASURBVMiHgOmzh1+/eV6n1TVt0rp3j6HZLIemBZ079rpw+Tgh5OyFIz26D8p+xB6OFLmRjxFCCBkXZhsllmu9pkHBb6Njwx4/vd+iWce0s3b/vX7gD2NGDZvWrk3Xsk4uLMtmvyj3xu2ePL0f8zE84P3rJg1apZvLskzal4myjwUSP0IIoRIDs40Sy0Rq1qxJ25Vr57jWb2JpYZN2llKlZBgd31dcpVKcv3RU32+comiVKv1wXlaWNvXqNlqxZnarlp3E4q/aRc3NLWNjo2VJny6svPT3/RAWbKhNQgghVDxhv40Si6KoTh16Hjm2d9yoGemuffzQe9j6TQv9nj+iBYLAoNe9ug/ZtHXptZvnOrTt5lqvyeZty06cOrh2xd9pF9XFo++UX4ZMm7Qg3aLMTC26ew2cPmt408ZttVpNSmqSR6eehbSFCCGEigl84nxRQQhxdXV98eJFM/fWq//4O+cPZEGpTBUKRfwdqoSQlJRkcwtLmqIBgGVZlUphbm5JCElI/Pj8xSOpiWnd2g0tzK1SFXKhQGRiYkoIUShTOZa1tLRWKFLEYolIJAYAjnCpKXILCys+22AYnUajMTMzBwCO40LD3gcEvC5XrkKNavWS5IlmJuYmJmZKpUIslgiF+cxo9x3avOOvNYCPgUWoWPHz82vQoAEAyGQya2trY4eDigps2yhpTE3N9dMURVlafjnbBQKBubklX17KzqFDu+76WRafh+KgKMrczIKfNvs8AQA0RaddlFAoEgpFn2bRdCWX6pVcqvMvS9k6fI7ErOA2CyGEUDGG/TYQQgghZFiYbRQh/Ii/8hQ5XjsAALk82dghIIQQKhiYbRQVFEV16NABAAID3waFvPnOE45Uhfzuf1cBwM7OztixIIQQ+lbYb6MIGTVq1Lp16zQa9ZRfhvTsPsjK8jv9otVolD7Xz4aHhwLAokWLjB0OQgihb4X3pBQhhJDZs2evWLHC2IEUFU2aNLl7965IJDJ2IAih3MJ7UlCmMNsoWgghFy9enDVrlr+/f8YhPinquzheFEU5OTlNmzbtl19+EQgExg4HoZKGEOLv7//XX389ffpUpVIV7MJjY2PDwsIAoGbNmubm5jm+P0/MzMwaNmw4duzYatWqZf8IBVTUfBffXsUOIUSn02U8NDt37hw9enQJ+ALWaDTnz5/v06dPpnMpihIIBCVgMxEqgnQ6Xbdu3a5cuWLsQPKPoqiRI0du374dGz6LEcw2ig2WZUuXLv3u3bvSpUsbO5Zv9fTp0+HDh7948QJ/nSBUmDiO8/DwuHr1KgDY2Fi1buVqb1/K2EHlQVRk7J17z+XyFADo3bv38ePHsQ4pLrCXaLFx7949mUy2Y8cOb29vY8fyTQghixcv9vf3j4iIcHZ2NnY4CH1Hjh8/zqcaAwd4bN/yPwuL4vc4+Lj4lNFjV56/cOfUqVMPHjxo1qyZsSNCuYJtG8UDIaR169Z37941NzeXyWT5Hg68KEhOTrazs2NZdtKkSZs2bTJ2OAh9L/SPR6hfr/rtGxvMzYtfqsFLTEx1azwmIiKmf//+hw8fxuaNYgHH2ygePn78+N9//wGAQqG4deuWscP5Jlu2bOE7wO7Zs6fAe6ghhLLCMMzLly8BoH+/9sU31QAAW1vzHt1bAsD169fxB3NxgdlG8bBy5Ur+G5q/S7b4nmAMw6xbt46fVigUly9fNm48CH0/9H3PS5e2NXYs36qUnRkAaDQaYweCcguzjWJAq9Xu2LFD//LJkyf8DWbF0b179xISEvQvp06dWnwzJ4QQQrmE2UYxcPHiRZZlbWxsAMDc3Nza2nr9+vXGDio/CCELFixwdHTk71uzt7ePjo5++/atseNCCKUXERH/976r3vP/2rTl1MtXH/BXAfpGmG0UdYSQFy9ehIeHd+nSBQCcnZ2joqKsra21Wq2xQ8uzhISEYcOGBQcHm5iYAMDOnTuDg4MvXLhg7LgQQl+wLLdp82mvHrPDI2Nr16oIQE2YuPbnSRtVqkKqc7RaZtac3Wo1UzirQ4UDs41iwNvbu1SpUvr7UCQSybx584rjsDZ2dnYjR44Ui8X8S5FIVK5cuV9++cW4USGE0jpw6MbxU7ev+6z1nj1k0IAOkyf2vHZlTXRMwrLlhwunhYNluUtXfFmWK4R1oUKD2UZRR1FUxvu7Mi0s+jKNuThuCEIlVWqq5o9l+zZvmGpnZ6EvlEiEy//46ez5+wzz6XEKycnKy1d8T5y6Exkl06cgCoWa47iY2OQjR69fu/EsbVsIISQ6Jun4iVtXfJ4ky5X6cq2WuXvP/8i/1x8+eqfTMQCg0zFyuYJlWXmKQq0ufi24KCuYbSCEEPrk/gN/BwfbOrXLpyuvUb2sn+92/nkC1288b9VuyqnTdx88eN27r/eylUf4doiOnr9t2HRh3Pi1L14Ebd9xplXbqXFxyQDAcWTj5tNdvH7974H/mbP3WrWZcv+/twAQFS3z9Jq1e8/5Fy+DFi/d98OARUqV9vrNl55eM4KDQ7t4zdi6/VSh7wBkKMV4kCiEEEIFKyAgvGHDGlnNpWkqLj5l4pT1B/f97uZakaIomUzh1WOWW/2qXTwbAoGA96HHjvwuFgs5jowYtfLfY7cmTuhx/caLQ/9cvXF1vY2NGQDcvPVq6i8b7t3avHHTiV49W02e2IOiKIbhuvea+/hxgEcnt9YttzVrNe3erfVmZuJC3HRkWNi2gRBC6JPkZLmJSXYDf50+c69tG7cGbpX4a6A2NmazZw79c9c5fu7Y0V5isRAAaJpq1qzmhw+xALBr7/mZvw3hUw0AaN2q9tzZo1iO69ih0YB+bfnl0DSYmZlGRkYbdOuQEWHbRj5xHFfIt4QxDMP3DM34JHqDoj4rzJUihIzCxcX5/IV7GcsJITdv+TVuVOvly0A31yppZ9WrVzk6RgYAQEHp0jb6colECAAMw/q/Dqq/YJS+nKapXj0aA0Dr1rUvXvS9fddPJtNIJILQUEw1SjLMNvIsPDzc29v76tWrhXwPqlKpBICQkBBHR8fCXK9QKHR3d583b56rqyvmHAiVbA0bVFm0eI9KpTMx+equt0SZYviolc98d5mYiNVqXdpZKlV2A3pSFCWRitWaLx8hhISHxzk52Y4YtbpSRcdfpg0qW8YaAMZN2FCgm4KKFsw28ub27dsdOnRgGKPdCK7T6dRqdSGv9NSpU6dPn54zZ87ixYsx4UCoBKtWtUyNmhV27700cUL3tOVH/r3VuHFNa2vTFi1ct+84NfnnHhT9qSq4cfNZ3ToVslqgQEC3bOF2+crj2rU+PfBZo2G69fr9zMk/Hjx8tm/PIaGQBgCW5cLDYwFqGWzLkJFhtpEHcXFxnTt3ZhhGKBQ2bdXMtlSxf9ZAbigViv9u/adUKJYtW9a9e/emTZsaOyKEkKHQNLVlw5TuvebodOyIYZ2src2USs3JU/c3bj569tQymqY6d2ywZu2R9ZtOjR/nJRYL791/s279kdMn/8hmmRPH9+jWa7ara5XWLeuo1dolyw517NCwrJM1y1K377xu26aOUqn9a/elyKi4hIRUhuEoilKp1c9fBtWoVtbW1rLQth0ZFGYbebBr1y6NRkNR1KINSzr17vyd/MonhAS+DhzXd3SKPGXu3Lk+Pj7fyYYj9H0qV87u0oWVfyw/4OE1KzU1WSyS1qpV8eypZVWrOAGARCI8fOj3mbN3uLe8wHFs2TKOe/fMrlmjHAA0aliN76vBc3KyY3QEACpXdjzwt/dc7z8nT4kRCIVtWrmuWDZOJBZsWj915uztCkWKjY1t/35tt23+ZcWqA54ejatUKfvb9IGLFu/u1bPl+HE9jbUfUMGicPT73Gvfvv2NGzcqVq747+3j+lbE78SsMTOvnr8ilUqVSuU3Zhscx9nY2Mjl8vPnz3ft2rWgIkQIZU+pVJqZmQHAzu1zR4/slP2bCSEsy7EsS9O0UChId9YTQnQ6lhAiEgnp3FWGHEd0OoaiKVGapbEsxzCMQCAQCGiKogghuaxeFi7es2jJ3xYWFklJSTSNN1cWA9i2kQccxwGApbXV95ZqAIBYKgaAwu8yghAyCoqihEKBUCjIai5/p2vu0TQlkaR/3oJAQAsEXwbVwHbTEgxTQoQQQggZFrZtFAaWYVUqFQWU1EQqyOK3AkIIIVRSYduGYRFCLh+/NKn/z+N6jfmp79hxvcacPnQ6N8NzPX/4bNrQKRsXbdSqteEh4XyhWqmeNnTK5iWbMr4/Jjz6p75jLx7Dp7cjhDInkUj4R0kHvA8zdizfhBASGhoPABYWFjm+GRURmG0Y1o3zN04eOrlg46IDPof2XTqwYOOikweOH/nzcI4fXL9g3fCfR4yYMiI6PHrV7BV8Icdxr5+9vnDsXMLHhHTvv3zqsr/f67iYuILfBoRQiUDTdPPmzQHg0D+Xo6ISjR1O/r0LiDx95jYAdO3aFbuIFhd4nAzr0okLIyaNdCjnQNM0TdPOlZy9V/1+aOcBvsNpNmKiY6rXq2Fpnf5ec5qiGjVrcufKnbSFWo32yunLXXp5FXD0CKEShKKo1atX0zQdFfWxV1/vx76BGi2j07HF6J9ao7t153WvPnOS5SlCoXDOnDnG3qkot7DfhmFpNVqd9qtRfl2qVVy9ex0/rVap92/dd/PSDY1a07h542GTRjg5OwW/DT68+5A8Wb7695Wl7EuHh4YHBQT+8dsSrx+6Va1VDQC6/uC1b+veHoN76JP6F49flLIv5VjeiX9JCHn/+v3u9X+9eeVvYWHZvmuHHycNY3XsX+t29h7St6xLWf49x/Ycdani0rh1k8LbHQgho2rUqNGkSZM2btz45Kl/81bjypZ1EovT3ydSlKnVGv2T25YvX16xYkXjxoNyD7MNw/Lo5bnSe3lSosytWQPHso5CkVAoEtZwrQEALMN6j5/jXKn8juN/SkykV0/7TB06Zdu/221L23bw6uhzxqeNZ1sra6uwoLDI0IgOXh3LlC/DL7NK7aparfbD+9CK1SvxJScPnOjzY9+Q96H8y9jI2IVT53uvmVejfo2UpJQ/flt6av/JfqP6V6lRdcn0RWv2rTM1M7125urVsz4b/9lsjL2CEDIOiqLWrVtXrVq1X375RavVhodHGjui/DAxMdm9e/eAAQOMHQjKA8w2DMuzbxfrUjanD53atnKrialJ/cb1u/bt1qB5A1pAP73/NDU1ddLcyfxdKp59PaPCIo/u/Xf8zAlN27iLxeLGLZqYmpva2NpePePTtI07AChTlQAgEAo8+3Y5d+Tc5HlTACAhNiHwzft56+brs41A/8Aufb1qutYEAEsby279ul86daHfqP6de3u8fPLyrzV/9hnWd8eqbesPbJJIJcbaMwgho6BpeuLEicOHD793796dO3dyvKqbD/Hx8RKJJNMunLGxsQ4ODhnL5XK5VCoVi8UZZ6UllUrbtGnTtGlTqVRaMLGiwoLZhmFRNNWsXbNm7ZpxHBf8Nvjh7Qerfl9RtUbVhZsX379xt3MPD/0NsRRFtfFsu2LWstwstlMPj5/6jB47Y5zUVHr55KXWndtITL7kDS07t2zesXlCXEJ8dFxMZMzlk5cYjgEAmqYn/z5lYv8JNy/e+GXhDP6SCkLoO2Rubu7h4eHh4WGIhd+8edPOzq5u3brpygkhR44cGThwYMaPhISElCtXTiQqTpd1UJ5gL1EDUilVL3yf82PD0zRdpVaVIeOH/nV6d1BA0OO7j1PkqSZmpmnfb2VjBSRXQ+lZ2VpWrVXd956vTqfzOePTrf9XT2uMDo+eNWbmnnW7ff/zNbMwb+PRTj9LLBFXqlYpRS53qeJSAFuIEEJfI4RMmTJlxYoVGR+LERIScvnyZY0m/RPqCSEvX76MiIgorBiREWC2YUCJcYlzxs3WarVpCy2sLKrUqJoQm+BSucKHwJC0s0ICgqVmub200fUHr7OHz7zyfWVuae5cyTntrE1LNnb9oev0pTOG/DS0UctGpmYmfDkh5PyRc7IE2ezl3r9Pnstfl0EIoQIUGRn5+vXrw4cPp6amppt16tQphmHu37+frjwxMVGtVr9+/Rqf21WCYbZhQPZODqUcS188ejFt4ceojy+fPK/doHa7rh18zvjEx8Tz5Tqt7uCOA14/dEu/FAoYHZNx4W7ublFhkX9v3ttjQA9a8NVxTIiLt7C25J84oNPpLp28xJeHvAvZv23fr0tntfVq69rYdcPC9YTDcxshVJC2b9/OcRzLsvv27Utbnpyc/OLFCwA4fvx42qyCEPLmzRtCiEKhkMvlhR0uKizYb8OARGLh/PULvH+ec//63QbNGpqYm0SGRN66dLP/qEEVqlSgKGrklFFThkzy6tdNaiK9delW2QplO/ZM/2BGO3u7uNiPvwyfNmjs4NqudfTlUlNpy46tTh8+tazT8nQf6T6g54pZy/r82JemqYe3Hrbo0Grf1r3Xzlzdu3nPb0tnOZS1B4DxM3+eNnTK+X/Pew3wwichIYQKhFar3bhxIz/9xx9/jB8/XiD41DXt9u3b/DDKcrk8PDy8fPnyfLlOp4uO/nRT68uXL1u2bFnoUaPCgE+cz4O2bdveunWrfkPXXef25P5TGrXmzbM3b168VipVzhWcXd3d7J3s9XPDgsIe3n6gVqkbuDes6VpTP4RG4JvAStUq8Y0WKckpkWGRTmUdLawsgwOCXKpW5IcfTklOSUpMcq746TJKwscEoMCutB3hSMCrdw/vPDQ1M23WtnmZCmU+BH7gOI6mKZeqX25PlyXI5Eny8pXK5ybbmDfp9wvHzwEAx3H4xHmEUKbOnj3bo0cPfpqiqLt37/Kjl7Is+/PPPyuVn67eNmrUaMqUKXxN4u/v//LlS76cpumePXvmeGcKKo6wbcPgJFKJq7urq7trpnPLVy5fvnL5jOVValbRT1tYWdSoW+NzedW05RZWX+4xs7O34ycomqper0b1ejX0s1yqumRchY2djY2dTe43BCGEskEImTt3btqXy5cvP336NEVRAQEB+lQDAJ49e6ZSqUxNTQkh796905dzHBcaGlqtWrVCjRsVCuy3gRBCqAAEBQVptdrJkyfzL9etW+fn55eYmEgIOXHiRNeuXa2trQHAzc3NxcXl3r17ABAfHy+VSl1cXPiP1K5d+927d4YYAgQZHWYbecBf5lAqlN/h5Se+pyreDY8QygpFUf7+/iNHjuRfjhgxIigoiGEYhmHGjx8/aNAgKysrAKhVq9a8efOqVq1KCBGJRJ6envoByGvXru3h4cEwmfSLR8UdZht50KpVKwAICgh8ePOhsWMpVB8CP/jeewQAbm5uxo4FIVREVa5cOd0TWcVisYODg0gksrOzS1tOUZSLiwtFUdbW1un6gYnFYuy3USJhv408GD169NKlS1mWnTl2Rtsu7cu7ZNLfouSRJSZeOXMlMSGRoqiFCxfiDSwIoWyEhYXxE7GxsfylEz1+BI6YmJh0H9Hf+MqyLN8FHpU8eFzzwNnZ+eDBg0OGDFEoFOePnTV2OIWKoqixY8caaJxjhL4H5GvGDsdQFAqFfkKn++oJ2AzDEELUanW6crVazd8cq9VqS/Ce+RbUZ+laj4oRzDbygKKo/v3716lTZ8qUKXfu3Pl+zgoXF5e1a9d269YNGzYQyh+WZVmWZRiG4ziO40pw7aEfmFylUqW9DwUA+D4cWq02XblareY/pVQqsXNYpvg8g6ZpkUgkEAiKY86B2UbeUBRVu3bta9eusSxb+B2n9+/fP3jwYP1oOYWDoihs20Qo3wghLMvqdDqtVqvVavmqowQ3b6jVan5CqVSmpKSknaXVanU6nVqtTleuUCj4T6WkpGC2kZG+VUMgEPD9Wvico3j9/MNvkXwSCASF/K2v0+mmT5/u5eWV6fOaEUJFE8uyWq1WLpfHxMQkJyfzlwxKaqoBAFFRUfxEaGhoup/gSUlJKSkpMTExacfYAACFQsE/nj4oKKh4fYMWGqFQaGVlZWVlJZVKWZYlhEgkkkL+DvpGmG0UG3fv3k1KSlq7du2KFSuMHQtCKFc4jtPpdOHh4e/evUv3gMaSSt9vQy6Xy2SytLPUajV/GSVdOQBIpVIASEpKKpwgi6P4+HgTE5OKFStaWlryTR3FqxsHZhvFAyFk9uzZALBp06alS5fipQ2EigWWZcPDw1+9esU3ZojFkmL09ZA/UqkpP2FiYiqVmqSdJZFIdTpGKjVJV45yQIBhdQzDKJXKgICA6tWrCwQCkUgkFAqL0Z8TfmkVD2FhYb6+vgCgVqvPnDnTp08fY0eEEMoBIUSlUr19+5YQIhQKq1apXbqUA00Xp9bvfBCA6TJYCgCtW3Z2dHRMO+vVyzeypMQmjZu7N2lrnOCKLZ1OGxYeFB4RyjeVmZub8z2OCSHF5dpTsUmLvnMbNmzQX+5dsWJFCb7oi1CJQQiJjIzkL6BUr1bHwd6JpmkAUrL/EdDXThnnQtaz8F+6XfQVkUhcuWKNMk7OACCXy5VKZbG7swnbNooBtVq9Y8cO/UtfX9/g4ODKlSsbMSSEUDYIIRzHsSwbFxfHcZxUamJrU/o7efwHy7GfJjLcuMcRjt8z38muyB+Koj79D6h0M8qWKR8VHU4ISU1NtbOz4+9sKi5tG5htFAPnz58HgNKlS8fFxVlZWYlEohUrVuzcudPYcSGEvsJ/lTIMww+todPpUlJSVCqVRCJVq1XGjq6Q6LdUpVaqVF+Nq6HT6RidTqNRpStHn1EUTdE0LaBpgUBAUTSfeehni8USiqL4P7Pi1bABmG0UfYSQkJCQqKioyZMn79+/38nJ6cWLF9u3b9dqtfg0AYSKDkKITqfTaDQqlYq/+UKn0yUmJiYlJQHQsu/mbovk5CT9RLreoEqFgh9s4/vZG7lHUUABRdG0UCAQiURisVgkEguFwkwaOYonzDaKgRkzZoC+ZY2iRCLR5MmTi11ii1AJRgjRarUKhSI5OTk6Ojo2Nlaj0eh0unfv3qWkpFhZySzMbIwdYyEJC/vATwQHBylSFWlnqdQqhmHiE+KCgwKNEVpRRoCiaIHA3MzMxMRUIhZLTUxMTc2kEqlIJCoZCQdmG0VdVtfkisu1OoS+BwzDqFSqZ8+eXb58OTw8nO+XQAiJj49Xq9Xm5hZKxfdy7SDwcybx6PEDO1vbtLPEIpFYJEpOkt3/77YxQisGKIp2cHCsXr2mnV0pjuWoz6M5l4AKH7MNhBD6JhzHaTSa69evHz9+nL93DKH8IYSLiYmKi//YwK2xs3N5oVAoFAoFAgFFkeLevIHZBkIIfROO496/f3/q1CmWZUUicdMmrSpVqC4UiglwyckyrUYrEont7L6XBw48sr57+vRJAGjftruTQ1ljh1OcaDSqsIig4JC3LMM8f/7EwsJSIpVKpFKRSFyMRvHKCmYbCCH0TRiGuXjxolarFQqFgweMreRSnS8nhEu2TtbptAJaaG5qZdwgC42NdSl+onQpB4fSZYwbTBGWeUOFc7nKDvZl7z+8qtVqQ0KDbG1tWYbhCEcIFPdrKZht5EpqauqJEyeuXLlixGbS69evA0BYWNigQYOMFQMAuLq6Dho0yNnZuQRcR0ToG/H3IioUCn9/fwCoV7eRS4UqHGH1c4EjhANCEZZ8LyNMcJ87sHMc9/1sdV5R+n7//Ks05VUq1QoK9o/9GBkdHclxDT/f7IpXUko6QsiVK1d69OhRRJ6opFAoDh8+bMQADh8+PGfOnIULF86dOxcTDvTdYllWP6hGRESESqUCACfHcmnH1SCEqNQqHaMT0AKa+l4qW5320xPnNRq1GsfVyAxF8eNqCAS04NPj1eDLuBoU0I4OzrEfIzVqNcsyBEjWQ4wWJ9/LCZBvwcHB3bt31+l0AODk6GRj+b00h2ZKo9UGhQZzHDd//nw3NzcvLy9jR4RQYeM4TqvVqlQqpVLJD60RHh7OP/hULpfHxX/88lZCUlJTdTodTQtMTdRGi7hwJX0ebyNRliASSowbTNFEUcA/VU0iloolYpFQRAsENND6hIN/7iYB4LgSkWgAAGYbOZo2bZpOp5OIJTsXru7fwYv+7n/N33/l13/GuLiE+NGjR0dFRZWAvksI5R7HcSqVSi6XJyQkJCUlpaamqlSqyMjI1NRUAIiPjzM3i9S/mRBQKBUMy9AULRWbGi/qQpWYmMBPxMXFckzJ+bIsKBQFFEULhAKxRGoqNTU3NzczNZdKpCCgSvb3C2YbObh8+TIAdHBvNaCDF144AIDmddwmDBi+aOua2NhYmUxmZ2dn7IgQKiSEELVaLZPJ/Pz8jhw54uvrK5fLCSEsy6akpABAUGCwVCpN+xGOf5IFAEV9L3m5UvVpRK/NW1byv9FROhKJpHq1Oo0bt3Ao7aRRW7E2LFAglZhQAqBK7qNS8U8hB/w1FAcbO0w19CqWK89P4NAC6LvCMIxCodi3b9/y5cv59CKdGHV04UdVZEVGhRs7hKIr4P1bn2vnB/Qb1rRxK4qmhUKhQCCkaFpQ/MfVyApmGyjPMPFC3yF+bPLjx4/Pnz+fYRiBQFijem1Hx3JUCf1uQAZCgMTERLx990qtVu0/+KdAIGzm3kYilUolJmKhiAjokvr3hNkGQgjljOO4hISEJUuWMAxjYWHpPWt186btaVpg7LhQ8cMR7vGT24v+mJ6UlHji1KHatepbWlrpGB1HuBJ7HQVK7iWiQpOiVNx/7hubGJ9xVnJqyv3nvnJFal6XqVSr3obm6qlFd5/7BkaG5XX52QiOCr/7/HEBLhChkoEQcu3atcjISACYNH52C/eOmGqg/KEpummjttMm/Q4ASUmyN29fMjqGZVlCAHJ3tyv/tD/DRlnQMNv4Vm/DQ9qN6bdk16aMszYc3t1uTL+Xwe/yuszQ2Ki521bn+DalRr3xyN5ypfM5IvK+88cfv3mRrtDRrvTGI3sVacYMQAgBACHk5cuXXuOjNgAAIABJREFUAGBmZtG6pSdeT0TfqG2rrqamZgAQFh7CcSwhJPdP9j58+HC7du0uXrxoyAALGGYbBcDJwdHnwW258qs2DB3LHPU5V8mlouHWe+zahXaN3KXifN7R7vfudURcbLpCU4m0bQP3Iz5nvzk6hEoUQgjfZ1woFEok0hzfj1D2RCKxnV0pAFCr8vPr7sOHD4MGDTLuYI95gtlGAbCysHKv1/DS/VtpC30e3atavmKlshX0JTpG9/D18yOXz9x97qvV6fhCQsjHpITzd6+fu3MtXp6UaW6rY5i34SFypSJtIcuxhy+f6dGmM/+SIyQ0JvLI5TPXn/ynb5ngOE6pVnEc9z7iw5HLZx68fq5jGX6lckWqRqtVqlTy1PTNcX07dj1w/gT/yGyEkF7uf3oiZFAVK1YUiUQajWbixIkajcbY4eQKZhsFY1j3vgcunGA/f0MTQvacOjy271B9c2uCPKnXjHFbj/79Oihg0+E93aaNTEqVA8DBK2d6TBt1+8mDa4/uev485L9XT9MtWa3VTFu3aPepwxKRKG15VHycQqV0sLYDAB3DeG9bNXj2pOcB/kevnG0ztt9D/+cAEPoxaui8ab9u/GP+9tWvgwJW/b2172/jE+RJCrV6wMwJp69fXLRtdY9pI9Ot0cHaTiAUhMREGGA/IYTygOXYD+GB12+e9316V54iy3e6o9PpGJbJ00e0Wg2b4SMMo1OplPp/DKMrkAyMZdm0i1WplLqCWLJWqympd+kPGzbM29uboqikpCT+GT1FH96TUjCa1nKNT0r8EBtZyckZAEJjot6GBnVo2GzLkb38G/48+U8L10azh/9MURRHuBELZlzzvd+tRYflf206u3FvRadyAHD/1dMF29de2XxAv9gEefJPS2e513X73+Axgq9H7XzzIahq+YpCgQAADl054x8U4LPtkJnUBABuPH3w0+KZd/ecAIAnr593adFu9dS5FEWxHLds7xbvrau2zlxycfP+/61d1LpRs96tO2XcHNeqtV8Hv69cpryBdhdCKEcJso8r184BAuWdK6s1yvWbF7Vv02X40MkCQZ7r7f3/bHZ2rtipXa/cf2TF2lltW3dp1bxz2sLjp/7+++DWUrb2AECAmJqalneuNGTgeJfyVbNfGsPofK6f7tShlzCz4B/63py/eKqTQzn+JQEQCOl2rbsMHTghHxur9/uiiQP7j3ar1yyvH4yLi34f9Ka5e/t8r7oQtGzZkqZplmU/fPjg5uZm7HByhtlGwZCIxD3bdv7n0um5IycBwLFr53/o6CVO0xrR3LVRpTLlPz31DygzE9PI6CgBTVlZWPq+eeFs7yQUCBrXrLds0kz9R8Jio/vPHD9lyOhBHbtn7JL2NiigtM2ncTx3n/pn1f9+51MNAGjr1rRmpao+D+/Wr15LKpEO69qH/7iApn/qO7TVqN5qndYk294epWztPkTiyDwIGQ0hZOPWxc2atO3ZbQh//spTkn6dO8reoUw3zwFGDKyLR5/J4735CJXK1EdP7sycO3b+3PW1arhm8ymWZU6c3te+bbdMsw0AcKvfZOXS3fw0ISRB9nHxH/+zs7M3ysbGfIy4fvt8Ec829M8kr1u3rrFjyRW8klJgfujodfrGZR3LaBndUZ+zAz17pJ3bvE6D5+/9Z21aPnrpzMlrFrwJeQ8AQoFwh/fyk9cvdZgwaNLKeSdvXq5V8dNPhMCwkKHeU+ysbfzevsq0PVGt05pLTQBApdWERUbUdKmsn0VRVNO6DYIjwwCgQllniUisn2VnYSUgVII8OfttEQmFKRn6cyCECg3D6EJC37Vr3VX/S8PSwnrM8GmPfe/qLzHoGG1YeHDsxyiO++p6gVKVGhoWGPsxMl05jxAiT5GFhgWmpqavB/gPpqQm5SZCiqLMzCzate46ZaL3pm1L9FGxLBMdEx4RGapj8vncbIqiStk6DOg35u59HwBITIzTaNUsx8bERuh0WgBgGF1k1Ieo6LCM13pSFfLQsECFIg/Vl0qtDA0LTJTFFaN+OSEhIdu2bQOAMmXKuLi4GDucXMG2jQJTuUx5J3uH+y+eMhzraGdfNU3/UACYtGqepanZxIEjK9g7AYD39jV8eZ1K1Q4t2ajWap4HvDl67fzOYwcvbNoHAFqtdtf8VaWsbTtPGHLxv5tezdulW51IINRwagAQCgRCoVCj01mYfJmbokixNLcEAPXXHYhYjmM4TpTTwwuUapWVhUW+dgNCqABQFM1xJDQssH7dJvrCBm4t6tVtAgCEEF+/u1t3rrC2tAWKEELm/LrKvrQTIdyZC/+cv3TMwsxarVVKRJJFv28yN//y5GqGYXbtW+v79J6VhV1ScnyHdt0G/jCWv7x74vS+S1dOWFnasZyuoVuz3PcTb9Kw9cYtSz7GR9mXKhMeGbx81SyxRELTAoVCPmbkL43cWj7wvblm3bz4hI9DRnTq6TX4xyETcrNYczNz/iagvQc3Nndvd+zkPo7jZs1YLpMlrFrnbWFhBQAajWryBO+a1esDAMex/xzdeePWRSsrO5bVtnDvwGcParVy0bJpC7w3iUWfGnT/3L22Th3XZk3aE8Kdu3jk2Ml9drb2OkZTupTTr9OW/H1o88VLJxRKxfPnj3+ftbZe3Ua53A+FRq1WL1q0SC6XUxQ1ffp0gaB4jPuC2UZBGtyl96FLJ9UazYge/dM+HDVVrbp676b/yZtioQgACCEfoiLsrWwCwkNmbfjj6ModUrGkaR3XxrXrd540NDAiFCiqVpXqVcu5AMCW2UvHLJrhWrVW2a/H1ajkXOHG4/sAIBIIXWvWueF7v1/7rvwsHctce3Rv8c+/AsDboIAPsVEVHMrws0JjIk1MTewsLLPfkJi4j3WqVC+o3YIQyiuhUDhi6KT5S6a0adnZzdW9Vg1XOzsHAS0QiAUAEBjsv3HL4pVLdzk5OgPApasnVq6dvXLp7vdBr3yun9285rBYLCGE/PX3mpNnD/w4aKJ+sSfP/p2QELdt/TGhUKTRqpeumH791rkObbvfve9z687lDasPmplacIQ7dGT7i1e+7f/P3nmHR1G0AXy2Xk0ul15JhySAVOkdkd6kgwiCgFIsCHalKKIoFqQpoIAohN47SEfphBYICaTXS67fbZ3vjwnHEQIkIZBcvv09PDx7s3uz895cbt595y0depZlqBRFh4VF3k5OdFNpPp351ruTvmjcsDWGYWnpyR9+Pv7br35r+WLHv/7YP3nqkIU/rpfRZQoeFgR+/6FtcbHFuzPxG1dMfvOzyPDYvILs2V+/N+PTn2pH1QMAJN68PPPrdxf/tN5T67Pv0JaLl88s+mm9jJaLorB81Q9JydcBABDCAt0Dof4GY5HdbgMAHD6688Ch7Yt/Xq9SuomiuHjZ3FV/LXzzjQ9bt+i0bde6zz6YX5ahPmcEQVyyZElSUhIA4OWXX548eXJVj6isSDsplUn3lu2Pnvv334QL3Vt1cG6XUZRcrth/5oQgihbG9vvODTfv3i40GgK8/fL0RZv+2cvynCAKZ69fzsnP9fXycX5vs7gXxr0yYtI3nzHcA2bJuPDoa8k3URTM+69N+GrZz+dvXhVE0crYvly+QKNSt6rXCADg5+M749cfMgtyAQA5hfnvfj9zwsCRaOtULpNdvHHlblY6AIAX+MCuTfefPYE6T0xNrhv2BLcvCQmJZ0rnDn0W/Rjv7x+yY/f68ZP7j32zz8Ytf7AcAwDYuuOvEUMnIFUDAPBSh95Nm7TieJbjuNeGT6RpGQAAw7DI8JjUtDuODgWBP3xk97gx75MkBQCQ0fJxr0/ds38TAGDHrnVvjH5PpXQDAOAYPmTAGwqFquxDJQhKELjjp/bXi2uMVA0AQK2QyCEDX9+6/a+y9JByN+nnRV/e+zf77WnDM7PSBr8yBp1t0qh1RFgMAODA4W0d2/eIjqyL2mPqNOjSufee/RtFUdy5e/2bb0xH2gyOE6NGTHli3d0t29dMnPBRsdQ4PnzweH//wLJLXSVs2bLl9OnTAIDo6Ohff/3VharsusxAqy3uSlWLeo3QzqqbQvVG/2Eymnb4YDasHadRu1EE+fMHs2f8Ov/D+bO1Ws+ebTsvn/H9rCXzk1JTVsz47qOfv/7q1x8xAIICAhd+NMfbTWOxWl6IinHc4s1Xhqekp/579WL7Rs0djWEBQQDDiswGb3dt89gGP06b+dGCuZnZWSq1uuULjVfO+hGZ14L9Al/rOWDMrGlZ2VlypXJkrwHj+g5FPYzqNejLZT9N/X725h+WYQBr26iZp7sHAEBvMbEsGx4U8pw+QQkJidLAMCwoMHTYoHFDB77B89y1xIsr//zl6vULn334Q8KVCyOGvum4kiSpoQPHAwDqxTUp0hccO7kvPfOu3W69dv2C1sPXcZnVZrmVdGPe/E8dlldRFG7fTuR5Ljs3IyK8tuNKiqIjwu6/fCIcx8ho+al/jzRp1NLZpb1B/WZHj+8tcXFufsYPP89Cxx3ad+veZQAAQOOubdywheOafn2GhwSFO3LD141tiLq9dPnssMFjnW/RpFGrrTv+FkVRb9AFBtwPo5PR8rDQ+95sD8NyTEZGWnjofTE9tT79eo0su9TPGwjPnj23fn08hNDT0/P333/386tgIukqQdI2npY6IeG/fjoXHWMYNu3V8c5nv3prGjro/GKrjk1aCKKAYziO4xiGbfzuV/Q3s/m733hBAACQBIFaQv0CZ4x719EJRVI/vv9FiftSBDnopZ57Th4Z2b0/hmGdmrTs0LiFIPAYhhM47vhrLD7VqDm6tfMOX0xoxF9fLUDHBEHEf7MYHe8++c/gl3uTUg0ICYmq49bta6npyV069gEAYBhGUXTD+s2//Dxm5BtdC4vyIYClpk4/e/7YmnVL+/Qc1vLF9n5+Qecvnjp6fL/jLIRQ4+4xbsxU58AQgiBxnIBiSQfJsmdmZ1h7yp2kqMjYw0f3lBgVjpdiXdBqfCaMLf5h9PDwRAdent5tW5cSjX+vH8IhQslbYDiqLQLFkrXaH1WeV7iX5BCA8shZ1aSmpY15Y4QoiiRJfvnllzExMU9+T3VC2kl5fuA4TpEUcU+lcFYIKJKkSLK8lReGvtx77+mj3D2vbBzDKJJyqCyl3vqJfXI8v+PYwZE9+pdrJBISEpWLxWJcv3FFiZgLmUxGUzTAQN3YBteu388EyPPcpPcGGU1Ff8X/NnHCJ5079I4Ij1Ep3YymB6JLFAqVxsPDw8MzIrwO+qfReOw/tBXDMD+/gNT0FOcO76Yll2WcEMKD/2wPD4vy1PrWr9so4epZ58iOK1fPBQaElngLTcscA/DU+oDyUC+uYcKVc863uHj5v1rBkTiOu2u0uXn3cxKyHJN2TyJB4B3hORCKOXkZAAAZLQ8ICEzPuC91vi777enDyjWe54bBYBgyrJ9OV4Dj+IgRI5o1a/bk91QzJG2jTAilBZJVOe5K9Yhu/e5mPzLpp5tC2aV523L1mZGX/Wr3/u5K9WOucaRdl5CQeEbUjW3M89zm7X86FA5B4DdvX+3nG+il9e3ba9jqv5fkF2QDACCEBw5v9fUJVKs0JEllZt5Bi3F2bvr+Q1udk2mSBNmyWcdfl8/jeR51uGLVz1qtF4ZhPboO/H3VTzabBXW4edtqu936+BFCKObmZa7buPyvtb9OeeszDMPat+1+/sKpq9eLtYGs7LS1G1b07V28fjMsg/p/Grq+1G//wa1305LQy+SUG3v2be7RdSCO49269F/2+w/Ir0UUhb/jf8VwDABA0TQA+M2kq+gtFy6dzsi8i4779By2dNk8m92CPo11G1a0eLEDAIAgCL1eV2r8cJXAMMw770xMTk4CAHTq1KlnzzJ57wIADh48mJ5eXTInSTspT8DHxyc/P/+/a5fNdqtarqzq4ZSkx4PuqCXw0Xi+N2xMuToMDwwJD3ycxwYvCHtP/AMAIAhCrX6cUiIhIVFhaFr29exfFy6ds3vfxkD/WjhOZOemBwWEfPbRfIIgY2o3GD1yyrSPxwQHhVltFgwDMz75Ccfx14ZPnPfDx/sP7SAIguWYt9748Ot5Hx46slMmk1MkjWHYayMm/7xo1uSpg/18gvN12ZERdfr2HA4A6NiuZ3rG3benDQ/wr2WzmyMjYrp3eQU5k5YY1cFDO47d250JCAh6od6Li36K13p4AwDUKvcvPvnpux8/9fH2JwgyOzd9wthp0RF1AQAUJWvZvMO4Sa/06T704QhYkqSUj37CkcuVjoyi/n4h096bM2vOu4GBtQAE+QXZH7z/tb9fMACgZ7fBOTkZk98b6u8XbLWZ6sY16tCuO0GQJEGNHfXut/M/Dg2JoijKw0Pbr/cwZOh9ufMrekPhW28PCgkOL9DlRITXGdhvNAAgtFa0KIpDRnasDhGwEMJv583Zs28nAKB7914jR44ouxU8KSnJ398/JKRaOOFhLpTPpEqYN2/ehx9+CABo27TlG/2HBfi6kldOpVOk12/+Z8/6PdsghD179tyxY0cF6m6LoqjVao1G465du3r06PEsxikhUemwLDt16tRFixZpNNot8afKGMn5lEAILVZjRmYaFMWgoFA3tcb5L45h7XfuJikVquCgMIeHBGpUKJTBgaEEQT7s6AAh1BXm5uXl+Pj4+3j7O58ymooyMlIDA0M8NF4VHjPPc2kZdwSeq1Ur8hl9ShzHpqYlYzhWKziCcspeCADQG3RZWekhIWFuag/ndqvNfPfuba3WK8A/xM7YCJxwvNFsNqSl3/Hy8vHzDXoWo30MQ0d1SE9Pbdem87ix7/j7B3lotDRNYwC/euPs+YsnAIb17tXvnyOHZ8/+HELYpHHTv//edOXqWQhhWFhYWFiYWq2mabpU5xjEkiVL2rZtW69evecp1KOQbBtPYOrUqatXr7527drxc6ePnztd1cOpLnh5ea1cubICqoaEhETZwTBMrdLE1C49NbWMlj98qkTjw3+kGIZ5e/l7e/mDh3B308bFap9uyIAkqXLFs1QAiqKjImNLPeWh8SpVVVIq1I7sHXKZwvmUWq1xnKpu/Pvf6TlzZkIIfX39Vv6+zq385mSDwbBs2bL4+HiGYQYPHjxp0qTHaCfPFEnbeAIkSZ45c+add95ZvXo1y1YwEW9NgiTJrl27rly50tvbu6rHIiEhIVFjyc/PW7z4F57nMQybMnmqwWgo0OVdvXoNQjE/Pz89PV2hUJAkGRYWhjaGSJIMDg4uoV9OmDBhzZo1b7zxhiiKb7/99rZt2/r3r5ogAEnbeDJKpXLZsmULFizIyMhA3lVVxaZNm/r161eFeWoxDAsJCVEqlZJVQ0JCQuLZYTZbtm/farPZMAxTKlXfzvtq3ryvIACoUgyGYY7YRrm8eLsqMDDw8uXLJX6cJ0+e3LBhQwAAQRDTp0+fOHGipG1UdxQKRXR0VabXFEXxjz/+mDJlikajefLVEhISEhKuCc/zu3fv0Ov1AIA3J0z+5JMvZLQMw3A7Y/vvzFEIYWRkZEREhFKpJJ+UOqF169aOY39/f6v1CaFGzw4pAtZluHDhQkpKyqpVq6p6IBISEhISzwoBCjt2bk7PSMcwrGPHzhMmTCpOUwZhQUEOcvt1c3MjSRJ3SuT4KKqPHVrSNlwDCOGXX34JAJg1a1bZazNKSEhISLgQEMJNm9Zs3Pw3AMDDQ/vBtE9oujgOuVBfcOfubQCAUqn08vKiKKqq/D0rhiuN9f+ZoqKiPXv2oIOzZ89W9XAkJCRqLBDCBUtmfzrzzRLt1xMvMYwNHdvt1hs3Eyp8i+SUG448p6vXLjp/8USFu6oBCKLAsgzD2uyM9d//jn47/wsIIUmS9evXz8xKTbqdmHT7esLVc1eunhcEHsfx2rVrI//Q6mO3KAuStuEarFy5kuM4AACEcNasWVKWFAkJiWeE0aS/dv1iWsad5Ds3nNt/XTGvyFCAjgt0uctXVrwg+7qNyx35QL08vRXKctSbrXlACHmB43nudkrih59O5jgOx/GoqChB4DOz0rOy0jKz0goLC5AKUq9evZCQEJczbADJS9Ql4Hn+q6++crw8cOBAQUGBj0/56gtISEhIlIUjx3a3btVZLlPuP7jtrXGlp7WoRHp2HfKsb1HNwTCAYZjJbJj95YcGgx4A0KZNe1HkMAwjSZKiKJqmVSqVr69vRESEu7s7UVoxrFIZP36885UymezAgQPPSownIWkbLsC5c+eKiorkcrndbpfL5RzHrVix4qOPPqrqcUlISNQ0BIHfu3/zF5/+JJcrJr839LURk1RKN72h4Nv5n96+nfjt95/Uqf1CdFTM9l3xySmJH30+fmC/UU2btE68lbByzS937txWq9Ud2nUbNmg8SVI3k64k3ryCYWDn3g2FhbrwsMgpb37m7e33/U+fX7r8X2ZWemitqA+nfr1+84ra0XUb1m8BITz578G/1y/Lz8vx8vJ5uXOfvr1eJQjCZNb/Hf9r08Zt/l7/W2raHS9Pr9Ejp7Rs1qmqP6pKg6JlMrn8l4Xz7txNxjBs3NgpLVq03Lt/C47jLVu2DA0N9fHxkcvlJEmCcnp9lkiXgGEYRZXMRv/ccDFTzP8hEMKVK1feunWrX79+AICwsLDc3Nxbt25xUmk0CQmJyuZm0hVPL58AvxAPd6+wWlFnzx8HAKhU7mNHvxcYGDJk0Nhe3Qc3atBi8Cujg4ND3xj9Xu3ourl5mV/Pm/7q0AlrVx366bs1Ol3e6rWLAABF+oKNW/5gWPsv89euW324VfNO8378WEbLRw57Kzo6rlePwUMHjgUA5OVnWywmAMCxk/vWrFv68fvfrF9z9OtZS85dOLl2428AAI5jj57Yf/zU/s8/+mHDmiNT3vps/s9f6PW6Kv2cKhUI161fefbcaQBA+7adJ0+chqwXDtsGQRDIS8O1HDVKIGkbLsDixYujo6NpmgYAYBjm5eW1YsUKpOdKSEhIVBYQwu271nXr8goAAMOwHt0G7tyzHgBAkXRURIxSqQoLjQwOCvXU+oTWilQp1VGRse7uHjt2rxvYf1S9uKY4jrupNW+N//jk6UMWqwkAoFZrXunzmoyWkwTZveuAjMx0jmfDw2q7u2mCg0JDa0U6bs3z3Jp1S95/e3ZIcASGYZ5a34+nz9u7b5PBWAgAMJuNY15710PjhWF4vbgmobWiUlJvVdGHVHHSM1J27Vv/cFDhmTMn9+7dDiGsUyfum69/oWmZo3IvCnN1OReNUpFWrOpOqfqsS2u4EhIS1RODsfDCxdOdO/a+eu0CAICm5DduJGTnpgf4PbKIKITwcsK54OCw3Nz7TqNGgyE7Ox0AEB0V6yjfKpcpSYJ8lIe73lBot9vCQu8XWFGrNMHB4ekZdwIDQoKCQtSq+1kNVUo36GqJAK4nXvx0xsS8/Jxz508MHzIhIjwGQIi0CqvNCgDw9PT+bu4ijUYLAEjPvAMAkMlkbm5uqO5aDfjNl7QNCQkJCQkAADh6Yq+Hxmv3no2OlqCg0L0HNr/+6juPeguE0M7YQoLDvT3v18ce9/r73t5+BYW5GFbWh3KOZ3GMwB9cU93dNbzAAQAwDHf11dZiNdtsVgDA/oM7Dv2zRyFXoEZ01svL+4fvfw0Li4QQpqTcvHnzKgAgMjJSpVLJZLIqrFZRiUjahoSEhIQEEERh956N06fOiY6MczSmZSR/+Nm44YMnPKp2PI7jIcGhkRG1mzft4GjctXc9SZTPG1Hj7snxrNlq0rgVF6EVRSEp6bp2SA0JvnuxcdvFC9b/suSrM2dPCAJvtpgcp4KCQt5752Nvb5/8/Jw7qbeOHt8vCAJN0x06dHB3d5fJZNJOioSEhIREDeFG4iWSIiPD6zg3hgSF+3j7XUr4t3nTDhiG2Rk7ascwjGXtKIt2m1Zd/vx7aaMXWtC0HABw4+alHXviu770uNJfGIY5EoUhFHJls6ZtN2z+fczI93AchxAePrrT3V0bHBiKXDdqABFhdb6b80fircv/nT12K+kawLCLl05bLBaeZ/fs23Ti1H6aptGOCUEQffv2jYmJUalUFEXVgG0UIGkbzwgIYXp6+pkzZxiGqaw+L1y4QNO0Tqf766+/KqtPgiAaNWoUHR1dM3RnCQmJigEh3LlnfdeX+uN4iZhJvFuXV3bsjm/WpH2jBs0/mzGpUYMW778z29PT1263T5gy4PVXp7Rv0y3h6rl3PxzZrEl7i9V49tzxTz74jiQfZ9uoX6/pDwtmRYXHfDlj0b0bYW+Mnjpn3rRPZ70ZW7tBVk7a3dSkmZ8ucLh91AxIkqwX16ReXBP0cuioDhaLBULI8zzP8yRJkiQZGBjYt2/fhg0bymQyV8zi9SgwKStlpcMwTN++fffv3+8qn229evWOHz/u4eHxfG4niqJWqzUajbt27erRo8fzuamExFPCcdzUqVMXLlyo0Wi3xJ961M6CiwIhLNLr3Nw01ENaAsexJrNR6+EFoag3FGIYrvXwAgAwrN1o0Lu5ucvlSlEUUtOTr12/5OamafhCM427FgDAsgzLMmq1u6MrXWG+p9YLw3ARigZDkSiKXp4+ZouRomj0efI8fzMpITnlZnBwaFxMI7lMAQAQRcFo1Gs0no5HfKNRL5craFr2fD6cZ8fQUR3S01NfeOGFIUOGBAUFeXt7h4WFhYSEyGSyMhZdcyFqlNpYHRBFsUePHocPHwYAEARBktXau0cQRJ7nr169+sILL9y6dUsur1E/oBISlYirZzt4PBiGeWq9Sz1FUTQ6hWGEp/a+F4WMlvv4+KNjHCfCQ2uHO0WUAABoWlZCIfDyLH47fk9lAQCoVffVEZIk68Y2rhvb2PldOE543LsY4e7+nB6Nng8eHh6NGzeOjo729/eXy+U1TMlwIGkblcz58+eRqtG5U/Pv500MreWH49X0ewMhKNAZ53y9euXqHenp6b/88sv06dOrelASEtWUmq1tSFQhOI5TFEXbxN1PAAAgAElEQVRRFEmSNSP8pFQkbaOS2blzJwBArVb9tnRaWGh196Z2d/dZ9Mvbp04n3EpKjY+PnzZtmvR7KiFRKhiGIeMfz3N2u62G7aRIPH9YjikoyAcAKJVKhUJRk1w0SqUmy1Yl2Gw2AICXpybAX1vVYykTcjnVqFEMACAvL89VHE0kJJ4/OI43atQIAGCxmI8c313Vw5FweQ4f2YkycMTGxrq5uaE9lKoe1DOkJstWJbiibaBmf8UlJCqLbt26hYWFAQB+Wfz1kWO7eL5SahVBZyqjw+qAs0Q1Q6jKlEgQ+GMn9/24YBYAwMvLq0ePHlqttsZrG9JOShVjtbE5OQUETvj6eSrkVVadT0JC4oloNJr58+cPGTLEZrN+NmtKZESdsLCoSlgh7isZGHC9p5XSgMBpSa4RQlWeRFAU09Lv3E5OFASBJMnp06dHRkZqNBpHso2aiqRtVBmiCBcs2vb32kNuagrDsPx846uvdn13Sn+KKreXEMNwQ1/95s8/PlCrXT4kTEKi2oJhWL9+/f744493331Xp9PdTk68nZxY1YOScFXc3d0///zzYcOGaTQahUJRg/1DEZK2UWX8vnL/gYNn9+/+RqNRAgBy84xDR8yyWpkZn40ob1cQgtS0PLHmmGElJKopOI6PGDGibdu2K1euPHbsGPJ2epodEAih3W5HBhKCIAiCsNlsqOxnQUEBAEClUtE0zTCMRqNBz75Wq5XneRzHke29GprfBUGw2+0oYwRBEDiOFxYWarVavV5vs9kwDNNqtTabzZEoUxRFlOSKpmnkLFndnvJFUbTb7UgW9H9RUZFGo7FYLCaTCcMwjUbDcRxN03K5HMMwCKHJZAIAPCwRquPdsmXLwYMHR0ZGohReNV7VAJK2UYVs3nps+tShHh4q9NLfT7Pgx3d69fnw80+GV9ugWQkJCQzDQkNDP//8cwghx3FPo22IomgymT766KP+/ftrNBpfX18fHx+GYdzc3NLT0+fOnQsA6Ny5c4MGDSiKCgkJoWkaAHDixIm8vDy1Wt2gQQOVSoXCGSpTwqfDbrcnJCSsWrVq+PDhHh4e/v7+arXaYrGo1erVq1f/+++/CoVi7Nixbm5uarXay8uLIAi9Xn/48GEIYXR0dEBAgEqlksvl1WcBZlk2Kyvrk08+mTRpkpubm7+/v0ajMZvNbm5uu3fv3rlzJ0VRI0aM8Pf3VyqVPj4+JElardY9e/YAAMLDw4ODg1HUCUkWL7gEQWAYhjTF/5/IaknbqDJEERYUGJxb4mKDDx9cgI5Zjl++fPfK1XuLiorCwkLfffuVHt1fxDDszp3cTz5fcelyoiCIDV6oPf+7ibVCHsjJo9dbPvn89xMnL3Ms16xZvTlfjgkOeiAxjoSExNPjsEY8TScsyxYUFGzbtk0mk/Xu3RtZL/z9/UmS1Ol0qHOZTKZUKn19fdVqNUVREEKZTCaTyeRyuUKhUCgUSqWy+mgbgiBwHLdt27Zt27a9/PLLNE0LgiCTyTw8PNABQRAkScrlco1G4+XlpVAocBxnGEYmk0EIkVBKpbL6aBuiKIqiuGvXrgMHDvTo0SMyMpLneYqigoKC0ICRRUqhULi7u3t5eSmVSsfEAQAcEjlrG/+fVDsT3P8PY0Z3nzp9wXfzN5y/cJtheAAASRJRkb7IsPH1N+sO/XNx88YvkxLX/jB/4gcfLb1wMdlu514dPXfE8C5XLv5x5eLKTh0bT3n3F+c+OU4YOfqb8LCA0ycWXTq/ouvLLw4d8aXNxlaNhBISEo8GmUY2b95sMBj27dtXWFhoMBjQLgkoLbrNJR6CBUEwmUzx8fFFRUVHjhzR6/Umk4lhGFEUnQePjqu/OAAAURTNZvO6deusVuuBAwf0er3RaHxYIoRLzFFVIWkbVcagAW3Wr511Ozlj5Og50bEj+r7y2foNx+12DgBQWGhd89e+xQvfRWaJ+nVrffbp6EuX7+bl6Ru+UKdXjxdJkpDJyH592129kuTc54ULyTwvvP/eKyqlTCYjhw1pX69uxN5956tGQgkJiUcjCILVal2zZg0AICMjIyEhwWAwGI1Gu90uCEJVj64iIP1p9+7dOTk5AIDDhw8bjUZnFcoV4Tju7Nmzly9fBgAcPXq0qKjIYDCYzWa0iVbVo3Ml/q8NO1ULhmEtW8S2bBErimLKnbzjJxJ+/Hn9n3/t37R+xr//XWvwQpSfr8Zx8bAh7dDBwgVvZmQW3r6dnpWtP3EywWp7oGrzqX+v2Gy2L+esdrRkZGSfPXejf7+Wz0coCQmJMsLz/LFjx1JSUgAAoigeP368UaNGRqPRZrMpFIqqHl1FQK6Uf//9N1qG7969e+vWLW9vb4vF4u7uXg29WZ+IKIosy65duxbpf/n5+QkJCb6+vmaz2cPD4/98Z6S8SB9W1aDXm0+dvt6924vIVygq0j8q0n/QgHbtOr178NAls9mmUpUSy1qkt0yc/LNGo27cKKJuXFTjRoN27jrmfIHZbPP10UREBDhaIiIC6tQOfebySEhIlAe0jK1atUoURdSSkJCg0+kCAgLsdjvP86743Mzz/LVr106fPu14efLkycaNG1utVpZlkYurayEIQn5+/vbt2x0tR48ebdu2rc1mQ74mVTg2l0PSNqoGXaFp/Fs/3E78U+6U0UutlkdFBhUWmRo2jPr+x/UcL1D3Ssj+c+TKpcu3MAwPC/WbO2csaszI1Jf4RYqODklLL3h1+MuOvcPjJ6+54K+WhEQNB0KYkZFx5MgRRwvDMGfOnGnQoAEKcnFoIa4CGvbGjRtZ9r6j2NmzZ1mWRTGuoii6nAoliuKmTZssFoujJTExUafTRUREIHFcTqIqxPVMWzWDWiG+YWF+i5fudPymQAhvJGb8d+Zaq5ZxcTHBMpravPkk+ipznPDLos2REcF6vQlFcgMAeF5cuWpfib3Ddm3qHzh05kZiBnppMtunf7CEolzvkUJComaDYdiGDRtQFCsAQCaTxcXFnThxAgUvVMOEE2WBYZj169e3a9cObZrUrl2bJMmLFy+iaBpXlIjn+b///rt58+bu7u4AgNDQUI1Gc/r0aTc3txqf+rPSkWwbVQNFEat+/2TU61/v3HWydet67m6yW7eyT52+NnvGGxHhfgCAZb9OGzVm7oGDZ6Oi/A8dvhwbG96je9OYOsHde39oNlv9/bXnzie/1KlxQIDfzC///PiDYajbwEDP77+Z1H/gZwNfaadQ0Hv2nu3fr13jRhFVKquEhERJUIqnkydPzps37/LlyzRNT58+PTMz02QylWttrj4LHoZhSUlJy5Yti46Orl+/viiKjRs37tWrV3JyskajQZGi1We0ZSQnJ2f69Olt2rRp06aN0WiMjIwcO3ZsYmKiWq1G2T9dTqIqRNI2qozICL/DB+bfvJV56dItq802aGDHed+M12rV6GxMnaDD+78/eiwhPSNn7pzxjRpGEAReu3bQyWMLjx67ZLXYvpnTKTraf9jQDgzDyGTk7m2z1SoZAGDggNbNm8ecOHHZarMt/+2DmDpBVSqlhIREKWAYNmnSJI7jHJ6GFEW99NJLoaGhMpmMJElXXMaaNGkiimJWVhZ6ieO4r69vixYt5HI5yhRStcOrAJGRkWFhYXq93jEdWq12+PDharXaFd1QqhZJ26hKaJqsXy+0fr3SvThVKnmP7s1KNPr7eQwZ1MHxUqtVA6AGAPg7FbgPCfYaNrRT5Q9XQkLiqXFs9qP/HcuYsxOAKIqCIDguQy8FQcBxXHQCQigIAjpbgZE4kl48pWbjLJGzSuFc2BZJ4fB1QMdIKOdTzu3VRKKHTzlf4yyRcA/HvIB7ycEcclWVRNUBSduQkJCQeB44rzpoiRIEASWiQJkqWJZlGAbV42AYBi1OqBG1ozeyLMtxHMdxKHEnqkhSgfGgNQy/RwVydzqWVWdNgmEYdFYQBIdESHye55HIqBG14zhut9uRCxparZFjacUiZvEHKe8i/fAcAQDsdjs6QJFEaPA4jqO5QFqgczvKjspxHPoQHBJV4BN++jmqPkjaxjPBtXyVXTfxjoSEq4BWWYeWgNZm1IIusNvtVqvVYrGgTNiOjFh2u91isSiVSgzDUIZym81mt9tpmkbvRRXayjse7B7odhRFURRVrh0cURS5ezgkctRXQwOz2WwWiwXlwkLZOHie53nearXK5XK5XM5xHI7jFosFregsy6KQFo7jyqsooOvRqkySJEmSNE2jCmpl7AFpb2hSHBJBCB0SoWpzSCKkjiCJMAxDcyeTyZDy4dClkGqIPo0KSPSUc1StkLSNSkapVAIAdIWGzKzCyAi/qh7Ok7Fa2bNnrwEAQkJCXPRLLCFRzUFPt3a73WAwmEwmRy03QRDMZjMAAEJYWFioVCpJkjSZTDiOZ2dno8DLwsLC3NxclmXVajWyYfA8TxAESgXxNGW9UHUPVNQNFS8FAJRxMXOYVVBucodEEEJUuhYAYLVa8/PzZTIZKo4qimJRUZHFYhEEITc3126322w2FNlhs9kIgoAQms3m/Pz8Chs2HBIhVUMUReQEU5beeJ5H9gmj0Wg0Gp3r7ZlMJmRnYhgmPz8fFX+Ry+UQQp1OZ7FYSJLMy8tDSoZMJsNxnOM4ZIewWCxPKZFcLkelcMo7R9UNSduoZPr06TNr1iyLxTpk+Mwfv59Sq5ZXdf5W6HSWr75efTc1CwAwcuRIV/wGS0hUc5ANQKfT3bp1q6ioyNnqKYqi0WhEB/n5+QRBiKKoVCpxHM/Ly0PaRkFBQWZmptlsdpT7wnFco9EAADIyMp5ybBiGKZXKwMBAT09PCCFSXJ64L4P2RPLz8xMTE41GYwk7blFRETowm80ohbnZbEZeomht5jguKyvLZDIZjUZH9A0KMTWbzUj9ehqJ1Gp1UFCQu7u7wzPmiSs9kqiwsPDWrVt6vb5EshOLxYLsTDabLTc3Fx3QNA0hRNNEEEROTg7P8waDQSaTIYnQHNlstvT09KeUqAJzVA1xvRFXcxo2bDhgwICNGzdevHijQ+eJVT2cshIcHDx27NiqHoWERA0EGSEuXLjg2DRBix8EAHfyEnXanX9gk/4BLwRUs7GSQDsFFoslOTmZ4zhUexZtPTx+eRZFMTMz8/Llyw63R8f10OkYe1AkCCHaESghZiVG8SKJTCZTUlJSWFiYt7c3Kjn7xP2UR81RCYnAg9MBIUTT9KwlKjFHSCKXeziUtI1KBsOwdevWTZw48ffff3cJfwgcx7t06bJu3brqU7RaQqLGgLb2ExIS0DIWGhoaFBwsV8gBAAACQRSv3bixa9cumqZbtW4VFBzs7+/vplbjBG40GEWAAwBiY+oEBASo3VRyuRzHiUpcYliGyc3NS759WxTF9PR0lUqFzPWP9zlD+x1Xr14VBAHDsPCIiIDAAEcObwihvkiPjuvWq9+qTdugoEBPrZaW0RBCrZdXYuItiiJbtmyhUilVShVJkRjAQCUJxdiZzMzM1Lt3BUFITU1FGxCoQPxjtA3k2XpvjrCQWiHBIcGOUjUQAqvV4q7R6HS6qOjoVm3aBAQEeHt7y+UyCEFIaGitsAgcx5s3a6rRaFQqFUVTlSgRy7B5eXm3k5Icc0TTNM/zSOGonHs8LyRto/IhCGLp0qVz5sxJSUlxaMqVwo4dO7p3716JNjQcx2vVqhUYGOhyarKEhEsAIUxPT0cOg7FxcRGRkY4/NeRTqVDIAQA4jsvkCplcrlAoFEoFQRA8L6jVagCAUq1WqpRKpVIul1cgyOIxKJVKD63Ww8Pj3NmzyJdCo9E8Mb84hPDOnTvIl/OFhg1CQkJKnGUYBg1SJqORK6hCqaBpGkKgUqvVajVFkUqlUqFQKpRKkiQqMbxTqVRqPbVubm5XEhLQXo9arXY4ez7qLg/OUWxEZITzlRBCACFa2imKkhVPkhy5UCCJCAJXqFQKpVKhVKC9oUqUyEProdFo0Bzl5OSUZY6qJ5K28UzAMMzb29vb27sS+4QQTpkyZebMmehbLiEhUc1BfqA5OTmiKKrV6tCwMAhF52UCxY0CACAAEIrgXuYGDMOgY0WBEELxfnv5lxmnzZpSlkBfP18fX9+83FzkC/n4tRkNIzs7G0Ko1WqDgoJKuDigwRYfO5JSwBKgrBXoDA5KS2vxNBLVCq2VmppqNBiMRuMT67M4z5FKpQoNCy0RUQghEKEInBtENE0O+e5JA9GklZ6o42kk8vP38/Xzy83JMZlMzsHGrvWUKGkbLkNycvLFixf37NnTv3//qh6LhITEI4FOSbdYljWZTCzLKpTKhyydUBBE1AhFkecFluUYhqEoiiAIhmXRVqwg8IIgshwHMIzAcVB+Gz2G3XehwDAcvXQ6i3l6avNyc52jMErgSEGBvClNJhPP8yqVimHYEldCKDL3qrKJgoiSiLAMAyCEEHAsiwJBBUHgOJ5hWbQdU16hnCVCWyQlJNJqtUaD4TGm5RJzZDQaWZb19vHhuJLb3xBAhmFhcUyvwLEcy7EMw6JbMgyDCvaiCGeWYyEUn1Kih+cIAODp6Zmbk4MCiV3RsAEkbcOFWLhwIQDggw8+6Nevn2uptBIS/yegVQcFUrIsy/M8inq1WCxuRqNery9xvSAIFhQBC4DVYjGZTQqjQhAEgiBMJpPdbgMA2Ox2lHujjJGcD4MSNpAkSVEkSthQYkeGJClwzyERPPhcDiF0hIY6smsYjUakczwsEYTQYDAggw1KTWE0GnGcoGkKAGAymux2myDwdrtdEEWWZSvifIABDMNIgiTJ+ykowEMKh2M8D9kqHpgjjuMYhtHr9Var1V3j8bBEAACr1SoIPACAY1mLxWoyGimSlNllAACT0Wi32wiCsNntOIZzLIcTFdnteuIcIf9ghyCuqHBI2oZrYLVaf/vtNwBAcnJySkpKZGRkVY9IQkLiAdDCbLPZUBinzWZDS1phYaHValUqVQUFuhJvEUXBaDKBe6GwcoWCJEjGZscJ3Gy2WMwWAIDFbDEqTAROVMxpozg9FElQJCWT0QqFQqGQ07SMKMOiCCHkOM5qtSKJUMZPjuOKiop4ni8sLHpYIgig0WAEAAIAbFar0WCgaVoQRIqmAAB6vd5itlA0ZTabUTAHhlUkLxmOYQRJUhQpl8uRDwVNU2X5fErMkdVqRdpGYWGhzWZTqdUPSwQAtFptKPrGztgNRgMtoyAENE0DDBQV6S1mC0EQZpOZ5zgcJ5BhorwSFc8RRcloWqlUyBVyGSWrmOJSbZG0Dddgy5YtNpsNAAAhnDVr1qpVq2rSt1BCogYgCILVas3MzDxy5AhK2wAAQF4OHMf5+PjcvHWrxFsgBBfOXwAAsAxz7OhRDw8PNzc3iqYwDAcQCoIIATx96hQyrVcYGU37+PmGh0d4e3uxLCuKIsAwGUY/cXnmed5isdy9e/f48eO3bt1CmTBEUczIyBBF0d8/IOKhxx4Igd1mQ0/e169foyhao9HIiv1bgSiKyKtj546dT1O/Vi6X+/n5hUdEeHp6qtSsuyhimLIsJeDRHGVlZR05cuTmzZtojgRByM7O5nne19cvMfHmwxIhcw4AICU55cjhQ+7uGoVCiRMEhgEIoSiIEMD9+/Y9jUQ0Tfv4+IZHhPv4+LAs6yaImBqjyzBHLoSkbbgAoih+/PHHjpcbNmxYvHgx8leXkJCoDoiiyDDMtWvXVq1aZTAYHO3IPMBxHMtyLFvSywFAgB6aYXHSbo7jePjgqlXCDbMCsCxrMptT79yNjYuLjYtDuaHIMqSgYBjmzJkz8fHxVqu1hEQoZVmpEjka0RYMx7EYjhM47vzAL4gVKbrmLJHRaLx7984LDRpERkXhOE6SBEpB8Zi1Gc3R1atX//zzT+cdEyQLGm3pEnEcvJe5nGFYluMIgiUIwlmip5wmlmXNZnNa6t2YuNi4uDgMw8uSJsS1kLQNF+DKlSsZGRnIHR3HcYZh4uPjpWRcEhLVB0EQ0tLSfvvtNxRIWSs0tFZoLQLHRQjz8/M5nvdw1wSHBDu/BQIgivB2ctK5s4AgiKjoaG8fHy9vL7mMxgmisp5nIYRFhfr0tDReEK5du0ZSVGxsjFwup2n68QmwBUG4fv36X3/9hSqKhUdGBgUF4hgmQpibkytA0VPrGRgYUOJdIoRmU3EyUD9//9oxdXx8vFVqFUmST2WfeVCi/PyCzMxMjuMvnL9AUlRUZJRcJkNVUR4vUUZGxooVK5DyFBwSEhoWRhK4KMK8/DxeELQaj6DgoIduB+x2+7q1MgCAp5dXnZg6Xt7e7u7uJElWVq41CGFRkT49NY0XhOvXrpMEGVe3rlwuo2VPmCPXQtI2XIDFixdv2LBhzZo1W7dujY6OXrNmzeTJk19//fWapPZKSLg0giBs2bLFbrdjGDZoyJD2Hdsj/0cIYYGuUBAEuYxGybkdQABFQUxIuAwAoGm6afPmQUEBAYH+bm5uBEFUWn4oACCA6WkZmzdsslqtN65fDwkOVqlUAs+jkNpHRbpyHLdlyxbkyDnitZEtWrYoToEKYV5+AYRQIZe7uZW0sIoAFuoKMRyHghARGdWiVcugoABPL09aJsMrVaLbSbe3b97GsOyVywnBQUEsq0Jl0h75FgjRHCFVY+DgQR06dUTupaIIdYVojmTu7m4P38titihnqUB+fnBwcLOWLQMD/b19fORyeWXpT4iMjIzNGzabzebr16+H1Kr1xDlyOaTlqroDIVywYMGAAQPQTxWO402bNj1x4oQr+iRLSNRIUJWTxMREAEDzFi06du6I0lrfTy4BRRFCETzw714ih/tRBhDAe5kUQImLy/gP3vvnPDwMYCG1grv26AoAYBgmJzeX53lBfNzajDJX3rlzBwDw0stdWrZqiWyrzhJBKJYyANE53waE4F6yDfGpxHlYoujo6LYd2wMAbDZbXl4ez/OicO+zKw0IoU6nu3HjBgCgWfPmnbu8hOrA3UN8lESiCEV4L1rnXj4RKIpQLO3iis4RACA4OPjlbl0BABzH5WRn8zwnCK4a7Foqkm2juoNhmCMrsANXLMkjIVHDgBCihA08z6enpyM/7oaNGjIM43wNy7I8L2AAY+3MA28HUBREQRBB8a6KIPAiy7KMnSFIvgK2DQzDMRzD8ftlyBydYACLiIiQy+V2u92g14tOeaicQek0WJaFEKakpCCfkoYNGz0skShCHMfpByUCAIgQshwL7kXSioLIsTxjZyEE5bYEYADDkDAYhhfvWjh/LLFxsYf2H4QQmowmpBM8tILfj3flOC4jIwMZNho0bFBSIoYVBBEDuKw0iRiGdSiFIhR5nmNY9v6YyiWTY45KkygiKkImkzEMYzAa0berBikbkrYhISEhUU4cWSjsdjvDMAzDZGZmIo8NhuN1Op3TlUCv1wuCQNM0x5X0QBREaLvngMkLgtVmNRpNHMtXyG0DQ86SFEVRtIyiSaLYNbO4K5lMRpAEAEAQBAAheHBlRquy1WoVRRElFUVF4QEAdsZeQiJUyVZmk7NMybUZQmgwGNEx8so0mU0AAxRZgSpiSCKSpimKpimKxAkCd6pBIqNpmqZRIhDwsKIBAM/zKMbVbDaLonhfIpZ9SCK9KAo0LeO4UiSy2exI8RJFyDKs2WzBMZymqYpK9Mg5oimKQNtVNUvPQEjahoSEhEQ5gBAyDGM2mw0Gg8FgsFqtVqs1IyPDZDIBAHKys51tBiKEJqNRFEWSJJUq5UNdAfQuAKHdZtPr9QzDklRFHCoxDMMJgqZohUKuVCrUapVSoSQpynkxK77pQ3oG8tJAWxLgXowGKgoPAMjKyjYYTc7X6w0GACFF06jISwmJrBYLOuZYzmQ2C4JgMBgJotz15DAMIwiSpimFQqFSKdUqlVyhICnyvsKBYeBRnUKIwkwKCgpQrk+O49LT0+/NUQ5B3F/77s8RRSmViocl4liWFwQAgCDwZotFFEWTyVwxiRxzpFIqVWqVUqEodY4qkDG2+iNpGxISEhJlBakaer0+Kyvr5MmTFy5cMJvNPM/rdLqUlBQAwLatW93U9z0NIQAswwiiSBD4w2WWIQC3b9/28vKmaerAvv3FGSQr5HyIYZhGq61Xv76np6ebm1qr1Wq1optaTdIU/qSapDzPm81mnU6HkgeinBx5eXlpaWkAgA3rN8ho2vl6m90OISQIgqJKriAQAIHnvby8RBEm377NMgyOwjjLvTOEYRjw8/OrExen1Wrd3dWeWk8PD1GlVmMkCTD4mP4ghLwgoDSmd+7cuXHjBpJIr9ffvn0bALB923YPjcZ5zI+fI1EUaYr28vLOzcndvWMnQRAYXjHXTUzr5RlXt563l6ebu1rroRW1WrVaRdH04yWqGUjahoSEhERZQQvz8ePHZ86cef369Ycv2LJpU8V63rg+/umGBgAACqWyZ6/ePfv05ngexzCKJFUkAR6dHRw5BzAMc+nSpY0bNxYUFDzszBG/9u+KDebUyRMVe6Mzbm7uA4cM7ti5M88LGIaRFInjisfnO0cSJSYmxsfHZ2RkPHxBZuaWig1Gpyu4eOF8xd7rQKFQ9OjVq3ffvhwnYDhGkgRBEi5XPr4CSNpGBUGuYc/zjiiRH8qz+zzvi+Ol6PsSEv+HIAfJ48ePjxs3DqXwQhXUqnpcANx7QLdZrRvXx+vy80ePe0MukykUCplchuOPtPkjB5TbycnLly9HNcxomq4mofXIjGQyGVeuWKErKBg6fPi94vVPlig9PX3JkiXIJ7T6zBEAgGEYm822eePGgvz8MePHy2W0Uv6EOaoxSNpG+YAQXr169Z133jl79uxz1jbQb0FKSoqHh8fzvC+O41FRUd99912XLl1qRti3hETFEEXRYDC8//77BoOBJMk3J00cPeZ1D622qscFAACCIFw8f/6LTz+/dfPmkSP/1ImNfbl7N6vNqmbVFEVBDC/VUA8htFgs8eviOY6jKGrSlClDhg3VemqJanmJ+oEAACAASURBVJBUiuf5E8eOzZ4xKy01dce2bXXr1VO7qW02jVrNkSRZqscGilDlWG7t2nVWq5UgyNdeHzXq9dF+/n4kSVagJkvlIorixfMXZn7+xY3r148dPVonNrZ7zx5Wm03NPW6OagyStlEOIIRbt24dNGgQ8k+uEkRRRG7Vz5OEhIRu3bqNGzdu6dKlVf4bJCFRVYiiuGPHjrt37wIApn/84dvvvlOt/hw6dOq4buP63t16ZmZm7N+7p22H9izDCgL/+JxXN28lGQwGDMPGjp/w2uuj3N3dZXJZNUlh2atP73r163du39FiNu/etatxkyYonBjAUvJVICCEqWlpWVmZAIDBw4ZOefcdtVolV8hJksSrWtsAALTv2H7thvhe3XpkpKfv2bWrY6dODMvy/ONyn9QYJG2jHGRmZg4ePFgQBLlc0b5dV3/fkll7ayQmk/Hw0T16feGyZcsGDx7cuXPnqh6RhETVACE8duwYhNDL23vM2LHVYT0uQWBQ4Guvj5r71ZyUlBSTycTxvCg8MuEVAABCmJycAgAICAzs2KkTVkmpuCuR0LDQAYMGrv5jZcrt2xaLReB5KD5S1QAAQAjv3k0FAKjV6l59+lRWcvFKxD/Af9Trr8+ZPTs9Lc1gNPrzvCiKj5GoBNg9nukgnwWStlEOli9fzvM8juNzZy9p1rR9VQ/n+TF00BvjJw/Q6wu/+OKLTp06ueIXXULi6YEQolqgvr6+iodCJasJYeHh6ICx2dDWwuOuhkBXoAMABAUHEyglBla9oi8xDIuKigIAsCzHMAx8KFPIwyCXGh8fX5QXsRr+XkXXiUYHZqMRiqVmFn0kmBPPanzPhqq3LLkQx44dAwBEhEe/2KRdVY/luRIUGNakcUsAwLlz56p6LBISVYYjMXZ1/q0v78AghBazGVVmwXECx6ud90B5vVYhABzHoaSqqIwqXs1cIhxeq2KZlQyO40FxDhLi8cXnqi2StlEOUE1hpVLlijP9lFAkDQAopRyzhISEKyOKIgoTJSmSoiicwIstHC6LKAjp6ekAAJqmSILEXXNtdgaKMD8/HwCAivdK2oaEhITE/zU/fDd/7ldzH27/Zs7cTRsqmIfjmQIhvHTpIvKp1GjcaZoi8AdWskkTJm6I3/DwG8ePeePSxUvPb6BlRhTF8+fOGg0GAIBGo6FoiiQIZ/1p3tfffv/tdw+/8atZX27fsu15DrWMoJo1RYWFAAAfHx+ZTIaywFX1uMqN5LchISEhUTk8qgZpo8aNfXx9n/NgWI5jWcZuZ2ibHcWY5OflmU0WlVKZnZXN2O0yuTwnO/vUieMAAJIk/QP8HLYNx+IsiqWXIW3fsaOXl9fzFAdCiFw37HY7QZIEQfAcpysosFqsXp6e2VlZjN1OUVRmRsZ///6LJPLx9aFoCscfkOhRc9SkadPAwMDnKREAgOc4lmXtdoaii+coLz/farGq3dTZWVkMY1fI5TqdLj8vDwAgl8sjIiKQbeM5j7NSkLSN58TGratMJsNrwyc65+cHAEAIV/210FPr1afn8DJ2derfw/+eOTrhjWkqpZtzO4Rw/6Gtd1OTxo+Z9pjI8i3b/+zQvrtW410BKSQkJCpAx86dnIMjBEEo1OkIgvTQejg/pHIcV1RURJGUxkPj3G42my1ms1yucNe4I8ODzWqDACoUCqPRSNO0QlGKyyrLclab3WKxEASOdhPupKQYjUabzeLmpvbw8FCpVGh3GACgVquUSiVBEDiGl2UbZeDggc6VqDmOK9TpZHK5RqNxNo2gLO9yudzd3d3RDiE0Gox2u02lVqvVatRoMplktIykSL1er1ar6QdzpTt6s1rtZrMVQAwncI7j01JTDQa9KPIyGa3VahUKhUMiiqYUCjlJkGX02ejcpbPzZy4Igk6nI0nSw+PBOWK5In0RRVEazYNzZDJbLGa5QuGQFOUWUygURoORlj1ijhjGZrNZLBYcL56jlJRki9nMMDa1UqnValUqFfqc5XJ5o0aN3N3dq0lwcgWQtI3nxIlTBy5dPtOmVefoyLrO7cl3bqxas7BFs3aP1zY+nTnh9dfeiYqIAwBcT7y0dcdfUVExfXoMc76GYeyLfp2LYWD8mGmP6erkv4debNpa0jYkJJ4bvy1ZGhYR0at3z9lfzGzRqtW6v/7W6QosFmtoWNiCRb+o1CoAwKmTp+Z9/Q0v8FCEoWFhX8+b6+HhIQjCzz/8dPjgIQzHbFZbi1YtZ8yeSVHUlk2bTWZzZkbGxfMX3pn63ksvv1T2wTivVTKZDD0oYxiOlrEyrmSfffTpqDGj69WvN2n8W68MGvTHihUGg95kNLVt1+6L2TNQ9uGtm7f8tvQ3Asc5jmvessUnn38mk9EWi/XLmbOuXb0KALCYLQMHD3pr8kQMw378/ocmTZrs2rUrIy193g/fx8TGlOsTdqBQKJCmgmFY8Y7Dk8rEIBYvXBwbE9O1R7cZn37epl27v9f8pdPpLGZLZGTET4sWKJVKAMCJYyfmffMtFAVRhOEREV9/O9dd487z/E/zfzxy+B8Mx6xWW9u2bT6d8TlFURvjN3Acdycl5fKly+9Pn96hc4eKSSSTyQICAqKjo9VqNbLTVKyfKkfSNp4fzV5sve/g1hLaxp79mzt26Gqz2srXVbM2+w9s7dVtiLNyffrM4Tq14zKz0ipnuBISEpWEyWSy22wAgPS09KtXfpv/84/BIcEsy749ccqqP1ZOnDIpIz3jkw8+WvTrkti4WEEQ/lq95sP3P1i6/Nc9u3bfuH5jw5ZNcoXcbmfGjR7zz6F/Xu72MgBg66Ytr44a+fmMLyi69MICKqVS4+7u6anVaIofiP0DAlQqVWRkZMuWLf38/Dw8PEiSROtosZ5R5oWsqKgQJVO+mZi4ZdOmnxct8PLyMpvNg/oNOHzwUNfu3c6fO79k4eLfV68MDApkGOa7ufN++O77jz79ePmvv6lUqi07tpEkWVRYNKBv/5e7d4uKigQArFi2fMq777Tr0K7UnQIMw9zUag8PjaenVu2mIgmS4zh/fz+lUlGnTp3WrVv7+flpNBqCIJYuXQoAwJBeVTZVAwBgMhpR4sS01LTfly3/7sf5QcFBDMNMnjBxzao/x781IS017bOPP1m6/Lc6MXV4nl/1+6qPP/ho4dJFO7ftuJ10e8PWTQqFwmazvT5y1PGjxzu91AkAsGnDptdeHzXjy1mPKv6gVKncNe5aT63mntHC39/farFERUW1atXKz89Pq9Wq1epyKYLVFtfzNHFd2rft9t/ZYyx7PxOoxWL898yRTh16OVoKdDkrVv344Wfj5n7/4X/njkEI7Yx1x+51WVnph4/sPnRkJ7osOiJOEIW7abccb4RQ3LE7vnePIegbaTTp/z17xPnuJ04dNJqKnqmAEhIST2TAoIEhtUIwDJPJZH369bmSkAAA2Lxx0/BXR9StVxeVJRo56rWszMyc7ByO5d6c+JZCqcAwTKGQ12/QIOnWTdSPt4/X8FeHP0rVAADgBE4SBEEQJEmSJOk4kMlkarXa3d3decMCw0D51I17QABeGz0K+XCo1epuPbpfSbgCAFj1+8oPPv4oKDgIwzC5XP7utPeOHD5itVrlCsWo10ej3QGtpzYqOvp2UvHv2AsNG3To1OExTgk4jqMSZhRJkSRJFgtULJGbm5tKpaJp2rEqY6CC0TUDhwwKDglGI+/Vtw+SaOP6Da+NHhUTG4NhGEVRo8eOTr17Ny83jxeECRPfRBslCoWi/gsNkm4VS+Tn7zdk2JDH1JnCMSQR6Zgj6kGJ0By5tEnDgWTbeH54aLxiY144c+5Ym1Yvo5ZT//1TL66xm6q49rGuMO+jz8cPGTS2Q9vuRfqCJcu+JXCsblxji8XMC7zNbrXZrOhKDMO6v9z/wKHtE8YW2xvT0lMMhqJ6cU3vdZW7ZfufLV7s4Lh7/MYVgYHB7m7VoqaDhMT/LZHR0Y5jlVqNPBbPnz1ns9kSLl92nMrOzrpx/Ua/Af0LCwsP7j+QmpqWl5t76MChvv37oAuavvhiuVcgCAFas0kSJaJweDlUGJIgw8LDHC/VanVhYaEgCBcvXLBYzI6KuBDCtNS7BfkF498cn5uTu2vHzuysnIyM9EsXL/Yb0K9YomblkwgCiIpIIEWqsiQCAERF3Z8jtZvKMUe8wF84f78GbHZW1s3ExAGDBhTqCg/sO5CWlpqbk3vowMFBQwYVS/Ri03KnPwEAPDhHTy1NdUHSNp4rPbsOXLtheeuWL2EYDiHce2DT6FffhrD4z+PshRNtW3fp0rEvejloQO6pf/9p2rjt0EFvXLl2tme3gchvA9Gm1ctTPxo16tUpcpkCQrj/8NauXfrVpK+mhESNpNTlh+O5rj261X+hvqPltddHRUfX3rRhU/zadYOGDGrStEl4eLhMJndc4OykWRb0RXpUPlqtVldiFGWpFn4IoSAIg4cO0Xref7wZNWa0j4/PT/N/TLicMGDQwFZtWtUKrZWfl++4oLwS6Qp0FosFAKDRaGiarkT3yUfNUY9ePePq3v8Rfu31UbVr11m/Nn7zxk0Dhwxq+uKLYeHhJHnfklFeiUxGE89x4F5eDdd1CC0VSdt4rsTGNMrLz87Nz/b3DcrIumMw6GNjGl6/cQGd7dSuBypsaLWZdbq8ywnnROGRerrWwzusVtTFy6dbNuvEsPYTpw7On7vy+UghISFRucTExJIE2ax5c/QSQrj4l0X+/oHzv/1uz6F9jrLPZpNJ61mREtCiKB46eIhlWQzDIiMjlUql845DpUOSZFR0tFqtdkjEcdxP838MDg7ZtGHDwaP/yOVyAACE0GwyV+wWoiju37sXAIDjeEREhFKppCjqmT5uxcTEUBTtPEcLf/4lMCDop/k/7D10QONRbKI2m0xubuoK9A9F+M+hwyXmqCY9QNYcSVwCiqTat+l69PgeAMDufRu7dulPOgXE2hn7sj/mz/r67SXLvj1/6ZSf3+OqvmEY1rP7wH0HtkAIz108ER5a28vT71EXPyrEXEJCojrQq2/v35b+hnJ6AgBOnzy9a/tObx9vEYq5ObmoMfFG4r49e8tegFrgBY4XOI7TFeg2bdh0YN8+AEBgYGBcXJxKpXrWa3O/Af3nzf0WlSwBAGzZuPlmYqJcIbdYrEaDETUe+efI5cuXyigRspdwPMeyXG5O7p8rV58+dRoAEBkZGRUVpVQqy2tIKC+9+/ZZumhxdnY2enni2Il9e/Z5ensKopiXl4cab1y/sX/fvrLPES8IHC+wxXO0ce+ePQAAf3//+vXrozmSbBsSFQTDsI7te3z5zdRe3YecPH3ol/lrHacghAsWz27UoMXEcR+jb9jBf7ZnZ2U+preG9VssXPK1rjB35+71g14ZXeJ76axeQCja7JbKlkZCQuIBMBxbvXLlts2bnRt79O4ll8vRn2eJBR7DMNTSsFHDcRPGDx80tHHTJozdfutm0s8Lf1YqFVPeeXvUiJEtWrawWq0Mw34xe+YXn37WsnXrskQorPtrzT8H/d3d3SAEPM8BANRq9eDBg729vRUKRRkzROE4/uWMmfO/nefc+NaUSQ5BSvTjkKhvv77Xrlx7pXe/Ro0b6XQ6XUHh0uW/arXaAYMGDuo/4MVmL+bnF/j4+Lw37f15X3/boEHDJzpC8jz356qVPj4+arVaFAS0omu12oEDB2o0GrlcXnaJfl+2fGP8eufGPv37OQbwqDlq8mLT0WPGDHllUJOmTWw2++2kpAWLFyqVyomTJ702fETzli0tZgvPcTNmz5r1xYwWrVqWZY42xq89deKYu5sbhBDF+CgUisGDB3t5eZV9jlwFSdt43gQHhqtV7n/FL42OjHP22RRFMTnl5qgRk9EXVBCFM+eOY07Gp4e9nyiKbt3qpXUbl+flZTWo18z5lFKpysnJ5AUe2U6yczPupiY/Q6kkJCQAmDrt/f+1d+/hTZT5HsDfmSSdXJqUtE2bW0nTC10QKUfBgm2p0KLcDljlKOuDlMt2FziAeEAWEJSlKrqgR85BlAdwgUcpy9niIlTQWlmonmXbClQFLRYKgkjBYhuStLnNnD9mzdODXErbzGTC9/PXzJuW/N68ofObd97LfyxccJMf2PD2xo6neQ/k5T2QRwihaXrqjKmPTHzkyy++UKpUdw+4m58tMrnoyVFjR5/46nhCYmJ6n3SZTDbyoZE0TWcNybplMG1tbS6Xk6IIwzA0Tdvt9kmTJiUnJyuVSv6muTP9nW9sWH/d8qnTp/EH5RX7OpZPL57BH8hksuUrls+cPfPrEyf0sbH8dBtCyLLnl0+dPu1UQ4MtOdmWbKMo6smiJ2maXvb88lvXyO12OZ2E4/j1NDMyMiZNmmSxWPhhKLf8dd4zSxY9s2TRTX5g87Y/dTzNLyjILygghNA0PeO3MyY+NvHLL75Ua9T97747KkpBCJk6Y9rY8eO+Pn4i0WhMT0+nZfRDox+iaXrQ4EG3rlFbm8vppMg/28hms02aNCklJSXYRp2slCQg2xAaTdNjR/9byUsLXl+zreOXiabpe++5f92GFydPms1xbMUnu2Nieh09Vn3++0arxW4wmLa+s+6+QcMmjPt/i4CNefCRJ2eMLp7+dMehSYQQQ5w5WqvbvOW1YTkPud3O9z8ovffeIQLVEAC6RBejy87NuaYwPj5+2AN5wdPOP/5ITU1NT09PSEgwGo2/+tWv0tLSlEolPzhUsMuYIcFgSMi7ptCaZLUmWYOnnawRTdN9+vRJSUmJj483m819+/a12+38UEoh+wBiesXkDLu2jQwGg6FLbZSSktKvXz+DwcC3UXp6enAAb4SlGgTZhmAmTfyNPfmfs6pyho589vdr+ve9lz+1WuyPPlxEUVTx1AUfH9j9P2V/0ul65Y8Ye/ddgw5W7W9rayOEFE9bUF1bxa9Hnpv9YPCmxGyyPbfkP+/5l39mEiqVpnjaQkIomqZeeO7N3Xvffaf0LXty+pzfLTvZ8JW+Vzwh5LFHpvMHAHBbpHUNGDRoUG5ubkpKSmxsLD8m9EbPCCSBoqihQ4dmZWXZbDa9Xs/P1/hl/NJqo4EDB44cOfImbRRJkG0IZMh9DwSPlYzqwfwJwdNYvSFWbyCEMIxy7KjHx456PPhS/gP/yh9o1Nrhw8bwxxnp/YM/QNOy4XljgqdMlPKB3NE//7Px0558KviSId7IH9w3aFjPVAngDiOt9Rz5RaKioqIUCsWN7v6lVSOFQsEwDH/3H0k1unkbRYyITaMAAHoWv9AnIcTr9fbIKlKhwG8GRghRq9X84/+b3C7LZDKtVksIaf6xOWynrV296iSEyGQytVp9y5VCaJrml/V0Op0BtrNzQwTW8lMLf6DT6W7ZRhEj8mvYg/gvhNN5NWz/W4aO1+shhDAMI3YgAKKhabpfv36EkMbTp/nVrMNNIBAo37OXEKJWq+12+y1nUdI0fffddxNC6o4dO3vmrHCBdprf79/3wQeEEL1eb7Vag3ui3kiwRmcaG+uO1t3kJ8XCsuwHe/YSQhiG4fdai7wBodeFbOM25OfnE0LOnD316f9+JHYsgjrz3bc1n39GCLn//vvFjgVANBRFPfbYY0qlMhAIPPXvc06dOhVWNx5er/e/X/+vyooKQkheXp7FYtHpdDdfxYum6SeeeEIul7e1tf3772Zd/OGigPHemtvtXvXCS18cO0YIGTFihNFovOW1OdhGHMfNnzv325PfhlUb+Xy+t95488P9+wkheXl5ZrP5lm0UMTo1CQp4TU1NNpvN4/HI5fIhWXmJCTdbfStiXL3qqPrs47Y2N03TVVVV3U84WJbV6/UOh6O8vHzMmDG3/gWAsMGy7KJFi1599VVCiE6nK3jwQYvVEg5P3J1OZ/U/qvkLs8Fg2LJly8CBA/V6fXCpjxvx+XzTp09/5513CCHx8YYRBfkmsykcLn4Oh+PTQ1Un6+sJIUlJSaWlpWlpafzSGjf/RZZlly5d+sorrxBCtDpdfkFBUu+kcGgjl8tV84/qY0ePEkJiY2O3bt16zz33dKaNIgQHt+Ojjz4Kh2+t8CiKeuaZZ1iW7f5nGAgEdDodIaS8vLz7/xqAwNxu98yZM0O9cmWXGY3GXbt2/fDDDy6XKxAIdKZGLS0thYWF4Tl0gKKotLS0/fv3NzU1ud3uTtbI7XbPmjUrnNto586dt9VGEQB9G7ft9OnTy5YtO3jwYGeWp2VZlmXZ8PnS+/1+iqJuN2EaMGBASUnJfffd1yMJOPo2QOoCgcC+ffs2bNjwxRdftLS0dHPEqMfjCY6IYlnW5/MRQmiapmma+3nX1lumAgzDmM3mUaNGTZ061WKx3O7YQ6/Xu2vXrs2bN3/99dcOh6Ob1wWv1xvcyz5Yo45/djpTI5VKlZSUNG7cuClTphgMhttd8CoQCHz44YcbNmw4duxY99uI47jgW3Mc5/V6SZfayGg0jho1atq0aVar9c4ZH8pDttFFnfzu7tmzx2AwDBkSLitrlZeX9+rVKzs7+7Z+q2f/PyDbgAjAcRzLsi6Xq62tje/z69q/4/P5Ro8eXVJSMmTIEJ/P9/e//72srIwQUlBQwLKs3+9nGCYzMzM2NpZfnPtGl1t+ygZ/9eLXorjtvc45LhAI8DXib0a7VqNAIJCXl/f6668PGjTI5/NVVFTs37+fEDJ69GiHw8HPGRk0aBA/XuEmd2JyuZzf/UQmk3Vt7/WeaiNCyJo1a6ZMmZKQkOD3+6urq3fs2EEIycvL4+urVCozMzPj4uJu2UYqlYrfa61rbSRp4XLPLTmd+epzHPfmm2+q1eqysrJw+FZxHLd27VqNRpOTkxMO8QBIF99HqNPpdDpddy5jVVVV9fX1f/3rXx9++OH29vYLFy7wFySTyXTp0iWdTme1WtPT0zu5I2h3/l9TFCWXy2NiYmJiYrpTo08++eTs2bPvv//+uHHjPB7P+fPnVSqVRqPR6/V+v1+tVqemptrtdpVK1Zk7+27WqEfayOVylZWVWSyWp59+2uv18m2kUCgsFktTU1NMTIzVau3Tp48AbSRpyDZC6NKlSx9//LFMJmtpadHr9bf+hRC7fPlyZWUlTdMOhyMmJkbscAAiRHeuHxUVFSzL7tmz5+LFiwzDNDQ0EEKMRmNzc7NcLo+KikpJSWEYRuDVn7pToz179rAsW1ZW9vLLL3s8nnPnzhFCLBbLpUuXFAqFSqVKTk6WVo3Onj177ty50tLSOXPmtLW1nTx5khCSmJjY3NysUCiioqJSU1OVSiW/e0vPhRxp7pQnRqJYt25dIBDwer07d+689U+H3vr16wkhLMvy488BQFw+n++1114jhLS2tm7btu3kyZNOp5PjOJ1O197eLpPJzGazVquV0EKTbrd706ZNhJCWlpZ33333+PHjXq+X4ziVSuX3++Vyee/evQXY775nLVmyhOO4o0ePVlZWNjQ0tLa2chyn1Wrb2trkcjk/i1VaNRIFPp1Q8fl8/DQ5QsiyZcv43YRF5PF4Xn/9df74xRdfFD0eAKisrOQ3QiKEbN26tba2lvzc/8+vaW2z2fjBDVLpfq+srHS5XPzx22+/feTIEUKIXC7nOE6hUKjV6t69e/N9AFKpET/CjBDCsuzGjRvr6urIz1vM8G2UnJwsrRqJBdlGqOzbt6+9vZ0//vHHH6urq8WNp6KiorW1lT++ePHi4cOHxY0H4A7HcdzixYuD4wnq6+v379/PX5UVCgXfDcB3bEjlppnjuNmzZwdPv/rqq4MHD/I1ksvlcrk8JSWFH/gplRoRQkpLS4NzAvbt21dVVcVxHJ8OKhSKpKQkfrirhGokFnxAIcFx3IsvvthxXFLHPyuixPP88893PF26dCmmIwGIqLGx8csvv+Q3XqFpWiaTHT9+nGVZ/nqsUql69+7NP0ORyk1zQ0PD+fPn+WkmCoWC47j6+nqfz8cvN67T6SwWi4SeChFCAoFASUlJ8NTj8dTV1QUCAZVKxbeRzWaTVhuJCNlGSJw5c+bSpUvBr+nTTz/d2NjY1NQkVjzfffddc3PzH//4R/70D3/4w+nTp0WMBwC2bdv2ySefrFq1ihDSq1evhQsX+ny+pqamhIQEuVyenJwsrfENHMdt3Ljx448//u1vf0sIMZvN8+fPb2tru3LlSnx8vEKhSElJ6eQ8lPBRU1PjdDqzsrIIIUqlMi0t7fTp062trQaDgW+jO2eXk+6TTKtLC03TDQ0NRUVF/OncuXMbGxtFHCrh9XpPnTo1ZcoU/nT27NlnzpwJ200sAe4Ezz77bF5eHj9bjWVZp9OZk5OjVCqjo6N1Ol1SUpK0RmwQQlatWpWfn6/RaAghLMtevXo1Oztbo9Go1Wq9Xm8ymSQ3a6O1tfX777+fN28eIUShUOTl5fXv39/tdmu1Wq1WK8U2EhFmwIaEzWa7pkQul1utVlGCIYSkp6dfU8IPpRYlGAAghPDPUHjt7e3Nzc0ul8tkMjEMY7fbg0t1iRjhbblmkWKHw+FyuZxOZ2pqqkKhSEtL42skrQvzQw89FDz2er2tra2xsbEGg4GfmazRaDBio/PwMQEAiMbtdpOfF8N2u92JiYn8alGS6wa4RiAQ8Hg8Ho8nISHBYDAkJiZKvUYcx/l8PpfLlZiYyK+6xjCMpGskMGQbAACiOXv2LH/gcDgYhomLi0tNTQ2uby1ubF0TnNPrcDh0Op1Wq+VHbEh3X3WHwxE8YBgmNjaWn1wj3TYSBT4pAADR8MOnOI5rb29PTEyMj483Go38dhtih9ZF/LWZ79tI+Jmka8QPqOfbKD4+Pi4uzmw2K5XK8NluUxKQbQAAiIzfBc1sNvOjAaQ1YuMa/NR6ftNUk8mUmpoqxREbv8S3kclkstvtGo2GYRjptpEo8GEBAIiD36SUP2YYJi0tLTExUdI3zR1X8dFoNOnp6fHx8ZKuEelQqaioqPT0dKPRyK+JIm5UkoNsAwBARq3J4AAAC0pJREFUfEajsV+/flqtNmJumq1Wa0ZGRnR0dMTUKDExsV+/fjqdLmJqJCR8XgAA4qAoKvh8YejQoUlJSfyym+JG1R0da5SXl2c2m6OjoyVdI9Jh/9ihQ4cGl5OX+oMh4Un7SwAAIGn82EmGYQoKCmJjY6U+TZQQEhUVRQhRq9UjRoyIiYmJgBrx65UpFIrhw4fHxcVFQI1EgWwDAEA0ffv2JYQwDGM2m1UqVQTcMfOro+p0Oj55ioAa8QshRkVF8SM2IqBGokC2EUIymSwpKYll2TDpSJTJZBaLhfx8OwUA4SPyLmORkWp0pNfrI6xGQgqLq2CkMplMwaV7wkFcXNy5c+fEjoJQFGU2m3U6nVKpFDsWgHCBy1j4w31adyDbCKFw+/MRJvFQFPX111+LHQUAAAgHc1IAAAAgtNC3EUKBQMDn8xFCFAoFuuAAAOCOhb6NkHC5XMuXLzcajbGxsbGxsVardeHCha2traIEs2XLlvLy8l+WV1VVFRQU/PDDDwLE4PV6hw8ffuXKleu++swzz+zfv1+AMAAAQBTINnre+fPnk5KSCCHffPONy+VyuVwnTpwwGAw2m62hoUH4eL7//vvLly93LOE4rry8fNKkSVu3bjWZTALEEBUV1adPn9LS0l++5HK51q9ff//99wsQBgAAiAJPUnqY3+8fOXLkpk2bCgsLg6My9Xr9okWLMjIy8vLyGhsb+dVvxMJx3Ntvv7127dq6urr4+HjB3nf+/PmPPvro7NmzrxmsWlVVNWzYMJ1OJ1gkAAAgMPRt9LCPPvooOjq6Y6rBoyhqwoQJmZmZZWVlYsVGCOE47tlnn92yZUtNTY2QqQYhJCMj4/Lly42NjdfEU1JSsmjRIiEjAQAAgSHb6Ekcx61fv37FihXXnWtKUdTSpUvfeuutjtskConjuDlz5hw+fLiyspJhGIHfnabpuXPnvvnmmx0Lm5ubjx8/npOTI3AwAAAgJGQbPezw4cMDBw680av9+vX76quvgntMC8nn8xUVFW3evLm0tFSsRzkzZ87cuHGj3+8PlpSVlc2YMUOhUIgSDwAACAPZRg9zuVw3uXbK5XK32y1830ZNTc2wYcPS0tIWLFgwYcIEUdIdQojBYMjIyKirq+NPWZZdu3btvHnzRAkGAAAEg2yjh2m1Wq/Xe6NX29vbNRqN8Gt6btiw4de//vXy5ctXrlypVqsXLFggytMciqKee+65FStW8KenTp1yOp29e/cWPhIAABASso0elpubW1tbe6NXP//88wEDBtC00B/7/Pnz586dS1GUTCbbs2fP9u3b33//fYFj4A0fPvzTTz91Op2EkE2bNpWUlITJeuoAABA6yDZ6EkVRU6dOXbJkScdHFRzHHTp0iOM4juNeeumlOXPmCH997d+/f/BNNRpNdXX15MmTv/32W4HDIISo1epHH330wIEDgUCAnycsfAwAACAwZBs9bMyYMQqFYv369cFHFRzHVVRUFBYWrl69+vz58+PHjxc3QkKIzWZ75513cnNzHQ6H8O8+d+7c559//m9/+9uQIUO0Wq3wAQAAgMCwulcPk8lkBw4cyMzMPHLkyIoVKywWC0VR06dPHzFixO7duysqKuTysPjMx48ff+jQoQkTJggfUv/+/S9cuPCb3/xm+/bteIwCAHAnQN9Gz4uLizt16tTgwYOHDRsWFRUll8tzc3PnzJlz9OjRefPmHTx4UOARmnfddZfdbr+mkKKo1atXDxkyZO/evUIGQwiRyWTr1q3Lzc0dPHiwwG8NAACiCIv77MjDMMysWbNmzpzJD+CgKIofGXr06NFvvvlG4Bv6hx9++LrlNE2vWrVKyEiCJk6cOHHiRFHeGgAAhIdsI4T4OSAdSxiGyczMFCseAAAAUeBJCgAAAIQWsg0AAAAILWQbAAAAEFrINgAAACC0kG0AAABAaCHbAAAAgNBCtgEAAAChhWwDAAAAQgvZBgAAAIQWsg0AAAAILWQbAAAAEFrINgAAACC0kG0AAABAaCHbAAAAgNBCtgEAAAChJRc7AACAO1dCQkJWVlZMTAxFUWLH0jNsNltWVpbJZBI7kB4TFxeXlZUVHR0dMW0kCorjOLFjAAAAgEiGJykAAAAQWsg2AAAAILSQbQAAAEBoIdsAAACA0MKcFAAAgBvqOJcC01K6DH0bAACCeu+996qqqq770nfffbdmzRrJTRXkOG716tVXrlz5ZfkHH3zw2muv+Xw+UQLrpqtXr5aUlFitVpqmNRrN448/XltbK7nWCRPINgAABGU0GidPnnzdi9bLL79M07QUb6A3btzY2trasYTjuE2bNj311FMzZsxQKBRiBdZldXV1VqvV4XBUV1d7vd5Lly7NmjWrsLCwuLiYZVmxo5MerLcBACCoQCBgsVhqa2utVmvHcp/PFxcXd/bsWb1eL1ZsXcNxXEZGxocffmi32/kSlmVfeeWVvXv3VlRUqNVqccPrgp9++ik5OfnQoUOZmZkdy/1+/4gRI8aOHfv73/9erNgkCn0bAACCkslkxcXF27dvv6a8trZ2wIABvXr1EiWqHsSybHFxcU1NzcGDB6WYahBCVq5cWVxcfE2qQQiRy+V//vOfX3jhBafTKUpg0oVsAwBAaNOnT3/11Vf9fn/HwmXLlj333HNSfIzSUSAQKCws9Hq9f/nLX+RySU5ECAQCGzZsWLhw4XVfNZlM2dnZBw8eFDgqqUO2AQAgtOTkZKVSeeLEiWDJ1atXP//889zcXBGj6j6PxzN+/Pj6+votW7bQtFSvLy0tLQzDGAyGG/3AE0888dlnnwkZUgSQ6rcBAEC6KIoqKSl54403giUVFRWTJ09WqVQiRtVNNTU1AwYMyMnJcbvdu3fvFjucrvN6vRqN5iadTFqttqWlRciQIgCyDQAAERQWFm7fvt3j8RBCOI574YUXZs2aJXZQ3fLkk0+uXLly8eLFlZWVRUVFJ0+eFDuiLpLL5TefsuvxeDQajWDxRAZkGwAAIoiOjs7Pzz906BAhpKmpqampqW/fvmIH1S2bN29+7LHHKIpKT0/fvn17QUGBy+USO6iu0Ol0P/30003Gge7cubN///5ChhQBkG0AAIiAoqhFixbxa3nt2LFj6dKl0h3owMvOzg4+fRg3blxRUVF+fr4Ul6aIiorKycnZtWtXx0Kfz+dwOAghbW1tBw4cGDVqlEjRSRXW2wAAEIff74+Pjz927Fhubm5tbW1iYqLYEXXRL9fbIIQEAoGCgoJ77rlnzZo1kptoU19fP3jw4MbGxri4OL7kwoULI0eOXLt27Y4dOzwez7Zt2yRXKXFJcnoSAEAEkMvlRUVFkydPttvtCQkJYofTw2QyWXl5ud1uHz58+Lhx48QO5/b06dNn9erVmZmZ7777bnZ2tlwuN5lM27Zty8rKUiqVFy5cQKpxu9C3AQAgmjNnzmRmZpaWlo4ZM0bsWLqO47h77733vffes9ls17zU2Ng4dOjQ6urq3r17ixJbl3Ecd+TIkRkzZpw/f95mszkcjosXLy5evNjpdP7444/r1q1jGEbsGKUE2QYAAMD1cRzndru9Xi9FUVqtViaTcRz32WefWSyWjo+N4JaQbQAAAEBoSXsINAAAAIQ/ZBsAAAAQWsg2AAAAILSQbQAAAEBoIdsAAACA0EK2AQAAAKGFbAMAAABCC9kGAAAAhBayDQAAAAgtZBsAAAAQWsg2AAAAILSQbQAAAEBoIdsAAACA0EK2AQAAAKGFbAMAAABCC9kGAAAAhBayDQAAAAgtZBsAAAAQWsg2AAAAILSQbQAAAEBoIdsAAACA0EK2AQAAAKGFbAMAAABCC9kGAAAAhBayDQAAAAgtZBsAAAAQWv8HPM4OrYMizEAAAAAASUVORK5CYII=;clipPath=inset(6.02% 4.67% 4.82% 60.33%);" vertex="1" parent="1">
          <mxGeometry x="349.99999999999994" y="468.5" width="283.0743243243243" height="399" as="geometry" />
        </mxCell>
        <mxCell id="SUoC9XZfshMG5ti-oYJR-8" value="" style="group" vertex="1" connectable="0" parent="1">
          <mxGeometry x="160" y="410" width="210.21" height="494.5" as="geometry" />
        </mxCell>
        <mxCell id="SUoC9XZfshMG5ti-oYJR-1" value="" style="shape=image;verticalLabelPosition=bottom;labelBackgroundColor=default;verticalAlign=top;aspect=fixed;imageAspect=0;image=data:image/png,iVBORw0KGgoAAAANSUhEUgAAAPIAAAG0CAIAAACHfO02AAAACXBIWXMAAA7EAAAOxAGVKw4bAAAgAElEQVR4nOyddVwUzxvHn72iW1IEGyVEQRBpFBEVpMTCRv3aYosdXwW7ML4qKkoYGIiBSJiIYiIm3d0c17u/P87fiQhIHYfHvl/8wc7Ozjy797m52ZlnnkEwDAMcHOGCIGgDcHDaH1zWOEIILmscIQSXNY4QgssaRwjBZY0jhOCyxhFCcFnjCCG4rHGEEFzWOEIILmscIYQkaANwOgsYhpWXl+fm5ubl5QnaltbQvXt3DQ0NKSkpBEFwWeMAk8m8evWqt7d3Tk6OoG1pEwiCDBo0aPPmzQjuwdeVwTDs6dOnbm5uJSUl3BQikUgi/X2NHYZhbDYbRVHu4d93AzjtBYZhvr6+mzZtQlEUQRA7Oztvb28DAwMymSxo01oDlUp9//79jh07nj59irfWXZeTJ08uXrwYw7Du3bvfuXNHX18fQRBBG9VWMAx7+fIlLusuSkpKysCBA9ls9qBBg16+fCkqKipoi9oTfICvK4Jh2Ny5c9lstrS0dGxsrJBpGnBZd02Sk5MfP36MIMiJEyfk5eUFbU77g8u6KxIYGAgAEhIS7u7ugraFL+Cy7opEREQAgLu7O4VCEbQtfAGXdZcDRdHU1FQAsLCwELQt/AKXdZcDwzAOhwMAf+n4dHPAZY0jhOCzjD/AMKyLDOEzGAzunVKpVN5sc2cDQZC2zA119emY6urq2NjY+/fv3717t6SkhEajCdoiHBAXF1dRUXF0dBw7dqyFhYWYmFiLi8C6KuXl5bNmzRIREeHD54LTbkhISGzbto1Kpbbow+2KrTWKoufPn1+0aBGTyQQAAoHQu08fIyPj3r16KiurCNo6vsNgMjdv2kin0+3tx44dO0bQ5tQHw7C8vNy0tPRXr15lZWVy9SkpKXnp0iUnJ6dm9ky6nKxZLNa0adOuXbuGYRiFQnFxdV24YKGenp6wjuD+Tg2VqtW/X1VV1br13ps2bhS0OY1Cp9MTXr/2O3bswYMHHA4bQZA1a9bs3r2bSCT+8dqu9crIZrPNzMwSEhIAYPDgwUeOHB0yZIgQuK0JJaKiohbm5uZmZk+fPl2yZEl6etrevXtzc3MvXbr0x4+sCw3wYRg2d+5crqadnJzv3LlrYGCAa7qTgyCIpaXlw4cPuZNHQUFBO3fu/GMXowvJ+u7duwEBAQDg6Dj+9JnTMjIygrYIp7koKytfvnxlmIkJAOzYseP9+/dN5+8qsqbT6bNmzQIADQ0NPz8/cTFxQVuE0zKkpaVP/3dGQUGBw+G4u7s3PeLeVWR96dKl0tJSAoGwf/8BoXTF7Ar07t1r69ZtAJCamhodHd1Ezi4haxRFN27cCADGxsNGjRolaHNwWs/UqVN79uoFABs2bGiih90lRkIyMzOLi4sBYM6cOR2/rBpF0VoarfMMpHKnNgCAyWRW19QI2pyfUCgUkT8Ns4qIiMyYPmPHju3v37+vrKyUlZVtMFuXGLe+ceOGm5sbgiBpaendunXrsHrZbPaVq1cCLgRkZGSgWKfxvsCwoqIiDMMkJSUlJCUFbc1PJMQlbGxsVq9era6u3kS2jx+TTE1NAODly5fGxsYN5ukSrfWdO3cAoE/fvh2paRaLtXTZsqDASx1WY0upqamp6UytNQCkpaXeDr9988ZNfX39xvL07KmppKRUVFT05MmTLi3rgoICAFBVUe3ISoNDQrialpKSHGk7XF5euiNr/+vgcDhv3375mPituKhowYIFMTExjXk4iYqKysjKFhUV8UL2/E6XkDXXL09SUqLDasQw7PR//wGAjIx0RKSftrYGPu/zRxgMttfyw0GB4UlJH58/f25ra9tgNjKZLCYqBv//WBukS4yEdDwVlZXpGekAMGasuY6OJq7p5iAiQlq0yI3r8pGYmNiWonBZ8wU2m42hGADIyEg1Jz+GYUGBkbv+vdB0tpcvPwVcuNfgqSdP3l8OiWrw1Nev2evWHl+96ui7dymNjRD4+4cfOXyl3tnKSuq6tceZTPafb6CdkJQUJxIJAMB1rmw1uKzbBKNtT/9nOQzWyRPXAy9FZGYWNZEtK7MwIeFLg6dSU3Pfvfv+e3peXqnH1M3Gw3RtRgxd+I/Pt2/ZDV7+Mv7z9m3/PXiQUDeRTmfeCX/G4XSaMZxmg8u6Tdy4fn3lypVJSUncRa+tJjr6reFQbY9pY4KDItvLNi7Pn300Nh7o5mY1bpzpeCfLx48a9aZwdbPf4H28tLS6fQ0QCF3ilZF/uLm5HT58+OzZM2bm5jOmz3BwcJCSalavoy4Yhl28cHflag8VZXl3d2+vFe5iYj/W7NTU0M75342JeSkjLTV5ymgU/dlJqKqqPXP69pPHCfIKch7TxjTWu9Ab1MfP7yqNxiSRiB/eJy/zmtyYGeYWg1TV5L3Xnzh5ag23J1DPyMTEtDOnb6amZvXr18tz7nh9/T4A8CAigcFkyslJXTgXPnHyaDlZCWlpibdvv9+4HiUqJjp3ntPw4bpnTt+OevhCTl52/nyX4aY6LX0+rQCXdcNgGFZSWvr40aPExMTs7OwmHGsIBAKGYc+ePn329Km6urqrq9ucOXOkpFswnJeWVlBaWmlkpIUgoKys8PxZku0oQwBgMFgzZ+wcMKDXgYMrWCz28WOhZeU1cnISAECrZUyZtHm4qf7hI6toNOahQ5epVEaPHoq/Fz5gQI9hxrr/7rxQU0PrP6CniYl2Y2YgCLJ+/XT70ctv3Xzm6mZR7zX3yZPE9WuPbdzsOXjwjKSkjHmeu3z2LBk50qCwsPzJk/cMBt3La/KAgRonT9x68SLJ0nLwgUNeGekFixbuMRmubz9muN+JtYmJ6fPn7Xrw0E9Nje8+Obis64NhWHJy8sGDB69fD6XT6S26Nicn5+jRI35+x6ZO9Wh+tyQkONJ9ki2BgADA1KmjAwLujrQ1QBAk4v4rERHKjp2e3Lbz0BEv5/FrubK+efOpqlq3jZumc8V34uQau1HLGpQ1k8lWUpY/dCjQY+q4nTvnNm2JhITI4SMrZ8/cYTxsYN3SWCz2Bu/jR/3WGBlpAYC6upK8vPS6NX4WFoMA4POnlOhYPzGxH/PeMtJiy5a7IQiiqaky0taYSCRMmGCJIIi6utLtW0Pev/uupmbSzCfTavC+9S9wOJyz/v7W1lZBQYFcTYuKivbr13+gtk5jf2pq3XmXEwgEe/sxwSEh6703NGdtEgDU1jLu3n3u6GjOXVtqN9oo4VVSSUk1ALx8mTTeyZLXHyCRCA7jLbn/v4xPcnK25jWoZDLRwcHy98LpdOY/8/ey2ewnT8/Exb1/+zaZxeKE3XrBYjX6lTMw6Ddl6uh1a47VfVPMSC8AIAwd2r9uNiaLmZtbCgB29iY8TQOAmfnPBUcyMtJDh2rzDsUlxMrKy5vzWNoI3lr/hM1mb9269ejRIwBAIpEcx4+fM3uOiYlJE3FyORzO2HFj8/Jye/TQcHd39/T01NDQAIDixifA6vEo9n1+XsGY0Yt5KUwmMzjowXIv99ycfCtrw7qZuU01AOTk5svJSdc7VVRUWq/wM6dvKynJrlvvgSDI0WOrly87ePLU+kMHg8aMNWrMHgRBVq6aPN5xzaWLD+zH/GhWy8qr5eQk6nZLSCSimppyTTUdAGSkf3EsERH9xV1JIGv7cVn/xN/f/9ixowCg1r378eMnRo4Y8cdplNvh4WQS+fz5C/b29pKtchsKuHDn9JktdqOH8lISEr4vW7J34SIXDU31woJfvh7FxVXcfzQbP1WXFy8+/LNgIvcuDAz7ea2YMmmit7W1IZnc1C+JiAj50OEVEyd49++vyU1RUpItKqpAUYzbUwIAJpOdnpYtI9tJV2PgnZAffExK2rx5E4Zh3bt3v3f3nu3Ikc2ZGrS2sr59+/aECRNap+nv33PT0nIsrX5x6zE07EcikxNefbWxMbh6JZrBYHHTqVR66NUfEy42NoYhwZFs9o++RFUV7cb1Btzq+/bVfPEikTdIMnToADabzWFz/jgUPXCgxrLlU1auPMg91NBQlpOVioh4xcsQ9fB1t25yamoKLb7nDgFvrQEAUBT18fGh0WgUCuXMmbN9+vRp5oVycg37+zaT66ExDo4WoqK/hHgkEJDJk0cFBt4/emxlSEjkvLm+M2bYM1ns8+fumlsMragoA4DR9sZXrjxcuGD/5MkjaDSm/9nwkbamHA6jXvmzZo9zdlrNYbPNzHSzsopPnrzu47s09Fr02TN3Fix0asIwBEHmeI69f+9ZdRUVAIhEwr4Dy+bO2ZWSkj14cJ+kpIxzZ2+fPruBROqkzSIuawCA7OzsBxH3AcDNbYKZmVnHVIphmKmpjrZOA18hDw+716+/EImEEyfX3LsXf+/ec1lZ6e075ikry2VlFQAAhUI6f2FjWNjz8PCniorye/YtkZGRKCoqq1dO796qMbEnr1yOunYtSlNT/Vro7u7du40cYfA87gOdzqr7dfpngXO3br+sWSaRiP+d8X7//huFQgIAPb1eYeH7QoIfXLkc2bdvzzv3DqqoyAGAlbU+8/+/JwAwfryZaJ3Xx8lTRsjI/PwdmznLXk6uIzy8cVkDAERFRTGZTAKB4Ok5l0BohxaIQqYQiAQAKC9voMvLBUEQK2uDBk/JyknajjICAAKB6ORk5uT085umoPDjTZFMJk2YYDVhghXvlLKy3O9FdesmvXiJa90UGVmJsWNN62UzNNT6/VolJVk7u2E8a1VV5VeumlIvj6amct3D/lo96h7q6PSqe6iv3/f3WupSVUXlDoyKtG07m076I9LBvHnzGgBk5eQMDIa0S4HS0lLcnsy9u09evfraFZYgtR0qlX7gQBC33z9k8OC2FIW31gAAubl5ANC7V+/2imSOIMjixUvmes6pqaE6jvMaZjJIWrrFk+pdjQ8fvmRm5AKAgYGhiUmbpmxwWQMA0BkMAGjdaEZjuLm6vn3z5tSpkzQa7VHsy3YsWbjR0NA89d9/bdxTD5c1vyCRSD4+PpaWlufO+aenZ2DQWfohGIqmp6ejKCovLy+v0IlG6CTExUeOtF2ydKlim5ec4rLmIwQCYdy4cWPHjmWz2Z1F1ABUKlVHe2B1dfUcz7ne3t6CNucnRAKhmR4HfwSXNd9BEKRTbT7EJJO5M01EIpHSmQxrR3BZ8x3uMEjnaa25PlXcf9DONESDALTXok9c1nwERdFXr175+/snp6RApxEQiqJUai0AXLp0MTqq4eWPAkFSStJulN3MmTPbHswWlzW/QFF03/79e3x9WCzWn3MLgvy8vPy8PEFb8QuPHz0KDg6+eu2aRo8ef87dOLis+cXde/f+3bkDAMgUSp8B2pJSePibP5D67Ut5SfGnT0nz5nrevh3eFo9WXNb84uiRwwAgIirqc/6KgZVtu8zJCzfV5aX/Lp79IuZhXFzcmzdvTE3rz/A3H/xZ84Wq6uovX74CgKW941AbO1zTzUFKTsFz7Rbus+LuhdJq8MfNFxgMBtdlR75bA+sLcRpDWk6eSCJBk4HImgPeCRESyosKD25YUS+x30DdGas2tLFkWk31f7s2L92xj/j3DHLjshYS6LXUb28Ttp8NIpJ/uju3S/hqNov1KjYSw/a0vagOA5e18EAREemnq0+i4Ntd47LuAtBqasIu/Pci+gGJTLZxcLGfMpNEJgMAi8EIv3jmWeQ9FOWYjxrrNHsBWUQEAFAOJ/bW1Yc3rtBqa81G2ds4uQv6DloMLmshB+Vwdi2e1bP/wI1+/hw2K+jIvsyUr4u27cUADq1bKiIquvbAcYRAvOV/Yv+qheuOnEEIhKDDez6/S1i8fY+ElExc5J0z/24S9E20GFzWwkNBXu4y19HIz8FExOf8lZSkDwQi0dN7Ozfdy/fwKvexhdmZ1RXl+VkZB67dJxCJADB/i8/G6a4pie8UVFSjbl45cfexhIwsADhMn0utqkx616bhto4Hl7XwoKikvPVkALHOZlmSsnKvn8bKKSo/uRfGSxSVlPry7nVJQZ68surT+7frpie9eanZt/9Ag6Hi0j+9MizHOYdd8u+YW2gvcFkLD0QSSUFZpd4rY0VpcXlJyae3P5tbTS1tRbXuyZ8+lBUX1U3vpqbeo0//wvw8SWnZup50ElJ/3y7auKyFHCU19f66+s6ei3gpKUkf5LopKaupk4mk2eu38dIzv38VERUVoVBeRUdgGMZTdkVJU5HkOyf4LKOQY2RlezfkIq3mRzD22uqqfSsXslmMwaaWMeE3qst/hBZhs1gH1yyuqSjvpTMo49uXgsx0bjqKomEXz/x1k/94ay3kaBsNGzjEcNPsSU6z5gPAnUtnLcY4KqlrAsCI8W7rPJzd/1lGplAirwVrDRrSW1efQCBMXbp605xJkxetkJCWiY+8Jy4hKSPTQASSzgwuayFBTkll9f4ThN+2vkYQgpfv0ffPYuNjoxACYcqS1YPNrLgdjFlrNw+1HBEXHcFiscZNnWk80p6bPsrdo6+O/pN7t+h02ii3ydpGw7+8Tfi95M7M32QrThOIiosPNmsgxDUAEIhEAytbA6v62xwiCEFvuIXecIvf0pHeOnq9dfR4KbrGw9vXWn7zl/WZcHCaAy5rHCEElzWOEILLGkcIwWWNI4TgIyF/BxiKhgeeKy0urJtIoVBcZy8QkxRwLNbY29f76+l37/WH2NUdCS7rvwMMw24HnLEcO547k8KFRCYR2iloXVuIDQuVlJTEZY3TSszsxvbRa5/A8sINLmthgFFbG3XjctLbBCUV1ZEuE3v01UIQpDQ/9+WjKMux4++HXJSUlpZTVjO2sSUQiABQW131If65kbUtd5kMg0779OrFEAsbDMPiH9579TiazWYZmVubj3UmkkgcNvvaf0dcPRc9uxeWnZo8Y/Wm2uqqyGtB3z997K+tO2rCVEHffQPgr4x/PZUlxWsmO+SkJY90mtCjd9/t/0x/FHYNAGoqyl9E3tm1cBZZRETX2NTfd2teeir3klcxDzbNmZST+o17+P7Z49sXz2IYdnqH9+M7N01HjbEY7RAdFurvswUAMBSNj7zrt3Fl+tfPhla2ZYX5y5xH1VZX2bpMFBEX3/7PNGpVpaDuvTHw1vpv4uKRfdIKP0Oaj3J2HzTcIvjYPgMLm5mrN3E9OgYMGeo9Y8KwEaMB4EN83IHLt/vpGwKAyQi7t09j1fv0B4CER1FOU2e+innYc4AuhmHxUfctxzpVlpa8e/742J1HFBFRAOinM2il+7j5m3cDQGFenq3rFIeZ8wDg6AYve/cpExZ4cavrq6231GW0AJ5Fk+Ct9d+EgZmlxRhH3p+KRk8MRV9ERYybOovnHq3ep7/WoCHvnj0CgF5aA/sO+rGZmLWDa3z0AxRFmXRadmqy+0Kv93FPAADlsD+9jjewHCEtJ7fvcjiZIsJhs2oqyr8nvisr+7FRr5i4mIWDM/f/pJdxNk7uvOr6Dx6qNahN2xfxA7y1/pvQHTqs3isjvbamtrZWRuGXXSk0+2lVVZQB9JHrpsjTn4bWwKqyUmplRW5aSu+BOiqavei02urysqKcrG5q6jIK3QDDPr1+GRt2DSGR1XpoyMgpEP/vtScuISUq9mMf6NKSYolfw2TKKHS6yFW4rP9uKCJiIiKU2uoqiqgYLzE/K7NH7371cpIpIoPNLN8/f5z6JcnYxg5BCINNrd4/f5T+9fNIpwkIgrx5En3d/+QO/xAxSSkEQWrKyy75Hfy9RoVu3eg0mlgdZVMry/l0d60G74T83RCIRN2hJo/v3uKlVJQUJb58rmfSwF7ApnbjXkTd//b+ta6xKQCY2Y2Nj4549/zxsJGjAeDrh7f6wy3EpaS5Dfy3D2/oDPrvhWj0G/jmyc9g7wVZ6Z/fv233+2ojuKz/emav2RwWcObuJf/CnMyvbxO2zfMYP32Ogora7zm19A2/J74lU0SkZOUAQENLOynhpZScvKSsPAAMHGIUGRqc9PJ5QXZm9PWQJ3duiouJfXoVV6+Q6SvWnz/g8+R2aFFezsf4Z/tWLTI2b9jPW4DgnZC/AwRBXOcuklduQKwqmr32Bt0KPXs84nqIorLq5IVexrZjAEBWUXmk6+S6OYlk8qy1WyWkpLkxQ0hk8twNO+QUlbhnB5tZzVu/7fKpI9SaaiNz6/mbdw8f7ZCRmjzQcNj4Wf/w4kpqamnvCbxx/eyJa+dODdAd7OVzuDg/T1VDEzoTuKz/DhACYeyUmY2d7aamvmCLT71EmW6KFmOd6iWa2zv+LBNB6mYgEAiWjq6Wjj83SDcZNZb7j91Ej7qFqPfpv9znMO+wR98G9ksXLHgnBEcIwWWNI4TgssYRQnBZ8wVJCUmKCAUAUj5/xDrNjoydn9y0VDaLBQBycm2KTIK/MvIFMTFRC3OLsLBbb+Kent+z3WnmPJE60yU4v4NhWPq3z/vXL8cwjEQiWVtbt6U0XNb8Yt26dVFRD6lU6oXDe66c9iP9VeFjBAKVWoNyOAAwffqMfv3qz5K2CPxZ8ws9Pb2goODFixfl5ubSaqmCNufvgEQiTZ3qsW/fvjZG/cNlzUdGjhz5/HlcRETE9+TkztXDxqCwsFBZRVnQdvyCtJTUyJEj9fX12x7JEpc1f1FQUPDw8Phzvo6lrKx8zpzZfn7HyH/PnnQtAh8J6YqEhYXFxsa8fdvpXJTaC1zWXQ4Oh+PvfwZF0XPnzwvaFn6By7rL8SohISkpCQDCbt0sKSkRtDl8AZd11wLDsPPnznH3Y6dSqcHBwYK2iC/gsu5aFBQW3rkTzjsMCQlhMBgCtIdP4LLuWlwPDa2uruYdJiV9fPb8uQDt4RO4rLsQLDb76rVra9eu69evPwAMH246Y8bMoMBAQdvV/uDj1j/h9jiFmJrq6osBAZqamhEREQCgqKh47NixxMSPbDZbyOb2hepmWo20tDQAlJWVCdoQ/iInJ1fPM45AIAwerC8oe/gH3gkBANDq3x8AUtNSK6uqBG0LTjuAyxoAwGT4cACg02gREfcFbQtOO4DLGgDAwtxcUVEJAPyOHaPTGwiOgfN3gcsaAEBGRmb+/PkA8P79+yNHjgjaHJy2gsv6BwsWLOjfvz8A+Pr6Xrx4qXP5keK0EFzWP5CVlfU/d15OTo7NZi1dunjJ0iV5+fmCNgqnleADfD/RHzQoODhk2rRppaUlFwMCwsPDx44da2Vp1advXylBbzvUvtBoNEGbwF9wWf8EQRBzc/PYR49WeHnFxMSUl5UFBQZyJ+F44XSFA6HvYuGyrk+vnj1DQ0NjYmPPnz//+FEs14NC6HUgZOCybgASiWQ3atQoW9va2trMrKzsrCwhG/XbuHFDZmamoK3gI7isGwVBEAkJCe2BA7UHDhS0Le3M3r17AYRZ1vhICI4QgssaRwjBZY0jhOCyxhFCcFnjCCG4rHGEEFzWOEIILmscIQSXNY4QgssaRwjBZY0jhOCyxhFCcFnjCCECk3VGRoaCgkKDkcMTEhKcnZ073iQcoUFgskZRtKyszMHBoba2tt4pNptdU1MjEKtwhANB+lt379599OjRc+bMCQkJEbJVVVwwDEtPzwi5HJz4IZHJZAranJ+kp6cBwIv4Fy4uLoK25Sdqamr29vajR4+mUChtLEqQskYQ5Pjx43p6epGRkaNHjxagJfwAw7Bz589v2rih0/7yFBcVRUU9FLQVv3DxYoCNzQh/f39FRcW2lCPg1TEiIiI3b960tLTMyMjgxnesR2hoqIGBQe/evXkpHA5n586dmzdvJhKJHWhpi4mLi1uzehWLxUIQREJCjEAQwp+j9oVOZzGZzNjYmJUrV164cKEtn6/gF33p6uquWbPGyckpOjr69w35bG1tzczM7ty506tXLwDgcDiTJk3y8PBo+9Z9/Gbf/v0sFotMJh85um7iJBsKRfCPupOTllowb96uhFeJt2+HfUxKGqzf+lCunUIca9asqaqqunTp0u+nZGVl4+Lixo0bl5aWxuFwJk+e7OHh4ezs3Mn74lRq7ds3bwBg5EgTj2m2uKabQ+8+Ktu2z0MQBEXR58+etaWoTiFrEol08+bNZcuW5eXl/X5WRkYmLi7O0dHR1tZ26tSpnV/TAFBLq2WxWACg2VOtmdYWFpZlZPwhjlRlZU1eXnGDp8rLqwrySxs8haJoRkZBeloeh4M2VnJubnFubv2SWSzO9+9ZKNroVe2OendlMpkEAHV3AmkFnULWAKChoXH06FE3N7cGtwSQlJRUVFT8+PGjrq5u59d0K0BRbNGCffZ2XgwGu4lskQ9e7d51scFTt249PXToyu/pHA66ZPHBf+b5LF16YMb0HTRawwMy27edsx+9vLi4om5iWVmVi9O6pk3qnHQWWQPA9OnTpaSkfHx8uO0cDzab7ejo6OXllZKS4uzsnJqaKigLf6e9hu3S0wvodJb+4P6RD161S4E8YmPfFeSX3Is4dDt8v4yMZPjtRjdAwlDYuOG/jmyb+UcnkjWBQAgJCdm/f//hw4d5iWw228XFZf78+U5OTrKyss+fP3d0dExPTxegnXW5cfPGxk2bkpNT2hj2KSjwgZv7iNlzxgcFRtQtCsOwmhr6o0dv371NZrN/+R3DMKyqihYb8ybxQ1oTvQsmgyUpJU4gIAgC3brJMBiNfg8XLJz4+XPanfD4xjJgGJaSkhf5ID49rZBnZE5OcVZWIYpiHz+m5+SUYBiGYRidznr2LPH162/cL0lNDeNR7NvED2kd9p3pXK8yCgoKAQEBzs7OI0eO5KYcP37c09OTN5cuKysbHx/v4OAQExPTGXbxcXF22bd3r9+xo9Y2I+bMnm1rayshIdHSQqhU+oMH8fcjDomKkr3X+aWnFfTuowoAGIZdu/bowL5A42EDWUx2fn65tY0h9xIMwwIvRR47dtXERJtGY5aUVJkM122w8JG2Q3fvvvA64TtCQJ49+7Bi5dTGzJCSFvPzWztt2mYDw/7q6t3qna2spC5dcrCwsERPr9eRw1b8y8cAACAASURBVFflFeSO+a2QlZWMiX5XWFiW8CpJRJS8ZOmkyyFRHA4WH5/YU1MxM6uIxWQv85py6uSNXr0Uv37JlpSSCLi4WUSE3NJH1FIEpgxZWdlFixb9nj5+/PhTp07xxu+WLVtWL4O0tPTjx487oIddWVn19OmTxMQPOTm5TTTGEhKSKIrGREfFREdpavacPHnyzJkzRcXEml/Rw8jXg4f0k5YWwzBs7Diz69cfrVk7BQBSU/MP7Au8em23Zk9lAPiUlDFz5g4TEx0A+JSUefx4aNjtfaqq8gDw7m3yrFk77O2H/164iAhp27b506Zt1tHp639uo5xcU9+6wUP6TJs+bu0av0uBW4jEX37Jt27x7927+7nzG0gkIoeD7th+fuuWM4ePeAHA1asPDx3yMjPXRRDk6ZP3DyLiQq/vlleQ4nBQp/FrjhwKuXZ9t5gYhclkj3dc8+F9mvEwreY/nNYhMFnLy8t7e3v/no4gyD///FP3sME8/DMMw7CMjIwjR45evhxCpbZsgjAzM2PPHt+DBw9MnjylmdvhoSgaFBSxevVUAEAQZMoUu5kzt3mtcCeTSTeuP3KfaKuhqcTNqaPbc9w489LScgC4di165sxxKio/tu0aYtBv1CiTBu8lNva9r2+Am9vIr18ylJTkMQyj0VhiYuTGnqGXl7uT45rAS5EzZ9nzEktKKmNjXr146U8iEQGASCSsWj3FymJBWVkNAOjr9+VqmpvZfsxweQUpbjZ9/QHKyrJiYhQAoFBIAwb0Tk3LFGZZd05QFA0ODt6wwbu8vJybIiIioqqq1sSMV3V1dVFRIfd/AoFgZWU9fcYMIyOjmzdvNqfGjIyil/GJN2+q3LnzBAA4HE5BfuGzp0k2IwanpmQ5uYyoqz8trR5xceUAkJKSNXKkcd1T/bV6pKbk1Cs8IeHrrp3ngi/vUFKS3bb13LatZ7du85w10zcwaIOoaMN+F6KilAOHvCa5b7C0HCwuIfLDyPQCVbVu4uIivGxSUmIamqoF+eUAMHBg77qWqKr9nPcmEAhqasp1DpGO2fwSl/VPOByOr6/v3r17UBQlEomjRtnNnj3b1NRUQkKisbYNRVEXF5eiokJlZWU3twlz5szp168fgUAoLilpZqUXLtyZ4G5bt2dMIJAuXrxrbaNPEaHUexfkvTWKUCjsRk79Uvi5O4uXTlRWlgOAjZtmzp/nu2P7BTqtpunpIV3dXkuWTvLyOnTMbzU3hUwmstm/VIdhwKAzCEQCANTzC+gMI7C4rH9y4cKFPXt8MQxTVlY5duyYvb39Hz+h8PBwFpt1/MRJZyenBn1amoZKZdy/G3f95h4NjZ8tnLW18fBhc/LyynR0er+I++DgMIxnRkLCF+4/Orq9X8R9sLEZxDv1OuGLoqJsvfKZLBZ3dgMAKBTS/gPLhhnPmj9/wh9dDzznjouMfHn2TDj3sHef7sVFZYWFFcrKP6ooLCzPyy9VV1dIaOcByfahEw3wCZYvX79u3LiBq+nbt8PHjBnTnFbHyNj43t17M6ZPb4WmASDqYUK//ho9evwy7CArK24zYuitm09cXK0i7sc9efIRRVE2mxN269nHj2ncPO4TR169+jAh4RuKYmw258rlmOTk+j0QABgzxmz/vkv5+WUYhlGpDL9joTrafUOvPUxN/cN0JoVCPnhoeVDQHe6hlJTY9BnjVq86WlZWjWFYRQV11cojHlPtJSVFW3HXHQDeWgMAoCi6e/cuKpVKJpNPnz6trd3cgNYqysp/ztQIGIYlJHyaNXvc79+fmbPGBVy4s2Ch05mzG7dsOb1tC1VEVHTAgF67di+Me/4OADQ0lE79571l82kGnSYqKqar12fnzn8+JiXXK8fZxSIvv8TNdT2ZBAQixdra4PLVnc+efjxy+PK+/UtFRH5++j17qioo/PLN7NVLxdd3aWhoNNc8rxUTDx+66uiwmkIGFCU6jLfw8pqIIIiCgjSJ9LNxVFGRr1tO9+7d5OR+brvTQ0NJQUGm1U+s+SBdYfsIGxubR48ejRkz5urVaw1myM7ONjAYQqfTJ0xw9/f3b7t7YFl5ua6OTnV11RxP18NHlrelKDabU1VFJZNJkpJi9b4A3FMUMllCUrSJ3xY6nUmtqRUVE5WQ+NG4cj/0VnSCa2sZtFqamLiYmBiFH33o5O+5JsNmsFjsLVu2rlmzprFsZmZmiYkfli1b1tgmmnhrDQAQFR1Fp9MRhDBv/vx2cXmVkZZWUlKqrq568CCutHSOgkLrNwojkYjy8g33cJo4VRdRUUq9cY9WK1JcXKTueEj7gmHY9euxLBYbAPr27duWonBZAwC8ef0aAGRlZYYaGrZLgUQiceLEiT4+u3NzCuztlk6cPFpcrJN2QzsP799/ux76EABUVVWtrK3bUhQuawCA7JxcAOjdp0/bV9HxWLZsWWxsbHz8i2/f0nduP9VexQo9oqJiBw4elJeTa0sh+EgIAAB3I6/23VNUUlLy6rVrCxculpGRQRAC0pngGSloQ36BSCQaGRmHhoY6jHNo48PHW2s+Iicru3fvnu3bt+Xl5bNYnWjl+dSpU5OTv9vYjNi7d6+gbfmJvLyCklKbVubywGXNd8TExPr06f3nfB2ImJgYAEhJSQ0YMEDQtvAFvBOCI4TgrTV/YTAY0dHRr1+/ptHqB68SIHl5uQCQlJTk7b1e0Lb8RFpaxsLC0tR0eNvHWHFZ85GkpCRPT8/Pnz8J2pCGSUtL9fPzE7QVv4Agu21GjDj932nlNkzfAt4J4R+lpaWTJk3qtJrunGAYFhMd7ek5p42LRPHWml+cPHkyKysTAKa62u1YOVOlW2t8oboU3zMLF204HP8m6fHjxw8fPhw3blyri8JlzS+ePn0KAKrKSmd9l4s14rOPU5chAzUvHFo3yHYOk8mKiopqi6zxTgi/oNFoANCvtzqu6ebTX1NZVIQMAGVlDYfyaSa4rPkL0kKnoui4D9sPXaqiMuqlYxgWev/5If9bTV/uf/VhZQ2tXuLd2Ndf0xoIl4Vi2H/B93MKyuqlp2bmB9yIaZHZjRH/7mvU8/fNz8+dbmx7vbisOxdRcYnbD1+6+eBFvfSaWsbSLccPnv3D+sizVx5W1tABICT82b/Hf3jhPnj6Ljmj4PfMGAb/Bd3LKSyvl56aVRBwPbqVN/ArL999i3rWAlm3F7isOx2mwwwDQh+g6C9+8HdiEvr36SXe7DgNDCarlvajyd+xYpqtqV47W9m5wWXd6Rg2RKu8ouZ7nTCTGIZduBY5Z9KPtZVlFTUv3n2te0n083dU2s9+y+OXSa8/fP2Wknn9/tMaKu11UurvTXIzYbE41x/EL9p0bM1u/1eJP4NXMZisoNtP5q87tGzribuxb9D/pzNZnJA7zxZsOLLlUND39HxBLVLBZd3pIBIQD9eRIbcf81I+p+QWlZZbGmtzD5MzC/f+d6PuJav//a+4/GdIk8/JWamZubkFxfFvv9AYzBv3n31OyW6FJSw2Z87awzfuP3O0HT5syECvbScvXI/BMIzDQacs3//q/beJjlYjzQ33nLx8MigCABhM9qTFPg8ev3axNx80oNeiTX7vvmS25hG0GXyArzMyYYy587wdGxZNEKGQMQwLvv1osqMNidjcNmjhtLFiYmLf03N3r572x8x7TwQr/7qKMTv/RzSI6LiPZRVVN09voZCJAGA2VMdumrf7WPPUrIKKyuprx9cRCQQAUFVRXL/79OJpY64/eIEhiL/vMm5EqJFmg4c6LHEfZ9mie28XcFl3RjTUFHqoKjxO+GJnNohKY4Y9iIu4+G/bf85zC0upVBoAIAjSS0OV26WxMhk8oLdq3Wxvk1IfxiUCwN3oeFsLw4zsn92hHmqKb5JSjfX7XT2xiUggMJjsyhrau6SUysoqAIh88naW+yhelDM5aXF3R2sQRAhWXNadEQKCzJhgF3Qzxs5sUHRcYv/e3dWU5XILK/58ZZOcCYl8+SYRACgilIDD3lLiIgAwzEDbRL9P3WwIgciVdVZe0cu3SZGxvwzLoBwOhUwMuvXowdN3EqIkDfXukv8P/pSZlaOqpFA3s7K8dGFJW81uBbisOynjbAy37L9QWFp17krEwunjCb+O5tZ9FWOyOFQa67cCGmCb1xSAKbxDDvqHHwBFeempLraTxpryUgpLKqQlxc9eefg8IenigRWiFBKCIEmpeVduRgKAenfVsopfdhEoq6I2x7B2B39l7KSIi1JGmA05dvFuWla+tYnOL6fERXPzizj//3FPzszPyi38vQS0zaMQ5sb61+8+4VVUS2eOnrGpqLzm5bsv9laGYiI/4lM+ffmRm8HEYEDovae8y5lsTlhEo1Hi+Qou686L5+TR+44HTnSwEv01ZF7/nso1VNqxgHuZuUVvktK2HgrS16kfg7SbvExE7MvTwXcr29Beuo81zckvWutzPiUz/3NKzrz1R0eYGWioyA030D56Pux1UmpKZv7RgLvvP6WVVdZ8/JY9w2XEx88pO/2upmUXJn7NnO61X19XMKtv8E5I52K0xRBeB0Ovv8ahrQudR5tzD2UkxVbOdQYAETLp5umt+89cv3kvRker7971syOevpcUFwWAhdPGyEiKAYCd+aAa6uSMrBwOijqNGta7h+rvdSEILJ01voeqfL30fj3V5k2yAwAJMZHb53b8F3R/wfrDIiKU8XZmsybYIggy292Wg6Jb9p1HMWzsiOGHNnveMBqYkp6lp9Xj/sVdxy6Ez1t7QEVZcd6UMT1Uu+UXtcm7o3XgUZ0AAEbb28c9f2ZtbRMeHt5elVpaWr5799bK1PDRZd/2KrMrIKvrXFlFdXV1DQhoePMnaEZUJ7wTgiOE4LLGEUJwWeMIIbiscYQQXNY4Qggu678GDMPoDGYTO4u2L0wW++/dUReX9V/D17R8OV3Xk0H366VfuB5dS/8xeZ6ZV3Iv9nWrq7gc/ri86keYnsnL9r1Kymh1UYIFl/XfAYZhV8Ifz5zseOHaA9avm3odPHuLJ+uUzIKQ8KcNFdAsTgbeK6n4MSvpPNpMpVtHbIjBD3BZ/x3U0lm3o+K3L59CoYi8+dSCLd+rqfTv6TmFpZX15t1QFMvJL0nNzKcz2Q1e6DrapLvSz63DSsqrv6fnlFdSfy8nO78kLSuf0Ug5AgGfPP87iHz6bohOHyUFqanONheuPjDR7wsAz98lz1r+b1ZesbHDAjd7cxQhXQ57WF1T2+/1+4uH15kMGXj80v2zVyKU5SRKq2imhtr7vOeIUEiBtx7lF1d9/JpaUFRCpzPLq6hBR9fLSEvaTlqRU1A6avIKkyEDLx/fuGTrqcUzxxvp9GQw2Rv2BUQ9e6vaTbqojDra2mi71xQKmeR/NaqKSn+T+K2opIxGZ1bX1AYd89bpqy7oRwWAy/qvAMOwc1cerFs0CUEQZzuT/f9drayhy0iKmg7u+zX2/OBxy6KCfRVlxQHA3npoQGhUwH4vAgGJePrhSnhsdNBueRkJNgf13ntx57HLO1d6VFbX/hd0++KhdcMH9wWAc6HRK7afjAra/TX2vM2U9Wf2ruqnoQgAVdVU7uvpxgOXKqtrX946LCpCpjPZs1Yd2HX82rblkyuqqKdD7l06vM5ItxcAnAx6sGbXmbvntrVLRIQ2gndC/gKSMwvzi0uHD+4HAN2V5Iz0B9x88BwAEAQhEgkIghAJP+Elngq847N+roKsJIIgZBJx/UL3B0/eMllsALAw0jUd0o8blMN1tFlyWjadyeFexS2EV3VZZe3NiGd7vedwo9KIUkgHNv8TdDO6ls4EAJvh+sZ6vX+UYz/8W0oWk9URez//Eby1/gsIuB6lrCB77koE91BCjHz2csQ056ZWNzLZnLcfvvj6BZJJP3ZrxzDs6/fUskoqAPTt+bOrICXeVNCprylZ6qqK8jISvBRVRRnlbjLZBRUA0Ldn9zrl8GsHsFaAy7qzU1PLuB0ZN2HM8JLySm6KVk+1p6+SPqfkDNLSaPQyDACwdYunStdR7faVMxRkJaElsaZQDK23MAcBIBKIrd7ZsWPAZd3Zefj8Q28N1c3Lp/HkhWEYnQ0XrkUe2OjZmLAoZKJW314Igaiv/WOdYk0tY8vBwN1rZrSo9n69emTlFlbV0KX/vw90cXlNVl5Rd+X6+6t3KvC+dWfnbMi9OZPsCb9uzzV5vNXNiOc0BgsAUBQrr/wRJIRIJJaUVXKXaXm4jPD2OcObXjkReL+ymipCaaohIxKJRaW/rKhVVpAaZTl02+Eg7mA5i83ZtC/AabRZp+py/A4u605NalZRXkGxrZl+vXStnqo6/TSi4xIBwH2chf20Nat2ngIAPS0NGp3ez2Jm3JvPM1xszIz0rCet81jmYztt4+P4977rZiMIIkIhcd//eMhIiXP/mTLeZpbX7kmL/gUACXFRbmiEfd5zSsurzN1WeSzzsZiwBhBk1+oZCIKIUMgilF/KkZYU59uTaBn46hgAoV4dU1RWnZqeLS8n27+Xalu6wpl5JXn5RRrqampKMnztUrfL6hi8by3kKMlLKclrt70cTbVummrd2l5Ox4B3QnCEEFzWOEIILmt+QSASAaCotKLtYWi6DqUVVBaLAwDi4m16+8RlzS/0dHUB4Ov3tLNXojkoiuH8CSaLveNocC2NDgCGhkPb8vDxV0Z+8c8/Cy5fDqHT6f+s3XPozDUZaYk/X9O1ySsszc7JA4AePTRcXd3aUhQua36ho6N9+MhRr+XL6HT61+Q0QZvz16CgoHDu3Dl5ebm2FILLml8gCDJ1yhRDQ4PT/53++PFjbm5OYzk5HA4AEInEDrQOGAymiEiH7qzHYDBERBqdmyQQCBoamsbGxgsWLFBRUWljXbis+QiCIAO0Bhw8eLDpbBEREXQ63dnZuWOsAgAanbZ16zZfH5+6Pqj8xsfXd9KkSb179eqAuvBXRgGDoujFixdPnjyBdeCASWxMrP/Zs6mpHdc1qqqq8j975srlyx1THS5rAVNYWBgdHfXixYt37zpu/0L/c/5MJiMoKLDDarx161ZhYeG1a1fpdHoHVIfLWsBcvnK5trYWw7AzZ053TIP97dv3x48eAUBgYCB3B2t+w2Qy/f3PAkBycvLTZ61fGN98cFkLEhaLFRQUxP0/LOxWbm5uB1QaHBLMYDAAoLCw4M6dOx1Q46tXr969e8f9PygwqANqxGUtSF6+fJmSnMz9v7q6+jL/u57V1dWXQ4J5hwEBAdxxGL5y6r9TvB+iu/fuFhY2sCVI+4LLWmBgGHYpMLCuqs6ePcNtR/nHgwcP8vLySCQyAJDJ5OfPn33+/JmvNaZnZETc/xmJik6jXb16la81Ai5rAVJaWvYw8sGkyVMoFBEA0NbRAUDu3r3LvxoxDIuMjDxz9qyhoSEAeHhM27hp8+32czFvkIALF/r07dujRw8A6N5dffRo+6tXrzKZTL5WistaYKSnp4eEXD518pSenh4AoBz06bNnkpKS/KsRRdGDBw9OnjSZRCIBgLi4+OpVq5YuWcK/Glks1tChQ69euVZRUQEAdqNHX716de3atQUFBfyrFHBZCxAjo6HDhg0jkYhubm4A8O3b10exj+zs7PhXI5FI/P1rIy0t3WDmdoFMJo8bN+7cOf/q6moCgeDi7EwgEBwdHTU0Gl8z3x7gshY8Hh4eqqpqGIat917XMYMhHcmLFy9OnDgBAEONjC0sLDqmUlzWgkdeXn7T5s0AUFRYOGnSpNy8vI6cceQfGIa9fv1m9uxZdDpNRERk165d3M5PB4DLulMwzcPD03MuAHz48N7G2urWrVsMBn9fqvhNdXX1qVOnxo0bk5eXhyCEXbt2DzM27rDacVenTgGBQPDx8cEw7Nw5//z8/JkzZ+jo6Do6Ourq6Um0bZ1Ig5SXlwNAdnZWdHR0uxdeUVn5OiEhPPx2ZmYmAJDJ5E2bNs+dO7cjQ0Dhsu4siImJHT582MDA4N9//y0oyE9K+piU9JGvNYaHh7djAIkG0dIasHfvXhsbmw4Oa4bLuhOBIMjMmTPHjh0bHBwcGhr68WNiB0wB8gMKRcTExGTixIlubm58HbJsDFzWnQ5FRcXly5cvWbKkoqIiJzeXzWK1exWenp6pqSkWFpY7d+5s98JFREV79OghJSnZkc7c9cBl3UkhEokKCgoKCgr8KFxCQgIA5OTkuNONwgc+EoIjhOCyBgAgEYkAwOCzowJOh4HLGgCA+1ufk5MtHPMgOLisAQD0Bw8GgLzcvLT0FuwNh9NpwWUNAGBjbQ0AHA776pUreIMtBOCyBgDQ09MbYmAAAKdOncrOzha0OThtBZc1AACZTF61ahWBQCgrK12yZAmtQ1ZH4/APXNY/cBjnMGHCBACIjY3xmDq1uLhY0BbhtJ4uIWuuQ0LTE9FEIvHgwUMmJsMB4OHDSGtr60uXLnFDHXSQlTjNA0VR7kfZhJ9Jl5hllJeXB4CysvKms8nIyFy7dm3JkiW3b4dlZWUuWrTQ23v9sGEm/fr1I3aUo3DHkJ+fL2gTWg+Tyayh1gCAjIxMY3mE6tNqDCMjo+vXr6elp7E5HFKTERxlZWXPnz8fFBS0d+/e7OysysrKyMgHkZEPOsxUnD9SVVVVXFQMANw1oA3SJWQ9bNgwACgrLf38+fOgxp8FFzKZPGvWrImTJkXcv3///v3ExA8lJSUdYmbHUVZWxmazBW1FK3n9+k1tLRVBkK4uayMjIwKBgKJoaOi1P8qai7iYmKurq6urK4ZhdDoDA6HqYY8cMYLfztz84/r1UACQkZHp06dPY3m6hKzFxcXt7OwiIiKCg4KWLl2m2K0FG7EhCCImJso/2wSCAF1G20hqWtrt22EAMGPGjCZWRv6tt9ciEATZsmULgiCFhYVHjhzBBzf+Ujgczr///kun0xEEWbt2bRM5u4SsAcDExGT06NEAcNzv2OPHjwVtDk5ruHr16o3roQCwaNEiNTW1JnJ2FVkjCHLx4kVRUVE2mz179qw3b98K2iKclhEdE7N8+TIURVVUVPbs2dP04siuImsAUFRUvHPnDpFILCkpcXF2ioyMRFFU0Ebh/BkOhxMUFOQxdQqNRiOTyVFRUdzVPU3QhWQNACNGjAgJCSEQCOXl5RMnuq9cuRJ3bOrMYBj2/fv3ufPmLljwD5VKFRUVjY6O1tHR+eOFXWIkhAeCIBMmTIiJiXFwcKipqfH3P3v16lVnZ2cnJ6ehQ4dKS0t38Lp/QcF9aUZRtHOOXmMYVlZWFh8ff+vWrTt3wrn7cnTr1u3x48fa2trNKQHpmsMC1dXVnp6eN27c4DmKkEgkVTU1CqVD93QTFDnZ2QwGQ0JCQkVVVdC2NACDzsjNzeEpk0QiLViwYN++faKizR5p7dj9fzsRKIpmZGTMmDFDRESkizTSfxcIgoiJiS1fvrywsBBt4e7aXbS1rguLxcrIyEhNTX3x4kXHbBEkcM6cOVNRUTFw4EAHBwdB29IAsrKyRkZG/fr169GjR+t2YcVl3RUZNmzYq1ev9u7du2bNGkHbwhe61kgIThcBlzWOEILLGkcIwWWNI4TgssYRQnBZ4wghuKxxhBBc1jhCCC5rHCGELx58ly9ffvLkyS/VkEimpqZubm5kMrnVxdbW1u7YscPHxwdBEAzD6HS6qKgo153j5cuXVCp1xIgRbTW9ET5+/Jienj5+/Hg+lY/TvvBF1k+ePJGXl58+fTovpbCwcO/evbt27Xrz5k2rveQYDEZwcLCPjw/3UE5Ojkqlcn0GUlJSSktL+SfrzMzMly9ftl3WXBer8vLy1NTUsrIybqKEhET//v27detGJBJxp6t2gV/+1qamplpaWrxDLS0tCwsLBweHoKCg2bNnt65MWVnZ79+/N3hq8uTJndy5hc1mP378+PDhw9HR0Q06VJHJZAsLCy8vr5EjR4rzYS/GLkXHLSNAEGThwoWnT5/mybqoqCguLo5Go2lqag4bNqyur1ZpaWlcXFxNTY2cnJyVlZWYmBgAYBhWVVWlqKhYXV1dXl7O9SyVkpJSVFRkMpkoivJW2LNYrEePHpWUlEhLS1taWkpJSXHTORxOeXm5goJCRkbG69evAWDQoEH9+/fntZFsNjs+Pj47O5tAIOjo6Ojo6LS9+eRwOOfOnduyZUthYaGysvKWLVtGjRrVvXt3WVlZEomEYVh5eXl+fn5MTIyfn5+Tk5OEhMTGjRuXL1/OvWucVtChr4zFxcUqKioAgGHYnj17pk6d2q9fPysrqy9fvgwdOpQXPCkmJsbFxaVv376jRo3Ky8vT1NTkxi+tqKjQ19cHgKysrLi4OAzDnj9//ubNGwC4du3amTNnuJd//vxZR0eHSqXa2dlJSUkNGzbs3r173FN5eXnm5uZHjx69d++eqampnp7erFmz/v33X25LX11d3adPn+TkZCsrK0NDw7Nnzzo5ObXlRwDDsE+fPqmrqy9YsMDGxubLly95eXnr1683NDRUUVERFRUlkUhkMllJSUlfX3/FihUpKSk5OTnTp0/fsmWLiopKTExMJ/8J6ry0n1/+TxYuXHj37t16iVVVVZqamtHR0RiGRUdHW1lZcTgc3tknT54YGxtzOBwUReXl5cvKyninLl68uHTpUgzDSktLVVRUuB7lKIqKiIiw2WxunoCAgEOHDmEYVlNTo6ioWFhYyLu8urq6Z8+e+fn5GIZlZWWJiYmFhYXxzlZWVoqLi9PpdAzDtm3bdv78ed4pDoejra1dUlKCYVh4ePiGDRta9BBQFD1x4gSJRBowYMCXL1+a7wiPomh+fr6xsTGBQFiyZEndp9ReGBsbA8DevXvbveROAr86IXv37n316hXv8OvXr7du3dqwYYONjQ2GYZs2bQoICKgbW8jc3JzNZn/69ElXV5fNZmdlZcnJyXFPTZ482dHRsZn1hoWFLVy4UElJiZciKSm5ffv2vXv3Hjx4EAAwDKvrOy8lEcmutAAAIABJREFUJaWkpFRZWamkpOTq6tqzZ0/eKQRBFBUVU1NTW7E5IoZhXl5ex44dW7Ro0eHDh5uIP/Q7CIKoqKjEx8fv27dvw4YNxcXFQUFBrfOm77LwS9ZDhgypqx4nJ6fjx4/Ly8sjCMJisT5+/KipqVk3P4Ignp6eT5480dPTO3r0qKmp6aJFi1xcXPT09CQlJWVlZZtZb1RU1IwZM+ol2tra+vr6HjhwAADU1NTqdZdFREQwDAMAPT09DMMqKyuTk5PLyspiYmKeP3+OtbwbgGGYj4+Pn5/f9u3bN23a1LreOYIga9as0dXVHT9+vKio6Llz5/7eCGMdD79kPWrUqKFDhzZ4CsMwFov1+wC2nJxcSkoKAMycOdPFxSU6Ovr48eMxMTGSkpJPnjxRbd5i0tra2t9zioqKVlVVcQXaxMD5hw8fHBwclJSUHBwcDAwM5s+fz+24t5T79+9v2rRp7dq1rdY0FwRBxo4de+XKFXd3dz09vVWrVrW6qK6GAAIqEAgECQmJ2traekFM3r59a2Jiwv1fWlraxcXFxcWFzWZfunTJ3Nw8OTm5OYUrKSmlpaXVHVsEgPz8/LrDHQ3CZrPt7OyCg4NHjBjByyktLd2CGwMAgMrKSg8PDzMzs927d3PLwTCMw+G0ekza1dXVy8vL29vb2dm5iRihOHURwO8aiURycnK6f/9+3UQ2mx0cHGxubp6VlWVvb4/VWUw/c+bMgoICVvN2tPfw8Dhw4EDdngOGYefOnfPw8GhaVUwmE8Owuppms9n15kr/CIZhK1euZDAYYWFh1dXVJ0+eNDExkZeXl5aWVlFRGTFixO3bt5kt3KsXQRBfX19VVdWpU6e2okdUDxRFi4qKSktLAeDbt2/cd+U2ltkJEUx3zdfXd8WKFbm5udxDFEW9vLxmzJihpKSkpqb24cOHhIQEXuYPHz7o6Oj8PjdJoVC4H09djIyMmEzmjRs3uJ8WhmExMTG3bt36vcP9e2lEIjEtLY1nkq+vr7y8PHckpJn3VVhYGBAQMGvWrKNHjyoqKi5btkxUVHTlypU+Pj7z5s0rLCx0dnZWVVXlDgc1s0yubf7+/q9eveKOtbcONpsdGBiorq6urKxcVVXdo4dGYGCgjIzMlClT8vLyWl1sJ4UfwytbtmyJjY1tOk9WVpa1tfX8+fN37dplaGi4e/du3khWdna2ubm5s7PzsWPH7OzsXF1dKyoqMAyrqKgYNmwYb4Dv4sWLRkZGbm5uHA7nxo0b586d417OYDBWrFhhaWl57NixMWPGuLi48IYLc3NzbW1t65qBoqitrW1xcTGGYXFxcX379l29erW3t7eVldW3b99iYmK0tbVTUlKio6P379//xxtftmwZAHDnWdatW1dVVVV3XA9F0bS0NFtbWwKBsGfPnhbFvuBwONxJq+ZfUpfy8nItLa1u3bpt27b98+cvNTVUGo1WVFx848bNkba2ZDL5zJkzLY3F0ZkRZPgbFEWpVGpVVRW3A9DgKRqN1rrHTafTq6qqamtrW3Q5m82urq6uqalpRaUsFos7nSktLf3u3bvGSuAGaQaAs2fPtqj80NBQIpFYXl7eUsMqKirU1dVHjBiRnZ3NTbl/P2LJkqXcx85ms/2OHxcTExMmZXfdqE7tTlJSEoIgRCLx9evXTedEUXTOnDmioqJ1p43+SHl5OZFIfPjwYYusQlHU0NDQxGR4ZWUlL/HEiZP9+/dnMBi8POfPXyASiYmJiS0qvNOCD4W2GwkJCRiGbdy40cDAoOmcCIL4+fmRyeSdO3c2v3wZGZlevXqFhoa2yKr4+PjPnz+fPn26iVEdBEFmzZrp4uLq6emJCcUbJC7rdiM+Pp5CoaxYsaI5A3liYmIrV64MCAhofsxSBEEGDx7M/SlovlV79uwZP95JV/fPwXPXrl3z9u3bgoKC5hfeaelagYD5B4ZhX79+1dLSamIPzHo4Ojpu3769uLi4mTNNAGBpaRkVFZWYmPjHuOVcqqurHz16dOTIkeZ80/T09NTV1d+/f998ezotuKzbBwzDUlNThwwZ0vw5F3V1dQCora1tfi0qKioVFRWDBw9ukW0DtbVv3gw7c/YMLyU7Kys3N9fJyRn5/4S8vLz8xYALvfv0+X3M9G8El3X7gCCIiIhI85tqAOD6P1VUVDT/kqqqqhZbBoCiqLy8bL++P2co6bTanJzsvn378PxMuF43KIoKh+cJLuv2AUEQbW3tFjV10tLSJBLpy5cvhoaGzbzkwYMHsrKyr1+/bmYnpLa21sjI6FNSkqenp5WVFS/95MlTubm5Bw4cqDvJVVtbm9Yqd8VOCF9kzXWbbrg+Eqkjl+thGIaiKJFIxDCMw+G0yEG0pfTo0YM7+tbMGySRSDo6OkeOHPnjxD4XBoMRERExcODA3r17N/8Zjhs3LiwsbPbs2X9shl8lvM7JyeG6Yv/t8OUXZ+nSpZRG6ODNtbKysjw9PQEgJydnwIABfK3L1NQ0Ozu7+S4fCIJs37797du3zfTiCgwMrK6uNjY2blG7sGLFisjIyJd1fN8bBEXRPb6+lpaWzfcB7szwqyMVFhaGNoSg3OHFxcXHjBnD1ypMTU0ZDManT5+af4mDg0PPnj3d3Nz++GXIyspauHAhAEyYMKFFVg0ePHjs2LFzPecWFRU1lgdF0YMHD8XERF+8eFE4lr7zS9bczsbv8Km6P6KgoHDs2DG+VqGhoSEjI3P69OnmjysTicT79+9//fp11KhRDAajsWyJiYlDhgxhsVgkEumPcz31QBDk0qVLbDZr9Gh73ldOW1t70uQp3G4JncHYvmOHt/f6wMBADQ2NFhXeeeHH1GWDaxl5VFZWXrhwgU6nb9y40dLS0sjIaPny5VQqlZeBTqfv37/f3Nx8+PDhEyZMSEpK4vkqcDic8PBwc3NzKysrKyurqKioer5EwcHBw4cPt7a2dnJy+vbtW3p6+syZMzEMq6qq4vlCXbp0qbS09PHjx6NGjbKwsDA3N4+Li6tbxa1bt8zMzKytradPn15UVJSQkPD169fm3PiuXbsoFEp1dXWLHte9e/fExcVVVVXv37/PYrF4lnCdSJcsWUIkEpWUlIhEoru7e4tK5lFTU2NhYSEpKTl//j8xMbG5ubmlpaWfv3zxO3580KBBUlJS3F/X1hXeCRGArNPT03v37j116tSCggIURTkczv79+01NTbmPtba2Vk9P786dO9z3zoKCgj59+sTHx2MYxuFwZs2atWvXLq6XMJVKnTp16ubNm3k+fWvWrFmxYgXXg4dGoy1dunTDhg1cWWdlZfXp04drwODBg93c3IKCgthsNoqi2dnZysrKKSkp3EIWL168cOFCGo3GrcLDw8POzi4kJKQ5N15cXEwmk7du3drSJ5aZmTl8+HAAkJaWdnR0XLt27bJlywwMDIhEIplM/vfffzdv3gwA79+/b2nJPDgcTkRExPDhwwkEAoIg3FAkMjIyGzdubIX7VCeHX7J2cHDw+40XL15gGJaenk4gEHJycnj5mUymlJQU1xdn3bp1fn5+dUt7/vw5N7DB06dPbW1t6zYqbDa7d+/e3759wzAsJSVFV1e37jptDoejr6/foKwXLVpUt5zDhw/v2rULw7Dk5GQtLa26hdBoNGlp6WbKmus4TqH8r707j2viTPgA/swECJBw33KoHIqc7QcQi9SzrOergAf1QrH1Qouo1VpY15NlC0WoFx6rIrVIC1qUUuvBgpRarVIFQSkgEUQuQe4jk5l53j+mpBFwFyQJYXi+H/9IZpKZJ+Hn8PDMc6hIfro+omm6pKRk3759EydOtLS0tLe39/HxSU5Obm1tbWlp0dHRmTFjxsAvqEzXyBcvXkRERNTV1cliWLsikFWs165dm95DcXExhFAgEOjp6Um+nqZpKyur2tpakiSNjY0l+5oxe5m+Zt7e3sx/DElnz55lJvoICwuLj4/vtjcuLq7XWDPdksR++umnrVu3QggjIyNPnTrV7SABAQF9jDWEsKOjw9DQ8N133+3Z2/bt0DS9aNEiLpdbXV0tlQNCCJubm21sbNiaaSi7Hnzz58+f1oO1tTWzV3LCAwbz5wtBEOJey2IYhjF3DXJzc0ePHt3tje7u7qmpqQCA4uLibqPZAQBvWh9bPFuD+BRMy2NdXZ3knAqMfo0gVFVVTUtLy83N3bhxIxxwbzgI4YEDB5KTk+Pi4oyMjAZ4NLHExMTi4uL8/HxpHVDRKNydUub3bK+7cBzv2ewt3sJMo9ptbx9HQIrxeLyedwpbWlr6dRAXF5eEhITTp09v3rx5IO30EMKwsLA9e/YEBQX5+fm99XG6oShq7969AICQkBBpHVPRKFasuVyuurp6U1OT5EaRSJScnAwhdHd37zm1ZFZWFtOUa29v33NvXl5evwrg4eHBXPvFIIQ3btzo10EwDFu8eHF8fPyRI0eWLVv2divzkiS5ZcuW3bt3r1+//uDBg1JsG83JyWEGL167dk08ayvLKFascRxft27d4cOHJa+7KSkpN2/exDAsODh4x44dktc/giD279/PXMn8/Py++OILye7LFEVFR0f3qwCenp6ZmZlZWVmwa4TvqVOnuv036wsMw5YuXXrlypWUlBRTU9N+jcmFED5+/NjBweHo0aNHjx49cuSIFLsfQQjDw8OZwpAkefbsWWkdWaHIqo9EfHx8r93NvL29//sbP/vssylTppiYmAQEBHA4nLt3727btu3hw4cAAFdXV09Pz6CgoPDwcD6fX19fv2TJkh07djA9PE1NTdesWbNy5coTJ07weLzm5uZ169Zt2LDhwYMHfS82l8vNycnx8fExNzefM2fOxYsXly1btmrVqn588i4Yhs2dO7e0tNTX19fLy8vFxSUmJmbChAn/5T4rhDAvL+/AgQOXLl0yNjbOzc0dN26cdO9hNTY2Sv46+vLLLzdv3izTrjKDQiZrnj948EAgEPS6a/bs2RRF3b5928vLS7yR+UU/efJkLpcLAGBGkp8/f76trc3d3X379u3ijgoQwpycnKioqJcvX5qZmW3ZssXJyUn8g4cQZmVlHTt2rL6+3tPTMzAwUFNTMz8/39XVtb29PSsra+bMmQCA9PR0d3d3Pp8vLkBNTU11dTUzHSvomnGYIAhNTU0ul8uM41qwYMHbfRs0TWdmZm7atKmwsJDL5X744Ye+vr62trY8Ho+5DLe1tRUVFaWmpiYkJDQ1NVlYWMTExMyfP18WfUTDw8P37NkDACAIQk1NTSgUZmdnM03mrCLfhhdF19ra2m2YKk3TU6ZM6dYg+BYoiiosLNy2bVvPViCGlpbW+vXrf//9d/E0sFJHkuSqVasqKiqYO/B79uwpKChYtWqVjE43iGRytR66GhsbLS0tS0pKdHV1mS05OTne3t6lpaUDWfVGEoSwo6OjtbX12bNnzN8JZmZmWlpafD5f1n1mmJ81hmHu7u6//fZbRETE9u3bxRtlemo5Y1ulaoC0tbVTUlLc3NxWrFjh4uKSkZHx448/ZmRkSCvTAADmxrW6uvqbLtuy02t2WRZoBop1d5MmTWImAhYKhR4eHlFRUaz8wbMbinUvcBzX19cf7FIgb0+x2q0RRCpQrBEWQrFGWAjVrWUOQsh0Uh3sgvyFJEkul/vq1avOzs7BLstfmK6aUvkDHbVbyxCE8MqVKzt37hQIBAr1PTPdJDEMU6jJbjgcjp2d3ZkzZxwdHQca7kG6DcR+NE2HhoZK6Sc+jOA4/sMPPwzwy0dXa1kpKChgVsQz0NdfuXix3usDF5Cenj4rO38xubOzU01Nrba2VrLTTn+hurWsMN1ruVzuzQuJ9jY2g12coWGqh8fyTRs7OjrS0tIGMnJCgapWLMNMyuHs4IAy3XfzPviAmV5wgNNso1jLClO7U+VyB7sgQ4kal8vBcdD17b01FGuW6BQKvzhxgujn2E22QrFmCUIk+iYlhaQo6R72aXn59GXLpHtMOUCxRv4HOU9yKxWoJYSFLt+44ek2/vKN61fTbxoaGKxcuMjNyQnDsBvZ2W7Ozhm//pp6/ToN6f/z+pu3lxcztjI1/eaU9zw01NWZIxQLBPWNjVwVlWu3blXX1JxOTJzo6mrbNc2L4kOxZqGww4cd7OzetbML/SSo4OnTRevXp8XHO9jYHI2PH2FiosXjr1u+vJMgok+duv/oUdinn+IY9kVsrJOdgzjWv+bkPCws9J05s76hgRCJauvrOhTpNvv/hGLNQiRFutjbBy5fjmHYO/b2eY8fp6XfdLCxAQAoYdg/t3/K3Jp2cXDw8PFZ7uNj/4bLsKerq4mh4f38/M83bpLrBxgwVLdmISWO0pzp08XdKkaamLS0/bmemO/MWeLtfHX1mVOmZNz+ZXBKKUso1iwknrWQIdmfSV//tRWPDHS06xp6WWpsqHepQLEeXl68fveurrFJT2IOFvH2htZWuRZL2lCsh5fzFy/SXfFt6+j4KSNjqocHAIDP45eWlzHbaQiv37olfstQbOBDsR5eNLS0tx048FtuXvb9+8uDgz+YNMnOygoA4D1jxq6IiMw7dx4U5IdGRpoY/7k+tCZfo7yiYv+hQw/7s9TToEMtISyhyuXu+uQTZSUlAMDOwEAtifVIJ7m7t3XN2rp+6ZISgeBo3FkawiXz5vvO+BtT8/7Yz09dVe3411+rq6stmjPXevToYsEzAICBrk7K6dN3f8/hSlTWFR+KNUuoKCsvmj2beewzY4bkLrsxY8SPORyO74wZvq+/AACgxOH4+/r4+/qIt9h0zYHvbGvrLOMlLaUOVUIQFkKxHkZ2ffKJhbHxYJdCHlAlZBhxcXQc7CLICbpaIyyEYo2wEKqEKIqW1tbW9vZuG3EMM9DXx/s2aUZDUxOfx1MewIoZEMLa+noDPb2eZ6Rpuu7VKwM9PSFBCAlC6/VFBhUNirWiiDx5Mj7pO4sRppIb+Rr8i8dPqKmq9uUI60NDd27c9O64t2+ME4pEbnPnPsnI5Kl1P2NrR4f7/HlP/pN58/btqxkZR/fte+uzyAGKtQLxX+y3b8uWwS7F/zBmtKUUJ7GXERTrIUNEkkUCAYBwrJWVEodDiERPSkq4Kio2o0ZJrh4mEpF/CEppihpjZaUqcWuQhvB5VVXty9pRFiMNJObioWm6pKysta3N1tq629xlFE0XP3vW2dEx1uqvDtnmJsZGBn9N/k1R1B+lpUJCONbKWl3it0pzW1txaameru4o09d+/8gHivUQcCE1VVBRkZOXp8zB6xoaIARR//jHP6KitNTVn1dXaWtqJRw+zERKUFGxMzxMk88XiUQV1TUn/vUvF3t7AEBLW9uG0NCKqioTA/2S8ueL587d9vHHOI6/qKlZ89lnEEIdTY2q+vrgjz6G4M+OUM8qXqzZuUNFSVmTz6+pr9+6di2zPePOnRs//xz997/Hnj9f39SU+/gxoGlCRBQJBF/HHHJ1dIAQxl28eDguzmakRWt7h5PduKqq6tUfLpk03k1u3xiKtQKprq198Po65Hq6uhYjRggJIv6771Lj4mxGjqRo2m/jxoCtW6/Gxxvr61MU5bNu3fWfs729PgAARJ04Hh8dbWVuDgD49cHDFUFB2Zcu6Wpp7Y6OHm1uHhcVpcThtHZ0LN20aYyl5dxp0zbu2jVr2rRP/P0BAA3NzYG7dlEkBQAQkeS6kM+XePusXrgQAFDX0LAu5M/5BGmaJggCANApFH7z/fdJsbHMuJu4i5f+Hhlx9dy5u7m5h86cYYpHQ3j8m29OJ1xYsXCRPL9JFGsF8su93xobGyS3fDBp8tolSwAA77u7M500ODju4eZmamRkrK8PAOBwOG7O75SUPgXgAwDAotmzmUwDACa84+zq7Hzj5+xZUyZn/Prrz0lJShwOAICvphYSFHTw5EnncePKnj9f++GHzOt1NDWDAgIyf8kGAPwhEDS3tKzoWhtWX0dno7//R58+7Fbgv70/yaFrzqrZU6f889BXBEnGJSVtWbOGKR6OYWuXLIn59ylZfF3/BYq1AlkwZ+6b/mQc2RVWAAAHxy0knuI4Luqa9eY9V1fxdgzDnG1tC4r+cLK1FTwTzAtYJR7uJSSIxuaWx0VF48aMkeyaZ2djo8RRAgAUPX3qaGsr2Vbo2FsDy0hzM/FjnqoqAABCmF9YuGbpUvF2JQ7H1sqqLx9filCsh4Y+zvcM6dcGa/254iKGjTQ3Pxt1EMP/OoiyknJ+0R/dBneJn2EY1m3UV9+Hgalxud0ml5L/XFPoLiOrZN25I34MIczJz3ceN87E0FBEUhoaGhYjTJl/jS2tsefPj7WyLigs7BAKxW/JK3xCkiQAwNbaJregQDKO3Sr9b4Jh2ARX1+tZt8T/DeoaGu7n5krn4/UZijWrXLl548nTUuZxxt3f8p48nj5xoiafN9Xjvc/Cw0UkCQDoEApDIyLsx441MzKyGj36UFwc8/q6hobI2OMaGhoAAOuRFrra2icTE5ldVS/rYv79b546r5dT9rB68eLzFy8m/fSTiCSfV1cH7d1jPkLebXyoEqIodLS0jp2Lu/D9pW7bb39/mc/jaWtqirdo8vmUxPhCbU1NHNIAAEM9vbXLVwTv2Y3jOCEiOoVE4tFj2hoaAIDIkNCNu3ZNXLDAQFu7qr5uwazZC2fNwnH8RHj4+pDPJy9erMnntQuJXUFB0adOYRimrKR05ssv132+M/mHHzTU1TtFot1btnx5/DgGgLqqKjMFvZaGBpSoGmEYZm5iAgAYbWaWejYu/OjR3RFfmBib7ArafOTsGTkv2IpWI5AVT0/PX375ZZKHx38SLsjzvCRFVVRV0TRtZjJCRfmvyxaEsKa+vrGpyVBfX1dLS7ydpunK2tpOYaf5CFPu67cPKZqurKkhCMJ8xAiVPt9ZfPjkCQDgnXHj/jw+hO8vXHg6MtLW0rIvb9dzcmxqbo6Ojg4ODu7jGXtCV2u2UeJwRpmZ9dyOYZixvr5xj9WBcRw3e8PYAg6OMxfgfmnv6Nyyb8+3R45ZjDARUdQ3KZdxHLPuGkImHyjWiJS99+47O9ZvWLY5qK2tFecojTI3P3cwWkni9r4coFjL1jCcRx3DsAUzZ8738iIIAsMwLpfbx461AABCJGKmJRngAnaoJURWTExMAAAFT548q6wc7LIMAiUOR11NTU1Vte+ZBgD8586dtvZ2AIB+j8pSv6A/GWXl3r177u7uEEKr0aM3+q+U/CsN6VVZZeWhM6frX71SVlaurKwcULIHuK4j8iY0TW/YsEF6P/ThAsOwmJgYZp3ft4ZiLUMURcXGxmppaUllHW/Ww3Hc3Nw8NTV1gJmGaBVdOSBJsr3HIMXBRVHUuXPnVq9ePdgFeQ2GYTweTyrLsKNYD0dNTU2Ojo4CgYAj33Y3uUEtIcPRmTNnnj9//uDBg8EuiKygq/WwQ1HUqFGjKioqpk2blp6ePtjFkQkU62Hn7t27EyZMAABwOJzKykpDQ8PBLpH0oUrI8AIh3Lt3L/OYoqgLF+TaDUtu0NV6eHn16pWBgYF43QwdHZ3q6mqVITUle1+gq/Xw8tVXXykpKamqqgIAeDxeU1PTHYkBNayBYj2MkCRZWVlZW1vr6OgIAAgNDX369GlCQgL7fmOjHnzDCIfDOXnyJIZhzF1PJSWlUaNGxcbGDna5pA/Fehjp9R4+K2/so0oIwkIo1ggLoVgjLIRijbAQijXCQijWCAuhWCMshGKNsBCKNcJCKNYIC6FYIyyEYo2wEIo1wkIo1ggLoVgjLIRijbAQijXCQijWCAuhWCMshMYyDkdr166dM2fOxIkTB7sgsoKmv0FYCFVCEBZCsUZYCMUaYSEUa4SFUKwRFkKxRlgIxRphIRTroYem6WvXromnXkd6QrEeekQi0cyZM0mSlOlZWltb33//fZmeQnZQrJHeQQhfvnw52KV4S6hPyNDG9H3AMKyzs7OmpgbHcWNjY2VlZcm9AIDGxsampiZVVVUjIyPxhNbi93Y7GoMgCJqmaZoWT/MOIayrq2ttbWWOI5XlbmVEcUuG9EVOTo63t3daWtqGDRvy8vKSkpIsLCwePXrE7B0/fnxubu5HH320f//+4uLigwcPTp48ub6+ntl78+bNrVu3Sh6NJEk9PT2RSLR79+7ly5eXl5f7+/uHhYUBANrb2ydPnnzixInS0tKIiAg7OzvxcRTRANdMR+Svs7MTACAUCiGE9+7dMzAwOHnyJE3TzN7s7GxLS0vmqaurq7Ozc01Njfi9Dx8+tLGxIUkSQnj9+vXg4GDJIxMEoaOjwxy5ubl57Nix4l0rVqxIS0tjHtM0nZiYOG/ePPFJFQ2qhAx5OI6vXr1aXJcYP358Y2OjUChklvPy9vaWXFDUycnJzs7uzp07/e2VWlZWZmRkxDzGMMzHx0dfX19Kn0D6UCVkyHNxceFwOOKnOI4rKytTFMU89fb2lnwxhmH+/v5ZWVn9PUtAQMCsWbOSkpIaGhoghCoqKtOnT1fYdWdQrIc85qr8JhoaGt22mJqa3r9/v79nWblyZWZm5q1bt9zc3HR0dAIDAxsbG/t7ELlBsWa5V69eddtSV1fn4ODQ64spioJvGFaCYZidnd2RI0eKiorKysq0tbWdnJxEIpGUiyslKNYs9+2330o+hRAmJCR4eHgAAFRUVLq1TJeXl/d6l0coFO7fv59JPI7jWlpaYWFhurq6CtsYgmLNcklJSWVlZeKnz58/z8jImDp1KgDA3t7+6tWrBEEwuyCEkZGR4uoyjuNNTU1MlJWVlb/++uuCggLxcUiSrKqq6lnDURAo1ix3/PjxwMDAmJiYR48eHTt2bPbs2bdv31ZRUQEA6OnpBQQEeHl5paen371719/fPyQkhMfjMW9UU1Oztrb28/OLj4/Hcfzy5cvz5s2LjIzMz89PTk52cXGJjY0Vv1jRoCG6Qw+EUCgUcrlcDMNomqYoSnxbkdlLEISKigoYI05/AAAA60lEQVSGYW5ubomJiZaWluXl5bW1terq6ra2tpLNJhDCFy9eVFZWqqqqjh07lsvlCoVC5r0AAJqmCYLAcZz5byASiUpKSlpaWpjEq6mpyf+z9xGKNZsxsbayshrsgsgbqoQgLIRizWYhISEGBgaDXYpBgCohCAuhqzXCQijWCAuhWCMshGKNsBCKNcJCKNYIC6FYIyyEYo2wEIo1wkIo1ggLoVgjLIRijbAQijXCQijWCAuhWCMshGKNsBCKNcJCKNYIC6FYIyyEYo2wEIo1wkIo1ggLoVgjLIRijbAQijXCQijWCAuhWCMs9P+2Y9nU0AXWhAAAAABJRU5ErkJggg==;clipPath=inset(4% 0% 4.67% 7.49%);" vertex="1" parent="SUoC9XZfshMG5ti-oYJR-8">
          <mxGeometry y="131.83894028595458" width="178.33409720555258" height="316.2688843645399" as="geometry" />
        </mxCell>
        <mxCell id="SUoC9XZfshMG5ti-oYJR-7" value="" style="shape=image;verticalLabelPosition=bottom;labelBackgroundColor=default;verticalAlign=top;aspect=fixed;imageAspect=0;image=data:image/png,iVBORw0KGgoAAAANSUhEUgAAAN4AAACcCAIAAACflYKHAAAACXBIWXMAAA7EAAAOxAGVKw4bAAAa/0lEQVR4nO2deUATR9/HZ3cDARJuARVFQFC8QMRbkSiibzEoSD3Qx9ZWpbVKa/uIF9aHCoLap2h9RFtAW/HAs6j1xFtEBRUUpQXFRC65r3CEJLs77x9r0xQvQDCbMJ+/dmdmZ3+7+eY3x86BQQgBAsE+cHUbgEC8GiRNBEtB0kSwFCRNBEtB0kSwFCRNBEtB0kSwFCRNBEtB0kSwFCRNBEtB0kSwFCRNBEtB0kSwFCRNBEtB0kSwFCRNBEtB0kSwFCRNBEtB0kSwFCRNBEtB0kSwFCRNBEtB0kSwFCRNBEtB0kSwFCRNBEvhqNsA9dDU1HT58uVHjx7J5XJzc3OhUNijRw8Mw9RtF+JvOp3XhBAmJSVZW1vHx8cPHDhw0qRJFEWNGDFCKBQ2NTW1MJOIiIjq6up2sefgwYMikahdstIyOp00U1JS5s2bl5aWlpCQ4O3tPXz48KVLlxYUFLi5uY0ZM4aiqJZkkpaWJpPJ2sWenJwciUTSLllpGZ1LmiRJ+vv7nzt3rnfv3qrFN0EQoaGh+vr6+/bta3PmEMK6ujqJRELTdHsY2+mBnYlbt245OzvTNP3K2IyMDBsbG5qm5XJ5//795XK5auyaNWuSk5PT09MFAoGBgcGgQYMEAkFdXZ1IJJo3b55IJJo8efLatWsjIiIGDhx4+vRp5i40Tbu5udXU1KhmFR8fv2fPnsLCQoFA0KVLF0dHR4FAUFhY2HEProl0LmmuWbMmOjr6dbFyuZzL5UokEplM1qVLF5lMphq7dOnSS5cuMcfTpk0rLi5mjp88edK3b98vvvhCoVAwITKZbOTIkTdu3IAQUhTVs2fPqqoq1ax+/vnnnTt3MsehoaEZGRnt9HxaRedqoZeXl48YMeJ1sQRBmJmZNTY2crncVmUrEolu3rzJ4bx4mbq6unv27Jk1a1Z6evo7mdu56Vx1TRzH4RtXYYYQtqELqXv37qampqohDg4Ojx8/bnmTH/EynUua3bt3z87Ofl2sVCqtrKzk8XitzdbS0rKZoHEcNzIyqqysbIuVCABAZ5Omj49PbGzs61rQ9+/fd3JyMjAweGWsVCp9XbZVVVXNQiCE9fX1hoaGr0yPvGlL6FzSdHZ2xjDs0qVLL0eRJPnpp5+Gh4djGIbjOE3Tqn2cEMI7d+68LtvCwsL6+nrVkKqqKn19fT6fj2GYjo6OXC5Xzerq1avt8DDaTueSJkEQp06d8vf3v3Llimqls76+/l//+teAAQN8fHwAABwOx9bWNjMzU5kgKysrLy9PecrhcGpra5WnXC43MjJSmSGEcOPGjSEhIQRBYBjm4eFx+fJlZeLy8nJVaXI4nPLy8vZ/VM2HCA0NVbcN75UuXbr4+fnNmTNn9+7dEolELBZHRUUtWrRo/PjxMTExOP7iv+rs7Dxjxoz+/fvzeLzz589fvHhx6tSpFhYWdnZ2AIDS0tLw8HAul+vk5FRbW3vx4kUvL69du3bZ2dlJJJJ169aJRKKoqCgmNxcXF39//169epmYmKSlpW3btm358uUNDQ1Dhw4FAEil0qVLl5qYmNjb27e2Z0C7wd7cYtVWaJrOyckRiUQkSRobGw8bNuzl1k9paWlGRoZCoejbt6+jo6NcLsdxXEdHBwAAIZRIJCRJmpqaikSiuXPnpqamVlRU3L17Vy6XDxgwwN7eXrVhVFNTc+fOHalUamtrO2jQIIqiSJLU09MDf9VK5XK5iYkJQRDv8yWwnE4qzXYkNzeXkaa6DdE2OlddE6FBIGm+K6ampvPnz1e3FVoIKtARLAV5TQRLQdJEsBQkTQRL0bxBccxgvpfDMQxr27wzmqbbdi1jyRuuVebMpGTGPTEHr8wNAICmzinRPK9J07SlpSXxT4yNjRctWtTY2NiGDJctW6b6IbHlUBRlaWmp+n28GevWrfv9998BAGfOnAkJCQEAPHv2zNXVVfkgV65cUSYODw//7bff2mCGtqJ50mQoLy+nVSgoKCAIYty4cS2cd/Z+cHR0tLS0VA3R19cfM2YMc0ySpFAoVJYAvXv3trKyet8mshjNK9AZuFyuatlnYmKyc+dOa2vrp0+f9unTR42GqfLxxx83C+nateuOHTtemXjOnDkdb5Emoale82VwHPfy8srJyYEQ7t27l6bphoaGhISER48eAQBomj5//vykSZMEAsGUKVNu376tWmGFEJaWli5ZsmT8+PGenp6HDx9WHdPZ1NQUERExfvx4Dw8PLy+vmzdvql6rUCiSk5O9vb0nTJgwe/bs7OxsZeydO3dUxysBACQSydGjRwEAFy5c+OGHH+RyeUxMzKFDhyCE6enpYrFYaU96erq3tzdzR2ZOEhNF03RMTMwHH3zAPEhqaqrW9kx32KyjjoIkSXNzc4lE0iycoqhu3bplZ2eTJNmtW7dTp05ZWVmFhYXl5eVRFLVgwYLQ0FCpVAohlEgkvr6+kZGRzKTHoKCgjz76SCgUVldXM9Mpo6KiZsyYwcRSFOXm5nb06FGSJJlr3d3dmTF1CoXC3Nx84cKF27dvZ6ZflpaWjh8/PikpiTEpJCTkxIkTEMJTp06tWrUKQigSiZydnSGEDQ0Nz54909PTq6mpqaurgxCuX7/+6NGjzIUJCQnu7u7MPMz6+vpZs2bFxcVBCGmanj9/fmxsLEVRNE0XFhba29tr66w3TZVmVVWVal1TIpEEBQW5uLiQJEmSpJWVlbu7O/OTQwiTk5M9PT1V5/jK5fKePXuKxWIIYVBQkKWlZWNjozKWpukxY8Yw3lEsFru4uKhem5qaGhgYCCFUKBR8Pj8oKEg1tqyszMLCgpmN+QZpQghlMpmBgYHyWqU0GxoazMzMVP97zJ+tqqqKJElmYLIy6ty5c0zO2oemFuhmZma4Cswvl5KSwowrgxBGRkby+Xwm8aZNmyIiIlTrpjo6OiEhIUzZCgBYsGCBvr6+MhbDsG+//fbYsWMAABsbm7S0NOW1EMKcnJzMzEz4VzH69ddfq+ZsYWFhb2/frBxvFdeuXfP391edvEEQxOLFiy9fvoxhWI8ePfbu3ats7U2ePDkyMrLN92IzmtoMKioqUm38MrMmlBLBcdzFxUUZm56ezgwBVmX06NFLly5dvnw5AMDDw6NZbP/+/RlvxHRGXrhw4ebNmw8fPhSLxcXFxb169WKS6erqduvWrdm1Pj4+GRkZjo6ObXu0srKy7OzsZuuIpKSk8Hg8HMeTkpJ8fX1DQkK8vLw+/PBDd3f3ZpM5tQZNlaahoaFy3vcradZ3DV9qK8B/NoNezoFxwAUFBa6urjNnzpw3b96XX37J5/NFIpFyqBFT9Lyc8ys71VvOuHHjvL29VUO8vb0Zv+7g4PDw4cO6urqHDx8ePXo0ICDg8OHDU6ZMeZfbsRNNLdBbxYgRI54+fdosMDk52dfXlzl+ucs9MzNz3LhxGIbt2LEjPDw8Ojp61KhRpqamOjo6qjPUFApFUVFRs2uPHz/u7OzcZmstLS2Z6qYqenp6EEKZTFZXV4dhmJGR0ZgxY7Zs2XL37t2PP/5YK1dZ6hTSXL58eXBwsKp7k8vlGzZsmDFjBnP666+/NjQ0KGMhhKGhoUxHY1NT0+DBg1XrmnFxccqUGIZt3rxZNeeSkpLnz5+/XH94Ja+U1NixY/fv36/6ZQtC6OXllZeXV1ZW5urqqno7e3t7plXUkttpFp1CmqNGjXJ2dg4ODmb0V1VVJRQKg4ODra2tmQSzZ8/29vYuKytjPFNYWFifPn3c3NwAAN7e3oGBgTU1NQCAurq6TZs2mZub5+XlMX2QfD6fIIjNmzcznysLCwt9fX0PHDjATCF6MziO6+np3bhxo9lSnXw+f8OGDV5eXswKC01NTevXr3dwcHBycrK2tu7ateuGDRuYJRQlEsnatWtXrlz5jvUHlvI+uwPaBZqmjx071mwZt2YJEhMTlYtjKQNv3Ljh5+cnEAgCAgLS09OVvTb37t2rqKgoLy8PDg4WCAQ+Pj5nz55VxtI0ffbsWR8fH4FAsHDhQrFYTNP06dOnr169SlHU8ePHSZJMTU319fUVCASBgYHPnj1T3vTBgwfM+m9FRUX379+HENbV1Z09e1aZID8//+DBg8yyco8ePcrPz1fe9P79+7NmzRIIBFOnTo2Pj6coiolSKBR79uwRCoUCgWDWrFkpKSmvW/hO00Gj3BEsRRsLAoRWgKSJYClImm2EpunHjx+r2wptBkmzjWRmZq5evRrV1DsO1AxqIwEBAUeOHCkrKzMzM1O3LdoJ8pptoba29ujRoxRFqXa/I9oXJM22sH//fpIkAQBbtmxh1ZQPbQIV6K2Goih7e/v8/HzmNDk5eezYseo1SStBXrPV3L59W6lLAEBoaCj6e3cEyGu2mokTJ96+fVsqldI0zefzGxoaSkpKms2cRLw7yGu2joqKiqFDh+bm5jIDOKKjoy9fvhwfH69uu7QQ5DVbB03TOI4rFApDQ0OZTJaYmOjr68sEqts0bQO90NbxSgkiXXYE6J0iWAqSJoKlIGkiWAqSJoKlIGkiWAqSJoKlIGkiWAqSJoKlaMDXoLq6upMnT546dYo924g3NTVduHCBoignJycnJyd1m/M3w4cPFwqFAwcO1IY14dU3z/jt0DR97tw51TXcEC1h1qxZzabhayKs9poikcjJyUmhUOA4bmJmamFpoW6LWI1UKi19XsIs7DF//vzdu3drtO9ktTR9fX1PnDiho6v73dYwTx9PgoP2ZH4LxfnFIYtXZ6Y/wDCssrJSo9c3ZG8ziKKoS5cuAQAEkwRevl5Ily2hm023JWuCAAAQwoyMDHWb806wd31NCCGzkFpPO5t2LJhKCorTktMqKyt72vR0GTHYomuLKgk1ldVlJeX2fXtzWP8Pse1tSxAERVGqa99pIuz1mu0OhPD3hN9XLlpRXVltYmqSk5UT6LfwzJEzb63SZKVnfTFjccwPPzU1Nt28lJJ+M/39GNzJYa/XbHdKi8r2bP8l7uRuE3MTJmTq7GmffxjYz7mfXd83LYd57dyVgEVzfQJ8AABPsp4YmRgNGT3kfVjcuelEXjP/aZ5DP0djM2NlSA+7Hn5zpj/NebFgMYSwrqYu+cL1h3czFXIFE0JRVEV5hY6ODkVRzJYoNE1TJMXUN2ialsvkGbfS76feZy6RNjalJac9uveQIv+eBEySZFZG1vWka4XiQsZJ0zRNU3+v+wohZPJ8P69CI+hEXtOsi9kfDx6VPS+zsn6x3x6GYQuXL2KOIQ0TYhJOHjruOtK1sV76NDt39aY1fQb2/WpO0B+ZWTcvp5w8dJzD4fyRmYXj+P7YfQmXDp07dq4orzD3z1yrHpZV5dUlhcVfrv3qQMz+7rbdn+c9b6hriNq71YBnUJxfvG7p2u69rA1N+Hv+92ufAX2DI1Y8SH0QuXLDz4mxpuamAIALx5MS9ydG7dmiz0OduC/oRNK0d7L39hd+9MHc4e4jho0ZPmSUm7WttbKBlXr19uXTF2MTdxmaGAIA7t++v/7r73b9/suOoz+F/3v98LEjJ/lNAgDs2farkYmR30fTmauuJ12LPvyTuaUZpOHaL9b8b8O26MM7eYY8mqZXLVyZnnJv7CT3uKjYmZ/O9vL1AgDIZfKFPp8UPSsaPHLw1NnTNq6MjIzZWCQuitsS+wPS5T/pRAU6TuCfrfx83/kEt5FD79xIWzzzM/8xfsf3JpIKEgBw+NfDC78JZHQJAHAZ4TLAdUDKxRtvznOkx0hzSzMAAIZj/Qb1Hz5uBM+QBwDAcdyhn2O+OA/ScKzX2DGeL7ZMJTiEPs+gtLgEw7CAwDkcDmdXVFz48vVBa7/qadezAx9eA+lEXhMAgGGYRTcL33l+vvP8FHJFVnrWxlURTdKmDz+ZkZv9pJ9zP9WUzm4uBaKCN2do0VVl7yIcs+z6j62MKIrCcGysl/uty7fup6XLpHIIYXlpBZOA4BDBG1bM9PD3mjp5rBda/6M5nchr7toa9+jeI+Wpjq7O4JGDg8NXnEs8i+GYjg5HoSBV0zdJm5itg97AWztcFTLFqkUrxU9EcwLnfRP27+DIFba9bZWxKZdSbOxsHtx5UF1R/fo8OimdSJq1lTXXk643C1QoSK4+lyCIwcNcb11JUYbTNJ2afLvPoL7veNPiwuLKiop5Sz7q0tWc4BA0RZeXljNRjx893rczflPcf4UzhBuWh5P//GMgOpE0p3/04dljpy+euChtkDKdNbl/5G4L3+o/70MAQEDg3L074rMf/EnTtEKuOLL7cENdwzD3Yc0y0eXqinKelpeUt7Cjx4BvUFlaWfA0H0LYWN+4Lzq+sb6+rraurrY+Ijh82X++MbM0m7lgli5XN357POo8UqUT1TVtHW3/+0vU7h937d0ZL1fIOASHb8T/JOhTz6kTAQAO/R1Wb16zdf3Wmupqri7X1sFuY+xmXa4uAKCnXU9lL/34KRO2fhe1+rMV0Yd/MrMwM1BpU1t0tdDR1VWeWllb6erpmFuaL/x60erPVkEMGhsbe384Zdl//n0k/rA4Rzxx6qThHsMxDMMIbNXGVRuCw4ueFfWw6/F+3wp7Ye/II5IkTUxMGhoaZn4ye0XEyvbKFkKokCsUCgWO4Vx9brOFN2iKlkqlBEFw9bjt+OFeLpcr5ApdXV0dXR3Gho4brlbwtGC6+zQI4alTpzR670r2FugEQTC7oSUnXa8qq2qvbDEM0+Xq8vg8fZ7+ywvC4ATO4/P09PXaVzq6uro8Po/RJWhB46nNQBqeSEhk3I2Dg0MH3eX9wF6vCQDYvXv3ggULAAA9bW28p0/R0+eq2yK2k3kv81rSVZqme/XqJRKJNHsxpvc4or7VUBQ1d+5cdb8hzYPH4z158kTdv967wmqvCQCgaTo2NjYsLKyiokLdtjQHdmSVsW0QBCEUCqOjo7t06aJuW94VtkuTAULItq2VGxsbz58/7+fnp25D/gFBEC3ZVFgj0IzOIwzDuFx2VTTv3r0bExMze/ZstjlOrUEzvCbbgBBOmjTp4sWLhYWFyk3VEe2LJrfg1EdxcfGVK1cAANu3b1e3LVoLkmZbiImJYXay2r59O3vWFNEykDRbjVwu37p1K3NcX19/5swZ9dqjrSBptppLly7V1tYqT8PCwlB9vSNAzaDWASF0c3MrLy8vLi6mKKp79+4lJSWPHz/u3bu3uk3TNpDXbB1lZWXffvttdnY2h8MBAPz444/Pnj27fr35MFDEu4O8ZutgvgA129KKhZ+FtADkNVvHKyWIdNkRIGkiWAqSJoKlIGkiWAqSJoKlIGkiWAqSJoKlIGkiWIpmDCWmKKq+vp49XwckEomenh6O4wUFBTU1Neo252/09PS43PacpqxO1DEhqRUoFIqwsDA+n6/u96QZ4DguEAjy8/PV/bu1A6yWJkmS3t7e6v65NQ8+n5+bm6vuX+9dYfU39Li4uEWLFgEAnPoNmO4fYGRsom6LWA1NUffu3j6eeISiSCsrq6KioreudMdm2CtNCKGDg4NIJLKxsT124rKJiQbvzvTeoGl6248bo7d9DwDIysrq37+/ui1qO+xtoVMUVVJSAgCYMHEy0mULwXHc3z+AWbRDLBar25x3gr3SVKKn17ErnEdGrE06//vL4RvCVv/558MOvXVHwOW+WLCJ2RBMc9EAaXY0FeVl9fV1L4dbWFpxddk1+b1ToRn9mmoh8LNl6jahU4O85mv54fvvcrKzAACbN6579DAj+N+fT/BwnTJ5dFzMNop6sbj1vbu3F34601MwxG+qYHfcdiZcoZD/siva39dzgoerv++E44mHmLbm9m2bLiSd/jEqYppw3P2MO2p8NI0Aec3XUlCQ19QkBQDcvpn8/Hnh0qAVDo5OJSXPF34yw8lpwNhxnmLRk3Vrv4nYuG2Q85CamqrvN4X+smvHwsAvE48lZD168OveRENDo/w88eLP5g52dbO1daAo6uCBXyZ4/t+hI+f19NEWQW8Bec23Q0N6uv8cB0cnAEDXrt2FPv737qUCAPbtjft88dcug4fiOG5m1mXN2g2nT/3W2NhQWlIc+PkyQ0MjAIBNL7sBA12y/8xisrKwsAyY+ynSZUtAXvPtEATh1G+A8tTI2KSkpIim6Xt3UymKys3NYcIhhBXlZWVlJUHLVjU1SR9mphcXF4lFuRnpd8Z5TGTSjBrtodnLsb5HkDTfDoZhGNZcTzRNNzVJezv0Ve1zXbF6vampeeJvCSePHxknmGhv5yD08ReJnigT6KrsQ4B4M0iabYTD4djY2PbrN2DosNFMCE3Thw7uoUjF9m3fJ568YmT0YgthUqFQn5kaDCpc2o7XJOHOHVtkshfLcd2+df3smeMEhyOVNsK/ursf5/yRlprC2q/BbAZ5TQAA2LH9h0MJe1RDZgd8/NarfKfPzshI+/Rj/1GjPaqrK++m3fpha4yRkclEL+/AhbPdx3lWVpRXVJR9smDxL7t2uLo23x0L8WbYO7yDJEljY+PGxsbPFn+1fEVox91IIqmVvbQQIY/HJylSX99AR0enurrK2NgYx1+M4pFKG2ma5vH4AACKop7mZj98+MDU1GzY8FGGhsaM5X/8kfk4+w+bXnaDXYfiOFFVVWFqai6XyzgEh6un13HPAgAoLXk+bswgmqZPnjzp4+PToffqUNjrNXEcZ9YVepr7BHbkyi1GRsbgr3rhKzE1NVM91dc3UB4TBNGn74A+fQeoJuBwOM7OQ5ydhyhDLC27AgDezyrrT58+Zr6e62t4FxWrpSkUCg8cOHDt6oUjh/dO851JEOy1liUU5Is3RqwDAOA4PmTIkLemZzPsLdABAEVFRb1795bJZAAAIyMjAx6ahvEWSoqfMwfLli2LiorS7ElCahtf3wJomr516xaPx1P3S9IkMAxbsGABSZLq/vXeFVZ7TQaZTHbu3Lnk5GR1G/IPFApFcXGxjY2Nug35BzY2NlOnTu3Vq5dm+0sAAMsLdDZTVVW1c+fOkJAQdRuitaAu9zby008/ff/99yRJqtsQrQV5zbZAUZSVlVVlZeXFixc9PT3VbY52grxmW7h582ZVVRUAYPXq1ei/3UEgr9lqIISenp7MbmsEQRQUFHTr1k3dRmkhyGu2mvLy8mvXrjHHFEUpt7dCtC9Imq1m8+bNqvNoo6OjmY8CiPYFSbN1KBSKI0eOxMbGMoOClyxZ8sEHH5w+fVrddmkhqK7ZOmpra7lcLkEQyn2Dpk2bJhaL7e3t1W2atvH/pwW+qHGdJy8AAAAASUVORK5CYII=;" vertex="1" parent="SUoC9XZfshMG5ti-oYJR-8">
          <mxGeometry x="36.26936747299769" width="173.94063252700232" height="122.22776838400223" as="geometry" />
        </mxCell>
      </root>
    </mxGraphModel>
  </diagram>
</mxfile>
